{"glyphs":{"0":{"ha":776,"x_min":82,"x_max":694,"o":"m 388 -12 q 161 110 240 -12 q 82 514 82 233 q 160 918 82 795 q 388 1040 239 1040 q 615 918 537 1040 q 694 514 694 795 q 615 110 694 233 q 388 -12 535 -12 m 388 33 q 526 78 469 33 q 613 227 582 122 q 644 511 644 333 q 613 799 644 692 q 526 950 582 906 q 388 994 469 994 q 250 950 307 994 q 163 800 194 906 q 132 517 132 695 q 163 229 132 336 q 250 78 194 122 q 388 33 306 33 z "},"1":{"ha":426,"x_min":15,"x_max":296,"o":"m 268 1031 l 296 1031 l 296 0 l 249 0 l 249 963 l 15 788 l 15 840 l 268 1031 z "},"2":{"ha":604,"x_min":30,"x_max":559,"o":"m 559 44 l 559 0 l 42 0 l 42 28 l 324 451 q 427 635 397 559 q 458 785 458 712 q 402 945 458 897 q 233 994 345 994 q 30 955 124 994 l 30 1002 q 123 1030 69 1020 q 233 1040 177 1040 q 435 979 364 1040 q 507 790 507 918 q 493 681 507 734 q 448 566 479 628 q 360 422 416 504 l 106 44 l 559 44 z "},"3":{"ha":635,"x_min":38,"x_max":581,"o":"m 353 536 q 523 444 465 513 q 581 269 581 375 q 544 117 581 180 q 434 20 506 53 q 260 -12 362 -12 q 38 27 140 -12 l 38 74 q 260 33 146 33 q 462 93 391 33 q 533 269 533 153 q 463 443 533 381 q 253 506 393 506 l 164 506 l 164 551 l 194 551 q 361 580 292 551 q 464 662 429 608 q 499 790 499 715 q 440 943 499 891 q 265 994 381 994 q 160 985 210 994 q 60 956 110 976 l 60 1003 q 156 1031 101 1021 q 265 1040 210 1040 q 475 975 401 1040 q 548 790 548 910 q 497 632 548 698 q 353 536 447 565 z "},"4":{"ha":737,"x_min":36,"x_max":706,"o":"m 706 311 l 706 267 l 560 267 l 560 0 l 513 0 l 513 267 l 36 267 l 36 294 l 429 1028 l 481 1028 l 97 311 l 513 311 l 523 681 l 560 681 l 560 311 l 706 311 z "},"5":{"ha":638,"x_min":55,"x_max":599,"o":"m 226 574 q 508 490 417 562 q 599 279 599 418 q 516 62 599 137 q 278 -12 434 -12 q 161 -2 219 -12 q 55 27 104 8 l 55 74 q 279 33 167 33 q 482 95 413 33 q 550 278 550 156 q 516 411 550 359 q 408 492 481 464 q 215 528 334 521 l 93 535 l 126 1028 l 556 1028 l 556 983 l 170 983 l 142 578 l 226 574 z "},"6":{"ha":710,"x_min":92,"x_max":671,"o":"m 381 575 q 531 543 466 575 q 634 445 597 510 q 671 283 671 379 q 636 119 671 185 q 540 20 601 53 q 402 -12 479 -12 q 174 101 256 -12 q 92 480 92 215 q 135 802 92 678 q 261 983 178 926 q 467 1040 344 1040 q 628 1012 561 1040 l 628 965 q 466 994 559 994 q 286 944 358 994 q 177 782 214 894 q 140 489 140 671 l 140 486 q 247 551 183 528 q 381 575 310 575 m 403 33 q 516 59 467 33 q 593 141 565 85 q 622 280 622 196 q 556 468 622 407 q 378 529 490 529 q 247 505 311 529 q 141 431 183 481 q 180 194 146 282 q 269 70 213 107 q 403 33 326 33 z "},"7":{"ha":582,"x_min":7,"x_max":542,"o":"m 7 1028 l 542 1028 l 542 1000 l 167 0 l 117 0 l 487 983 l 7 983 l 7 1028 z "},"8":{"ha":776,"x_min":69,"x_max":706,"o":"m 490 513 q 615 448 568 485 q 684 364 663 412 q 706 252 706 317 q 669 113 706 172 q 562 20 632 53 q 396 -12 492 -12 q 219 19 292 -12 q 108 111 146 51 q 69 256 69 172 q 123 428 69 354 q 269 539 176 503 q 142 639 182 580 q 103 785 103 699 q 137 920 103 863 q 235 1009 172 978 q 385 1040 299 1040 q 538 1009 473 1040 q 638 919 603 978 q 673 783 673 861 q 626 622 673 691 q 490 513 578 553 m 153 786 q 176 676 153 721 q 255 598 200 631 q 408 539 310 565 l 437 531 q 581 633 537 575 q 626 783 626 692 q 562 940 626 885 q 385 994 499 994 q 213 939 273 994 q 153 786 153 884 m 397 33 q 588 90 519 33 q 656 248 656 146 q 632 359 656 315 q 553 434 608 403 q 400 492 498 465 q 319 518 363 502 q 172 419 224 487 q 119 257 119 351 q 189 91 119 149 q 397 33 259 33 z "},"9":{"ha":710,"x_min":40,"x_max":619,"o":"m 308 1040 q 537 926 455 1040 q 619 548 619 813 q 576 226 619 350 q 450 45 533 102 q 243 -12 367 -12 q 83 16 149 -12 l 83 63 q 244 33 151 33 q 425 84 353 33 q 533 245 497 134 q 570 539 570 357 l 570 542 q 464 476 528 500 q 330 453 400 453 q 179 485 244 453 q 77 583 114 517 q 40 745 40 649 q 75 909 40 842 q 170 1008 110 975 q 308 1040 231 1040 m 333 499 q 463 523 399 499 q 569 597 527 547 q 531 833 565 746 q 441 958 497 921 q 307 994 385 994 q 195 968 244 994 q 117 887 146 942 q 88 748 88 832 q 154 560 88 621 q 333 499 220 499 z "},"\u0000":{"ha":0,"x_min":0,"x_max":0,"o":""},"\r":{"ha":311,"x_min":0,"x_max":0,"o":""}," ":{"ha":311,"x_min":0,"x_max":0,"o":""},"A":{"ha":839,"x_min":22,"x_max":817,"o":"m 765 0 l 635 367 l 202 367 l 72 0 l 22 0 l 390 1028 l 449 1028 l 817 0 l 765 0 m 219 413 l 619 413 l 419 976 l 219 413 z "},"Á":{"ha":839,"x_min":22,"x_max":817,"o":"m 765 0 l 635 367 l 202 367 l 72 0 l 22 0 l 390 1028 l 449 1028 l 817 0 l 765 0 m 219 413 l 619 413 l 419 976 l 219 413 m 399 1122 l 505 1311 l 557 1311 l 441 1122 l 399 1122 z "},"Ă":{"ha":839,"x_min":22,"x_max":817,"o":"m 765 0 l 635 367 l 202 367 l 72 0 l 22 0 l 390 1028 l 449 1028 l 817 0 l 765 0 m 219 413 l 619 413 l 419 976 l 219 413 m 422 1131 q 291 1173 338 1131 q 238 1292 244 1215 l 278 1292 q 319 1200 285 1229 q 422 1172 352 1172 q 524 1200 491 1172 q 563 1292 557 1229 l 602 1292 q 551 1172 597 1213 q 422 1131 506 1131 z "},"Ắ":{"ha":839,"x_min":22,"x_max":817,"o":"m 765 0 l 635 367 l 202 367 l 72 0 l 22 0 l 390 1028 l 449 1028 l 817 0 l 765 0 m 219 413 l 619 413 l 419 976 l 219 413 m 399 1283 l 505 1458 l 557 1458 l 441 1283 l 399 1283 m 421 1131 q 290 1172 336 1131 q 238 1292 244 1213 l 278 1292 q 317 1200 284 1229 q 421 1172 351 1172 q 523 1200 491 1172 q 563 1292 555 1228 l 602 1292 q 550 1172 597 1214 q 421 1131 504 1131 z "},"Ặ":{"ha":839,"x_min":22,"x_max":817,"o":"m 765 0 l 635 367 l 202 367 l 72 0 l 22 0 l 390 1028 l 449 1028 l 817 0 l 765 0 m 219 413 l 619 413 l 419 976 l 219 413 m 420 -215 q 389 -203 401 -215 q 377 -172 377 -192 q 389 -140 377 -153 q 420 -128 401 -128 q 451 -140 439 -128 q 463 -172 463 -153 q 451 -203 463 -192 q 420 -215 439 -215 m 422 1131 q 291 1173 338 1131 q 238 1292 244 1215 l 278 1292 q 319 1200 285 1229 q 422 1172 352 1172 q 524 1200 491 1172 q 563 1292 557 1229 l 602 1292 q 551 1172 597 1213 q 422 1131 506 1131 z "},"Ằ":{"ha":839,"x_min":22,"x_max":817,"o":"m 765 0 l 635 367 l 202 367 l 72 0 l 22 0 l 390 1028 l 449 1028 l 817 0 l 765 0 m 219 413 l 619 413 l 419 976 l 219 413 m 399 1283 l 283 1458 l 336 1458 l 441 1283 l 399 1283 m 420 1131 q 290 1172 335 1131 q 238 1292 244 1213 l 278 1292 q 317 1200 284 1229 q 420 1172 350 1172 q 523 1200 490 1172 q 563 1292 555 1228 l 602 1292 q 550 1173 597 1215 q 420 1131 503 1131 z "},"Ẳ":{"ha":839,"x_min":22,"x_max":817,"o":"m 765 0 l 635 367 l 202 367 l 72 0 l 22 0 l 390 1028 l 449 1028 l 817 0 l 765 0 m 219 413 l 619 413 l 419 976 l 219 413 m 399 1283 q 417 1326 400 1311 q 464 1353 433 1340 q 498 1373 487 1364 q 510 1398 510 1383 q 492 1425 510 1415 q 429 1434 474 1434 q 299 1408 361 1434 l 299 1447 q 359 1465 324 1458 q 429 1472 393 1472 q 520 1451 489 1472 q 551 1399 551 1431 q 536 1357 551 1372 q 492 1330 521 1343 q 456 1309 467 1318 q 442 1283 444 1299 l 399 1283 m 419 1131 q 290 1172 335 1131 q 238 1292 244 1213 l 278 1292 q 317 1200 284 1229 q 419 1172 349 1172 q 522 1200 488 1172 q 563 1292 555 1229 l 602 1292 q 550 1173 597 1215 q 419 1131 503 1131 z "},"Ẵ":{"ha":839,"x_min":22,"x_max":817,"o":"m 765 0 l 635 367 l 202 367 l 72 0 l 22 0 l 390 1028 l 449 1028 l 817 0 l 765 0 m 219 413 l 619 413 l 419 976 l 219 413 m 506 1343 q 461 1351 483 1343 q 411 1372 439 1358 q 367 1391 384 1385 q 335 1397 351 1397 q 282 1384 306 1397 q 238 1347 258 1372 l 238 1393 q 335 1436 274 1436 q 379 1429 358 1436 q 429 1408 400 1422 q 472 1389 453 1395 q 506 1383 490 1383 q 559 1395 535 1383 q 602 1432 582 1407 l 602 1386 q 561 1354 585 1365 q 506 1343 536 1343 m 419 1131 q 290 1172 335 1131 q 238 1292 244 1213 l 278 1292 q 317 1200 284 1229 q 419 1172 349 1172 q 522 1200 488 1172 q 563 1292 555 1229 l 602 1292 q 550 1173 597 1215 q 419 1131 503 1131 z "},"Â":{"ha":839,"x_min":22,"x_max":817,"o":"m 765 0 l 635 367 l 202 367 l 72 0 l 22 0 l 390 1028 l 449 1028 l 817 0 l 765 0 m 219 413 l 619 413 l 419 976 l 219 413 m 598 1122 l 546 1122 l 421 1282 l 295 1122 l 242 1122 l 394 1311 l 447 1311 l 598 1122 z "},"Ấ":{"ha":839,"x_min":22,"x_max":817,"o":"m 765 0 l 635 367 l 202 367 l 72 0 l 22 0 l 390 1028 l 449 1028 l 817 0 l 765 0 m 219 413 l 619 413 l 419 976 l 219 413 m 662 1433 l 714 1433 l 598 1244 l 556 1244 l 662 1433 m 394 1311 l 447 1311 l 598 1122 l 546 1122 l 421 1282 l 295 1122 l 242 1122 l 394 1311 z "},"Ậ":{"ha":839,"x_min":22,"x_max":817,"o":"m 765 0 l 635 367 l 202 367 l 72 0 l 22 0 l 390 1028 l 449 1028 l 817 0 l 765 0 m 219 413 l 619 413 l 419 976 l 219 413 m 420 -215 q 389 -203 401 -215 q 377 -172 377 -192 q 389 -140 377 -153 q 420 -128 401 -128 q 451 -140 439 -128 q 463 -172 463 -153 q 451 -203 463 -192 q 420 -215 439 -215 m 598 1122 l 546 1122 l 421 1282 l 295 1122 l 242 1122 l 394 1311 l 447 1311 l 598 1122 z "},"Ầ":{"ha":839,"x_min":22,"x_max":817,"o":"m 765 0 l 635 367 l 202 367 l 72 0 l 22 0 l 390 1028 l 449 1028 l 817 0 l 765 0 m 219 413 l 619 413 l 419 976 l 219 413 m 612 1244 l 570 1244 l 454 1433 l 507 1433 l 612 1244 m 394 1311 l 447 1311 l 598 1122 l 546 1122 l 421 1282 l 295 1122 l 242 1122 l 394 1311 z "},"Ẩ":{"ha":839,"x_min":22,"x_max":817,"o":"m 765 0 l 635 367 l 202 367 l 72 0 l 22 0 l 390 1028 l 449 1028 l 817 0 l 765 0 m 219 413 l 619 413 l 419 976 l 219 413 m 586 1433 q 677 1413 646 1433 q 708 1360 708 1393 q 693 1319 708 1333 q 649 1292 678 1305 q 613 1270 624 1280 q 599 1244 601 1261 l 556 1244 q 574 1288 557 1273 q 621 1315 590 1302 q 655 1335 644 1326 q 667 1360 667 1344 q 649 1386 667 1377 q 586 1396 631 1396 q 456 1370 518 1396 l 456 1408 q 516 1427 481 1420 q 586 1433 550 1433 m 394 1311 l 447 1311 l 598 1122 l 546 1122 l 421 1282 l 295 1122 l 242 1122 l 394 1311 z "},"Ẫ":{"ha":839,"x_min":22,"x_max":817,"o":"m 765 0 l 635 367 l 202 367 l 72 0 l 22 0 l 390 1028 l 449 1028 l 817 0 l 765 0 m 219 413 l 619 413 l 419 976 l 219 413 m 504 1383 q 555 1395 532 1383 q 598 1432 578 1407 l 598 1386 q 557 1354 581 1365 q 504 1343 533 1343 q 462 1350 482 1343 q 410 1372 442 1358 q 369 1391 385 1385 q 337 1397 353 1397 q 286 1384 308 1397 q 242 1347 263 1372 l 242 1393 q 283 1425 259 1414 q 337 1436 308 1436 q 380 1429 359 1436 q 430 1407 400 1422 q 472 1389 456 1394 q 504 1383 488 1383 m 394 1311 l 447 1311 l 598 1122 l 546 1122 l 421 1282 l 295 1122 l 242 1122 l 394 1311 z "},"Ȁ":{"ha":839,"x_min":22,"x_max":817,"o":"m 765 0 l 635 367 l 202 367 l 72 0 l 22 0 l 390 1028 l 449 1028 l 817 0 l 765 0 m 219 413 l 619 413 l 419 976 l 219 413 m 305 1122 l 226 1311 l 272 1311 l 345 1122 l 305 1122 m 496 1122 l 417 1311 l 463 1311 l 535 1122 l 496 1122 z "},"Ä":{"ha":839,"x_min":22,"x_max":817,"o":"m 765 0 l 635 367 l 202 367 l 72 0 l 22 0 l 390 1028 l 449 1028 l 817 0 l 765 0 m 219 413 l 619 413 l 419 976 l 219 413 m 281 1174 q 250 1185 263 1174 q 238 1217 238 1197 q 250 1249 238 1236 q 281 1261 263 1261 q 312 1249 300 1261 q 324 1217 324 1236 q 312 1185 324 1197 q 281 1174 300 1174 m 559 1174 q 528 1185 540 1174 q 516 1217 516 1197 q 528 1249 516 1236 q 559 1261 540 1261 q 590 1249 578 1261 q 602 1217 602 1236 q 590 1185 602 1197 q 559 1174 578 1174 z "},"Ạ":{"ha":839,"x_min":22,"x_max":817,"o":"m 765 0 l 635 367 l 202 367 l 72 0 l 22 0 l 390 1028 l 449 1028 l 817 0 l 765 0 m 219 413 l 619 413 l 419 976 l 219 413 m 420 -215 q 389 -203 401 -215 q 377 -172 377 -192 q 389 -140 377 -153 q 420 -128 401 -128 q 451 -140 439 -128 q 463 -172 463 -153 q 451 -203 463 -192 q 420 -215 439 -215 z "},"À":{"ha":839,"x_min":22,"x_max":817,"o":"m 765 0 l 635 367 l 202 367 l 72 0 l 22 0 l 390 1028 l 449 1028 l 817 0 l 765 0 m 219 413 l 619 413 l 419 976 l 219 413 m 399 1122 l 283 1311 l 336 1311 l 441 1122 l 399 1122 z "},"Ả":{"ha":839,"x_min":22,"x_max":817,"o":"m 765 0 l 635 367 l 202 367 l 72 0 l 22 0 l 390 1028 l 449 1028 l 817 0 l 765 0 m 219 413 l 619 413 l 419 976 l 219 413 m 399 1122 q 417 1165 400 1151 q 464 1193 433 1180 q 498 1213 487 1203 q 510 1238 510 1222 q 492 1264 510 1255 q 429 1274 474 1274 q 299 1248 361 1274 l 299 1286 q 359 1305 324 1298 q 429 1311 393 1311 q 520 1291 489 1311 q 551 1238 551 1271 q 536 1197 551 1211 q 492 1169 521 1183 q 456 1148 467 1158 q 442 1122 444 1139 l 399 1122 z "},"Ȃ":{"ha":839,"x_min":22,"x_max":817,"o":"m 765 0 l 635 367 l 202 367 l 72 0 l 22 0 l 390 1028 l 449 1028 l 817 0 l 765 0 m 219 413 l 619 413 l 419 976 l 219 413 m 238 1142 q 289 1261 244 1220 q 419 1303 335 1303 q 550 1261 503 1303 q 602 1142 597 1219 l 563 1142 q 522 1234 555 1205 q 419 1263 488 1263 q 317 1234 349 1263 q 278 1142 284 1205 l 238 1142 z "},"Ā":{"ha":839,"x_min":22,"x_max":817,"o":"m 765 0 l 635 367 l 202 367 l 72 0 l 22 0 l 390 1028 l 449 1028 l 817 0 l 765 0 m 219 413 l 619 413 l 419 976 l 219 413 m 243 1197 l 243 1238 l 597 1238 l 597 1197 l 243 1197 z "},"Ą":{"ha":839,"x_min":22,"x_max":900,"o":"m 790 -242 q 840 -235 815 -242 q 900 -214 866 -228 l 900 -251 q 791 -278 847 -278 q 686 -248 723 -278 q 650 -161 650 -217 q 677 -72 650 -113 q 762 10 703 -31 l 635 367 l 202 367 l 72 0 l 22 0 l 390 1028 l 449 1028 l 817 0 q 718 -77 747 -40 q 689 -158 689 -115 q 790 -242 689 -242 m 219 413 l 619 413 l 419 976 l 219 413 z "},"Å":{"ha":839,"x_min":22,"x_max":817,"o":"m 635 367 l 202 367 l 72 0 l 22 0 l 380 1001 q 318 1046 342 1013 q 295 1122 295 1078 q 312 1187 295 1158 q 358 1233 328 1216 q 423 1249 387 1249 q 488 1233 459 1249 q 534 1187 517 1216 q 551 1122 551 1158 q 526 1043 551 1076 q 460 999 501 1010 l 817 0 l 765 0 l 635 367 m 333 1122 q 358 1055 333 1079 q 423 1030 383 1030 q 488 1055 463 1030 q 513 1122 513 1079 q 488 1189 513 1164 q 423 1213 463 1213 q 358 1189 383 1213 q 333 1122 333 1164 m 219 413 l 619 413 l 419 976 l 219 413 z "},"Ǻ":{"ha":839,"x_min":22,"x_max":817,"o":"m 635 367 l 202 367 l 72 0 l 22 0 l 380 1001 q 318 1046 342 1013 q 295 1122 295 1079 q 312 1188 295 1158 q 358 1233 328 1217 q 423 1250 387 1250 q 494 1230 462 1250 l 591 1325 l 647 1325 l 522 1205 q 543 1167 536 1189 q 551 1122 551 1146 q 526 1044 551 1077 q 460 999 501 1010 l 817 0 l 765 0 l 635 367 m 333 1122 q 358 1055 333 1080 q 423 1031 383 1031 q 488 1055 463 1031 q 513 1122 513 1080 q 488 1189 513 1165 q 423 1214 463 1214 q 358 1189 383 1214 q 333 1122 333 1165 m 219 413 l 619 413 l 419 976 l 219 413 z "},"Ã":{"ha":839,"x_min":22,"x_max":817,"o":"m 765 0 l 635 367 l 202 367 l 72 0 l 22 0 l 390 1028 l 449 1028 l 817 0 l 765 0 m 219 413 l 619 413 l 419 976 l 219 413 m 515 1178 q 466 1186 489 1178 q 410 1207 443 1193 q 365 1226 384 1219 q 326 1232 345 1232 q 271 1220 294 1232 q 226 1182 247 1208 l 226 1228 q 268 1260 243 1249 q 326 1271 294 1271 q 374 1264 351 1271 q 430 1242 397 1256 q 476 1224 456 1230 q 515 1217 495 1217 q 569 1230 546 1217 q 615 1267 593 1242 l 615 1221 q 515 1178 578 1178 z "},"Æ":{"ha":1147,"x_min":22,"x_max":1110,"o":"m 649 46 l 1110 46 l 1110 0 l 603 0 l 583 367 l 206 367 l 72 0 l 22 0 l 398 1028 l 1103 1028 l 1103 982 l 597 982 l 621 551 l 1039 551 l 1039 506 l 624 506 l 649 46 m 222 413 l 581 413 l 551 982 l 429 982 l 222 413 z "},"Ǽ":{"ha":1147,"x_min":22,"x_max":1110,"o":"m 649 46 l 1110 46 l 1110 0 l 603 0 l 583 367 l 206 367 l 72 0 l 22 0 l 398 1028 l 1103 1028 l 1103 982 l 597 982 l 621 551 l 1039 551 l 1039 506 l 624 506 l 649 46 m 222 413 l 581 413 l 551 982 l 429 982 l 222 413 m 552 1122 l 658 1311 l 710 1311 l 594 1122 l 552 1122 z "},"B":{"ha":801,"x_min":123,"x_max":745,"o":"m 528 531 q 692 444 638 512 q 745 273 745 376 q 649 63 745 132 q 338 -7 552 -7 q 123 5 222 -7 l 123 1016 q 235 1032 179 1026 q 359 1038 290 1038 q 563 1009 484 1038 q 679 922 642 981 q 716 772 716 863 q 672 618 716 682 q 528 531 627 553 m 357 992 q 170 978 252 992 l 170 551 l 375 551 q 546 576 482 551 q 639 650 610 601 q 667 772 667 699 q 636 899 667 851 q 538 969 606 947 q 357 992 470 992 m 340 39 q 549 64 471 39 q 662 140 627 89 q 697 272 697 191 q 624 448 697 390 q 398 506 551 506 l 170 506 l 170 48 q 340 39 240 39 z "},"C":{"ha":706,"x_min":75,"x_max":687,"o":"m 474 -12 q 260 38 348 -12 q 124 204 172 88 q 75 513 75 320 q 179 916 75 792 q 484 1040 283 1040 q 687 1010 585 1040 l 687 963 q 584 987 635 980 q 479 994 534 994 q 284 949 362 994 q 166 797 207 903 q 125 515 125 692 q 167 228 125 335 q 284 78 208 122 q 473 33 360 33 q 578 42 528 33 q 687 72 628 51 l 687 25 q 474 -12 581 -12 z "},"Ć":{"ha":706,"x_min":75,"x_max":687,"o":"m 474 -12 q 260 38 348 -12 q 124 204 172 88 q 75 513 75 320 q 179 916 75 792 q 484 1040 283 1040 q 687 1010 585 1040 l 687 963 q 584 987 635 980 q 479 994 534 994 q 284 949 362 994 q 166 797 207 903 q 125 515 125 692 q 167 228 125 335 q 284 78 208 122 q 473 33 360 33 q 578 42 528 33 q 687 72 628 51 l 687 25 q 474 -12 581 -12 m 417 1122 l 523 1311 l 575 1311 l 459 1122 l 417 1122 z "},"Č":{"ha":706,"x_min":75,"x_max":687,"o":"m 474 -12 q 260 38 348 -12 q 124 204 172 88 q 75 513 75 320 q 179 916 75 792 q 484 1040 283 1040 q 687 1010 585 1040 l 687 963 q 584 987 635 980 q 479 994 534 994 q 284 949 362 994 q 166 797 207 903 q 125 515 125 692 q 167 228 125 335 q 284 78 208 122 q 473 33 360 33 q 578 42 528 33 q 687 72 628 51 l 687 25 q 474 -12 581 -12 m 564 1311 l 616 1311 l 465 1122 l 412 1122 l 260 1311 l 313 1311 l 439 1152 l 564 1311 z "},"Ç":{"ha":706,"x_min":75,"x_max":687,"o":"m 479 994 q 284 949 362 994 q 166 797 207 903 q 125 515 125 692 q 167 228 125 335 q 284 78 208 122 q 473 33 360 33 q 578 42 528 33 q 687 72 628 51 l 687 25 q 474 -12 581 -12 l 467 -12 l 467 -78 q 552 -106 520 -80 q 583 -178 583 -132 q 548 -252 583 -226 q 456 -278 513 -278 q 392 -271 424 -278 q 331 -251 359 -265 l 331 -212 q 397 -235 367 -228 q 456 -242 426 -242 q 521 -226 498 -242 q 544 -178 544 -210 q 521 -130 544 -145 q 454 -114 497 -114 l 428 -114 l 428 -11 q 166 125 258 2 q 75 513 75 247 q 179 916 75 792 q 484 1040 283 1040 q 687 1010 585 1040 l 687 963 q 584 987 635 980 q 479 994 534 994 z "},"Ḉ":{"ha":706,"x_min":75,"x_max":687,"o":"m 575 1311 l 459 1122 l 417 1122 l 523 1311 l 575 1311 m 479 994 q 284 949 362 994 q 166 797 207 903 q 125 515 125 692 q 167 228 125 335 q 284 78 208 122 q 473 33 360 33 q 578 42 528 33 q 687 72 628 51 l 687 25 q 474 -12 581 -12 l 467 -12 l 467 -78 q 552 -106 520 -80 q 583 -178 583 -132 q 548 -252 583 -226 q 456 -278 513 -278 q 392 -271 424 -278 q 331 -251 359 -265 l 331 -212 q 397 -235 367 -228 q 456 -242 426 -242 q 521 -226 498 -242 q 544 -178 544 -210 q 521 -130 544 -145 q 454 -114 497 -114 l 428 -114 l 428 -11 q 166 125 258 2 q 75 513 75 247 q 179 916 75 792 q 484 1040 283 1040 q 687 1010 585 1040 l 687 963 q 584 987 635 980 q 479 994 534 994 z "},"Ĉ":{"ha":706,"x_min":75,"x_max":687,"o":"m 474 -12 q 260 38 348 -12 q 124 204 172 88 q 75 513 75 320 q 179 916 75 792 q 484 1040 283 1040 q 687 1010 585 1040 l 687 963 q 584 987 635 980 q 479 994 534 994 q 284 949 362 994 q 166 797 207 903 q 125 515 125 692 q 167 228 125 335 q 284 78 208 122 q 473 33 360 33 q 578 42 528 33 q 687 72 628 51 l 687 25 q 474 -12 581 -12 m 616 1122 l 564 1122 l 439 1282 l 313 1122 l 260 1122 l 412 1311 l 465 1311 l 616 1122 z "},"Ċ":{"ha":706,"x_min":75,"x_max":687,"o":"m 474 -12 q 260 38 348 -12 q 124 204 172 88 q 75 513 75 320 q 179 916 75 792 q 484 1040 283 1040 q 687 1010 585 1040 l 687 963 q 584 987 635 980 q 479 994 534 994 q 284 949 362 994 q 166 797 207 903 q 125 515 125 692 q 167 228 125 335 q 284 78 208 122 q 473 33 360 33 q 578 42 528 33 q 687 72 628 51 l 687 25 q 474 -12 581 -12 m 438 1174 q 407 1185 419 1174 q 395 1217 395 1197 q 407 1249 395 1236 q 438 1261 419 1261 q 469 1249 457 1261 q 481 1217 481 1236 q 469 1185 481 1197 q 438 1174 457 1174 z "},"D":{"ha":868,"x_min":123,"x_max":793,"o":"m 320 -7 q 123 5 229 -7 l 123 1017 q 338 1038 239 1038 q 679 909 565 1038 q 793 514 793 780 q 675 119 793 244 q 320 -7 557 -7 m 322 39 q 558 88 465 39 q 697 241 651 136 q 743 514 743 346 q 699 786 743 681 q 565 941 655 891 q 334 992 474 992 q 170 978 260 992 l 170 48 q 322 39 242 39 z "},"Ǳ":{"ha":1550,"x_min":123,"x_max":1508,"o":"m 320 -7 q 123 5 229 -7 l 123 1017 q 338 1038 239 1038 q 679 909 565 1038 q 793 514 793 780 q 675 119 793 244 q 320 -7 557 -7 m 322 39 q 558 88 465 39 q 697 241 651 136 q 743 514 743 346 q 699 786 743 681 q 565 941 655 891 q 334 992 474 992 q 170 978 260 992 l 170 48 q 322 39 242 39 m 942 44 l 1508 44 l 1508 0 l 878 0 l 878 28 l 1438 983 l 886 983 l 886 1028 l 1501 1028 l 1501 1000 l 942 44 z "},"Ǆ":{"ha":1550,"x_min":123,"x_max":1508,"o":"m 320 -7 q 123 5 229 -7 l 123 1017 q 338 1038 239 1038 q 679 909 565 1038 q 793 514 793 780 q 675 119 793 244 q 320 -7 557 -7 m 322 39 q 558 88 465 39 q 697 241 651 136 q 743 514 743 346 q 699 786 743 681 q 565 941 655 891 q 334 992 474 992 q 170 978 260 992 l 170 48 q 322 39 242 39 m 942 44 l 1508 44 l 1508 0 l 878 0 l 878 28 l 1438 983 l 886 983 l 886 1028 l 1501 1028 l 1501 1000 l 942 44 m 1319 1311 l 1372 1311 l 1220 1122 l 1167 1122 l 1016 1311 l 1069 1311 l 1194 1152 l 1319 1311 z "},"Ð":{"ha":868,"x_min":-1,"x_max":793,"o":"m 338 1038 q 679 909 565 1038 q 793 514 793 780 q 675 119 793 244 q 320 -7 557 -7 q 123 5 229 -7 l 123 508 l -1 508 l -1 550 l 123 550 l 123 1017 q 338 1038 239 1038 m 322 39 q 558 88 465 39 q 697 241 651 136 q 743 514 743 346 q 699 786 743 681 q 565 941 655 891 q 334 992 474 992 q 170 978 260 992 l 170 550 l 401 550 l 401 508 l 170 508 l 170 48 q 322 39 242 39 z "},"Ď":{"ha":868,"x_min":123,"x_max":793,"o":"m 320 -7 q 123 5 229 -7 l 123 1017 q 338 1038 239 1038 q 679 909 565 1038 q 793 514 793 780 q 675 119 793 244 q 320 -7 557 -7 m 322 39 q 558 88 465 39 q 697 241 651 136 q 743 514 743 346 q 699 786 743 681 q 565 941 655 891 q 334 992 474 992 q 170 978 260 992 l 170 48 q 322 39 242 39 m 517 1311 l 569 1311 l 418 1122 l 365 1122 l 214 1311 l 267 1311 l 392 1152 l 517 1311 z "},"Đ":{"ha":868,"x_min":-1,"x_max":793,"o":"m 338 1038 q 679 909 565 1038 q 793 514 793 780 q 675 119 793 244 q 320 -7 557 -7 q 123 5 229 -7 l 123 508 l -1 508 l -1 550 l 123 550 l 123 1017 q 338 1038 239 1038 m 322 39 q 558 88 465 39 q 697 241 651 136 q 743 514 743 346 q 699 786 743 681 q 565 941 655 891 q 334 992 474 992 q 170 978 260 992 l 170 550 l 401 550 l 401 508 l 170 508 l 170 48 q 322 39 242 39 z "},"Ḍ":{"ha":868,"x_min":123,"x_max":793,"o":"m 320 -7 q 123 5 229 -7 l 123 1017 q 338 1038 239 1038 q 679 909 565 1038 q 793 514 793 780 q 675 119 793 244 q 320 -7 557 -7 m 322 39 q 558 88 465 39 q 697 241 651 136 q 743 514 743 346 q 699 786 743 681 q 565 941 655 891 q 334 992 474 992 q 170 978 260 992 l 170 48 q 322 39 242 39 m 392 -215 q 361 -203 373 -215 q 349 -172 349 -192 q 361 -140 349 -153 q 392 -128 373 -128 q 423 -140 410 -128 q 435 -172 435 -153 q 423 -203 435 -192 q 392 -215 410 -215 z "},"Ḏ":{"ha":868,"x_min":123,"x_max":793,"o":"m 320 -7 q 123 5 229 -7 l 123 1017 q 338 1038 239 1038 q 679 909 565 1038 q 793 514 793 780 q 675 119 793 244 q 320 -7 557 -7 m 322 39 q 558 88 465 39 q 697 241 651 136 q 743 514 743 346 q 699 786 743 681 q 565 941 655 891 q 334 992 474 992 q 170 978 260 992 l 170 48 q 322 39 242 39 m 215 -192 l 215 -152 l 569 -152 l 569 -192 l 215 -192 z "},"ǲ":{"ha":1426,"x_min":123,"x_max":1389,"o":"m 320 -7 q 123 5 229 -7 l 123 1017 q 338 1038 239 1038 q 679 909 565 1038 q 793 514 793 780 q 675 119 793 244 q 320 -7 557 -7 m 322 39 q 558 88 465 39 q 697 241 651 136 q 743 514 743 346 q 699 786 743 681 q 565 941 655 891 q 334 992 474 992 q 170 978 260 992 l 170 48 q 322 39 242 39 m 970 44 l 1389 44 l 1389 0 l 908 0 l 908 28 l 1319 706 l 916 706 l 916 750 l 1381 750 l 1381 722 l 970 44 z "},"ǅ":{"ha":1426,"x_min":123,"x_max":1389,"o":"m 320 -7 q 123 5 229 -7 l 123 1017 q 338 1038 239 1038 q 679 909 565 1038 q 793 514 793 780 q 675 119 793 244 q 320 -7 557 -7 m 322 39 q 558 88 465 39 q 697 241 651 136 q 743 514 743 346 q 699 786 743 681 q 565 941 655 891 q 334 992 474 992 q 170 978 260 992 l 170 48 q 322 39 242 39 m 970 44 l 1389 44 l 1389 0 l 908 0 l 908 28 l 1319 706 l 916 706 l 916 750 l 1381 750 l 1381 722 l 970 44 m 1275 1089 l 1327 1089 l 1176 900 l 1123 900 l 972 1089 l 1024 1089 l 1150 930 l 1275 1089 z "},"E":{"ha":716,"x_min":123,"x_max":679,"o":"m 170 46 l 679 46 l 679 0 l 123 0 l 123 1028 l 672 1028 l 672 982 l 170 982 l 170 551 l 608 551 l 608 506 l 170 506 l 170 46 z "},"É":{"ha":716,"x_min":123,"x_max":679,"o":"m 170 46 l 679 46 l 679 0 l 123 0 l 123 1028 l 672 1028 l 672 982 l 170 982 l 170 551 l 608 551 l 608 506 l 170 506 l 170 46 m 392 1122 l 498 1311 l 550 1311 l 434 1122 l 392 1122 z "},"Ĕ":{"ha":716,"x_min":123,"x_max":679,"o":"m 170 46 l 679 46 l 679 0 l 123 0 l 123 1028 l 672 1028 l 672 982 l 170 982 l 170 551 l 608 551 l 608 506 l 170 506 l 170 46 m 415 1131 q 284 1173 331 1131 q 231 1292 237 1215 l 271 1292 q 312 1200 278 1229 q 415 1172 345 1172 q 517 1200 484 1172 q 556 1292 550 1229 l 595 1292 q 544 1172 590 1213 q 415 1131 499 1131 z "},"Ě":{"ha":716,"x_min":123,"x_max":679,"o":"m 170 46 l 679 46 l 679 0 l 123 0 l 123 1028 l 672 1028 l 672 982 l 170 982 l 170 551 l 608 551 l 608 506 l 170 506 l 170 46 m 539 1311 l 591 1311 l 440 1122 l 387 1122 l 235 1311 l 288 1311 l 414 1152 l 539 1311 z "},"Ḝ":{"ha":716,"x_min":123,"x_max":679,"o":"m 415 1131 q 284 1173 331 1131 q 231 1292 237 1215 l 271 1292 q 312 1200 278 1229 q 415 1172 345 1172 q 517 1200 484 1172 q 556 1292 550 1229 l 595 1292 q 544 1172 590 1213 q 415 1131 499 1131 m 433 0 l 433 -78 q 518 -106 487 -80 q 550 -178 550 -132 q 515 -252 550 -226 q 422 -278 480 -278 q 358 -271 391 -278 q 298 -251 326 -265 l 298 -212 q 363 -235 334 -228 q 422 -242 392 -242 q 488 -226 465 -242 q 511 -178 511 -210 q 488 -130 511 -145 q 421 -114 464 -114 l 394 -114 l 394 0 l 123 0 l 123 1028 l 672 1028 l 672 982 l 170 982 l 170 551 l 608 551 l 608 506 l 170 506 l 170 46 l 679 46 l 679 0 l 433 0 z "},"Ê":{"ha":716,"x_min":123,"x_max":679,"o":"m 170 46 l 679 46 l 679 0 l 123 0 l 123 1028 l 672 1028 l 672 982 l 170 982 l 170 551 l 608 551 l 608 506 l 170 506 l 170 46 m 591 1122 l 539 1122 l 414 1282 l 288 1122 l 235 1122 l 387 1311 l 440 1311 l 591 1122 z "},"Ế":{"ha":716,"x_min":123,"x_max":707,"o":"m 170 46 l 679 46 l 679 0 l 123 0 l 123 1028 l 672 1028 l 672 982 l 170 982 l 170 551 l 608 551 l 608 506 l 170 506 l 170 46 m 655 1433 l 707 1433 l 591 1244 l 549 1244 l 655 1433 m 387 1311 l 440 1311 l 591 1122 l 539 1122 l 414 1282 l 288 1122 l 235 1122 l 387 1311 z "},"Ệ":{"ha":716,"x_min":123,"x_max":679,"o":"m 170 46 l 679 46 l 679 0 l 123 0 l 123 1028 l 672 1028 l 672 982 l 170 982 l 170 551 l 608 551 l 608 506 l 170 506 l 170 46 m 414 -215 q 383 -203 395 -215 q 371 -172 371 -192 q 383 -140 371 -153 q 414 -128 395 -128 q 445 -140 433 -128 q 457 -172 457 -153 q 445 -203 457 -192 q 414 -215 433 -215 m 591 1122 l 539 1122 l 414 1282 l 288 1122 l 235 1122 l 387 1311 l 440 1311 l 591 1122 z "},"Ề":{"ha":716,"x_min":123,"x_max":679,"o":"m 170 46 l 679 46 l 679 0 l 123 0 l 123 1028 l 672 1028 l 672 982 l 170 982 l 170 551 l 608 551 l 608 506 l 170 506 l 170 46 m 605 1244 l 563 1244 l 447 1433 l 500 1433 l 605 1244 m 387 1311 l 440 1311 l 591 1122 l 539 1122 l 414 1282 l 288 1122 l 235 1122 l 387 1311 z "},"Ể":{"ha":716,"x_min":123,"x_max":701,"o":"m 170 46 l 679 46 l 679 0 l 123 0 l 123 1028 l 672 1028 l 672 982 l 170 982 l 170 551 l 608 551 l 608 506 l 170 506 l 170 46 m 579 1433 q 670 1413 639 1433 q 701 1360 701 1393 q 686 1319 701 1333 q 642 1292 671 1305 q 606 1270 617 1280 q 592 1244 594 1261 l 549 1244 q 567 1288 550 1273 q 614 1315 583 1302 q 648 1335 637 1326 q 660 1360 660 1344 q 642 1386 660 1377 q 579 1396 624 1396 q 449 1370 511 1396 l 449 1408 q 509 1427 474 1420 q 579 1433 543 1433 m 387 1311 l 440 1311 l 591 1122 l 539 1122 l 414 1282 l 288 1122 l 235 1122 l 387 1311 z "},"Ễ":{"ha":716,"x_min":123,"x_max":679,"o":"m 170 46 l 679 46 l 679 0 l 123 0 l 123 1028 l 672 1028 l 672 982 l 170 982 l 170 551 l 608 551 l 608 506 l 170 506 l 170 46 m 497 1383 q 548 1395 525 1383 q 591 1432 571 1407 l 591 1386 q 550 1354 574 1365 q 497 1343 526 1343 q 455 1350 475 1343 q 403 1372 435 1358 q 362 1391 378 1385 q 330 1397 346 1397 q 279 1384 301 1397 q 235 1347 256 1372 l 235 1393 q 276 1425 252 1414 q 330 1436 301 1436 q 373 1429 352 1436 q 423 1407 393 1422 q 465 1389 449 1394 q 497 1383 481 1383 m 387 1311 l 440 1311 l 591 1122 l 539 1122 l 414 1282 l 288 1122 l 235 1122 l 387 1311 z "},"Ȅ":{"ha":716,"x_min":123,"x_max":679,"o":"m 170 46 l 679 46 l 679 0 l 123 0 l 123 1028 l 672 1028 l 672 982 l 170 982 l 170 551 l 608 551 l 608 506 l 170 506 l 170 46 m 298 1122 l 219 1311 l 265 1311 l 338 1122 l 298 1122 m 489 1122 l 410 1311 l 456 1311 l 528 1122 l 489 1122 z "},"Ë":{"ha":716,"x_min":123,"x_max":679,"o":"m 170 46 l 679 46 l 679 0 l 123 0 l 123 1028 l 672 1028 l 672 982 l 170 982 l 170 551 l 608 551 l 608 506 l 170 506 l 170 46 m 274 1174 q 243 1185 256 1174 q 231 1217 231 1197 q 243 1249 231 1236 q 274 1261 256 1261 q 305 1249 293 1261 q 317 1217 317 1236 q 305 1185 317 1197 q 274 1174 293 1174 m 552 1174 q 521 1185 533 1174 q 509 1217 509 1197 q 521 1249 509 1236 q 552 1261 533 1261 q 583 1249 571 1261 q 595 1217 595 1236 q 583 1185 595 1197 q 552 1174 571 1174 z "},"Ė":{"ha":716,"x_min":123,"x_max":679,"o":"m 170 46 l 679 46 l 679 0 l 123 0 l 123 1028 l 672 1028 l 672 982 l 170 982 l 170 551 l 608 551 l 608 506 l 170 506 l 170 46 m 413 1174 q 382 1185 394 1174 q 370 1217 370 1197 q 382 1249 370 1236 q 413 1261 394 1261 q 444 1249 432 1261 q 456 1217 456 1236 q 444 1185 456 1197 q 413 1174 432 1174 z "},"Ẹ":{"ha":716,"x_min":123,"x_max":679,"o":"m 170 46 l 679 46 l 679 0 l 123 0 l 123 1028 l 672 1028 l 672 982 l 170 982 l 170 551 l 608 551 l 608 506 l 170 506 l 170 46 m 414 -215 q 383 -203 395 -215 q 371 -172 371 -192 q 383 -140 371 -153 q 414 -128 395 -128 q 445 -140 433 -128 q 457 -172 457 -153 q 445 -203 457 -192 q 414 -215 433 -215 z "},"È":{"ha":716,"x_min":123,"x_max":679,"o":"m 170 46 l 679 46 l 679 0 l 123 0 l 123 1028 l 672 1028 l 672 982 l 170 982 l 170 551 l 608 551 l 608 506 l 170 506 l 170 46 m 392 1122 l 276 1311 l 329 1311 l 434 1122 l 392 1122 z "},"Ẻ":{"ha":716,"x_min":123,"x_max":679,"o":"m 170 46 l 679 46 l 679 0 l 123 0 l 123 1028 l 672 1028 l 672 982 l 170 982 l 170 551 l 608 551 l 608 506 l 170 506 l 170 46 m 392 1122 q 410 1165 393 1151 q 457 1193 426 1180 q 491 1213 480 1203 q 503 1238 503 1222 q 485 1264 503 1255 q 422 1274 467 1274 q 292 1248 354 1274 l 292 1286 q 352 1305 317 1298 q 422 1311 386 1311 q 513 1291 482 1311 q 544 1238 544 1271 q 529 1197 544 1211 q 485 1169 514 1183 q 449 1148 460 1158 q 435 1122 437 1139 l 392 1122 z "},"Ȇ":{"ha":716,"x_min":123,"x_max":679,"o":"m 170 46 l 679 46 l 679 0 l 123 0 l 123 1028 l 672 1028 l 672 982 l 170 982 l 170 551 l 608 551 l 608 506 l 170 506 l 170 46 m 231 1142 q 282 1261 237 1220 q 412 1303 328 1303 q 543 1261 496 1303 q 595 1142 590 1219 l 556 1142 q 515 1234 548 1205 q 412 1263 481 1263 q 310 1234 342 1263 q 271 1142 277 1205 l 231 1142 z "},"Ē":{"ha":716,"x_min":123,"x_max":679,"o":"m 170 46 l 679 46 l 679 0 l 123 0 l 123 1028 l 672 1028 l 672 982 l 170 982 l 170 551 l 608 551 l 608 506 l 170 506 l 170 46 m 236 1197 l 236 1238 l 590 1238 l 590 1197 l 236 1197 z "},"Ḗ":{"ha":716,"x_min":123,"x_max":679,"o":"m 170 46 l 679 46 l 679 0 l 123 0 l 123 1028 l 672 1028 l 672 982 l 170 982 l 170 551 l 608 551 l 608 506 l 170 506 l 170 46 m 392 1308 l 497 1469 l 550 1469 l 435 1308 l 392 1308 m 236 1197 l 236 1238 l 590 1238 l 590 1197 l 236 1197 z "},"Ḕ":{"ha":716,"x_min":123,"x_max":679,"o":"m 170 46 l 679 46 l 679 0 l 123 0 l 123 1028 l 672 1028 l 672 982 l 170 982 l 170 551 l 608 551 l 608 506 l 170 506 l 170 46 m 392 1308 l 276 1469 l 329 1469 l 434 1308 l 392 1308 m 236 1197 l 236 1238 l 590 1238 l 590 1197 l 236 1197 z "},"Ę":{"ha":716,"x_min":123,"x_max":706,"o":"m 596 -242 q 647 -235 621 -242 q 706 -214 672 -228 l 706 -251 q 597 -278 653 -278 q 493 -248 529 -278 q 456 -161 456 -217 q 480 -76 456 -115 q 554 0 503 -37 l 123 0 l 123 1028 l 672 1028 l 672 982 l 170 982 l 170 551 l 608 551 l 608 506 l 170 506 l 170 46 l 679 46 l 679 0 l 624 0 q 524 -77 553 -40 q 495 -158 495 -115 q 596 -242 495 -242 z "},"Ẽ":{"ha":716,"x_min":123,"x_max":679,"o":"m 170 46 l 679 46 l 679 0 l 123 0 l 123 1028 l 672 1028 l 672 982 l 170 982 l 170 551 l 608 551 l 608 506 l 170 506 l 170 46 m 508 1178 q 459 1186 482 1178 q 403 1207 436 1193 q 358 1226 377 1219 q 319 1232 338 1232 q 264 1220 288 1232 q 219 1182 240 1208 l 219 1228 q 261 1260 236 1249 q 319 1271 287 1271 q 367 1264 344 1271 q 423 1242 390 1256 q 469 1224 449 1230 q 508 1217 488 1217 q 563 1230 539 1217 q 608 1267 586 1242 l 608 1221 q 508 1178 572 1178 z "},"F":{"ha":689,"x_min":123,"x_max":665,"o":"m 665 982 l 170 982 l 170 551 l 601 551 l 601 506 l 170 506 l 170 0 l 123 0 l 123 1028 l 665 1028 l 665 982 z "},"G":{"ha":836,"x_min":75,"x_max":734,"o":"m 734 500 l 734 11 q 634 -3 678 1 q 542 -7 590 -7 q 283 45 386 -7 q 128 212 181 97 q 75 513 75 326 q 188 916 75 792 q 508 1040 301 1040 q 718 1010 613 1040 l 718 963 q 610 988 661 981 q 505 994 559 994 q 300 949 383 994 q 170 797 216 903 q 125 513 125 690 q 171 235 125 340 q 308 85 217 131 q 542 39 399 39 q 687 51 620 39 l 687 500 l 734 500 z "},"Ǵ":{"ha":836,"x_min":75,"x_max":734,"o":"m 734 500 l 734 11 q 634 -3 678 1 q 542 -7 590 -7 q 283 45 386 -7 q 128 212 181 97 q 75 513 75 326 q 188 916 75 792 q 508 1040 301 1040 q 718 1010 613 1040 l 718 963 q 610 988 661 981 q 505 994 559 994 q 300 949 383 994 q 170 797 216 903 q 125 513 125 690 q 171 235 125 340 q 308 85 217 131 q 542 39 399 39 q 687 51 620 39 l 687 500 l 734 500 m 440 1122 l 546 1311 l 598 1311 l 482 1122 l 440 1122 z "},"Ğ":{"ha":836,"x_min":75,"x_max":734,"o":"m 734 500 l 734 11 q 634 -3 678 1 q 542 -7 590 -7 q 283 45 386 -7 q 128 212 181 97 q 75 513 75 326 q 188 916 75 792 q 508 1040 301 1040 q 718 1010 613 1040 l 718 963 q 610 988 661 981 q 505 994 559 994 q 300 949 383 994 q 170 797 216 903 q 125 513 125 690 q 171 235 125 340 q 308 85 217 131 q 542 39 399 39 q 687 51 620 39 l 687 500 l 734 500 m 463 1131 q 332 1173 379 1131 q 279 1292 285 1215 l 319 1292 q 360 1200 326 1229 q 463 1172 393 1172 q 565 1200 532 1172 q 603 1292 598 1229 l 643 1292 q 592 1172 638 1213 q 463 1131 547 1131 z "},"Ǧ":{"ha":836,"x_min":75,"x_max":734,"o":"m 734 500 l 734 11 q 634 -3 678 1 q 542 -7 590 -7 q 283 45 386 -7 q 128 212 181 97 q 75 513 75 326 q 188 916 75 792 q 508 1040 301 1040 q 718 1010 613 1040 l 718 963 q 610 988 661 981 q 505 994 559 994 q 300 949 383 994 q 170 797 216 903 q 125 513 125 690 q 171 235 125 340 q 308 85 217 131 q 542 39 399 39 q 687 51 620 39 l 687 500 l 734 500 m 587 1311 l 639 1311 l 488 1122 l 435 1122 l 283 1311 l 336 1311 l 462 1152 l 587 1311 z "},"Ĝ":{"ha":836,"x_min":75,"x_max":734,"o":"m 734 500 l 734 11 q 634 -3 678 1 q 542 -7 590 -7 q 283 45 386 -7 q 128 212 181 97 q 75 513 75 326 q 188 916 75 792 q 508 1040 301 1040 q 718 1010 613 1040 l 718 963 q 610 988 661 981 q 505 994 559 994 q 300 949 383 994 q 170 797 216 903 q 125 513 125 690 q 171 235 125 340 q 308 85 217 131 q 542 39 399 39 q 687 51 620 39 l 687 500 l 734 500 m 639 1122 l 587 1122 l 462 1282 l 336 1122 l 283 1122 l 435 1311 l 488 1311 l 639 1122 z "},"Ģ":{"ha":836,"x_min":75,"x_max":734,"o":"m 734 500 l 734 11 q 634 -3 678 1 q 542 -7 590 -7 q 283 45 386 -7 q 128 212 181 97 q 75 513 75 326 q 188 916 75 792 q 508 1040 301 1040 q 718 1010 613 1040 l 718 963 q 610 988 661 981 q 505 994 559 994 q 300 949 383 994 q 170 797 216 903 q 125 513 125 690 q 171 235 125 340 q 308 85 217 131 q 542 39 399 39 q 687 51 620 39 l 687 500 l 734 500 m 458 -128 q 492 -143 480 -128 q 504 -187 504 -158 q 497 -247 504 -214 q 474 -311 489 -281 l 443 -311 q 466 -215 463 -262 l 461 -215 q 430 -203 442 -215 q 418 -171 418 -190 q 430 -140 418 -152 q 458 -128 441 -128 z "},"Ġ":{"ha":836,"x_min":75,"x_max":734,"o":"m 734 500 l 734 11 q 634 -3 678 1 q 542 -7 590 -7 q 283 45 386 -7 q 128 212 181 97 q 75 513 75 326 q 188 916 75 792 q 508 1040 301 1040 q 718 1010 613 1040 l 718 963 q 610 988 661 981 q 505 994 559 994 q 300 949 383 994 q 170 797 216 903 q 125 513 125 690 q 171 235 125 340 q 308 85 217 131 q 542 39 399 39 q 687 51 620 39 l 687 500 l 734 500 m 461 1174 q 430 1185 442 1174 q 418 1217 418 1197 q 430 1249 418 1236 q 461 1261 442 1261 q 492 1249 480 1261 q 504 1217 504 1236 q 492 1185 504 1197 q 461 1174 480 1174 z "},"Ḡ":{"ha":836,"x_min":75,"x_max":734,"o":"m 734 500 l 734 11 q 634 -3 678 1 q 542 -7 590 -7 q 283 45 386 -7 q 128 212 181 97 q 75 513 75 326 q 188 916 75 792 q 508 1040 301 1040 q 718 1010 613 1040 l 718 963 q 610 988 661 981 q 505 994 559 994 q 300 949 383 994 q 170 797 216 903 q 125 513 125 690 q 171 235 125 340 q 308 85 217 131 q 542 39 399 39 q 687 51 620 39 l 687 500 l 734 500 m 284 1197 l 284 1238 l 638 1238 l 638 1197 l 284 1197 z "},"H":{"ha":909,"x_min":123,"x_max":786,"o":"m 123 0 l 123 1028 l 170 1028 l 170 551 l 739 551 l 739 1028 l 786 1028 l 786 0 l 739 0 l 739 506 l 170 506 l 170 0 l 123 0 z "},"Ħ":{"ha":909,"x_min":-1,"x_max":910,"o":"m 910 813 l 910 771 l 786 771 l 786 0 l 739 0 l 739 506 l 170 506 l 170 0 l 123 0 l 123 771 l -1 771 l -1 813 l 123 813 l 123 1028 l 170 1028 l 170 813 l 739 813 l 739 1028 l 786 1028 l 786 813 l 910 813 m 739 551 l 739 771 l 170 771 l 170 551 l 739 551 z "},"Ḫ":{"ha":909,"x_min":123,"x_max":786,"o":"m 123 0 l 123 1028 l 170 1028 l 170 551 l 739 551 l 739 1028 l 786 1028 l 786 0 l 739 0 l 739 506 l 170 506 l 170 0 l 123 0 m 456 -278 q 322 -234 369 -278 q 273 -111 274 -190 l 313 -111 q 351 -206 316 -174 q 456 -237 385 -237 q 561 -206 527 -237 q 597 -111 596 -174 l 637 -111 q 589 -234 635 -191 q 456 -278 543 -278 z "},"Ĥ":{"ha":909,"x_min":123,"x_max":786,"o":"m 123 0 l 123 1028 l 170 1028 l 170 551 l 739 551 l 739 1028 l 786 1028 l 786 0 l 739 0 l 739 506 l 170 506 l 170 0 l 123 0 m 633 1122 l 581 1122 l 456 1282 l 330 1122 l 277 1122 l 428 1311 l 481 1311 l 633 1122 z "},"Ḥ":{"ha":909,"x_min":123,"x_max":786,"o":"m 123 0 l 123 1028 l 170 1028 l 170 551 l 739 551 l 739 1028 l 786 1028 l 786 0 l 739 0 l 739 506 l 170 506 l 170 0 l 123 0 m 455 -215 q 424 -203 436 -215 q 412 -172 412 -192 q 424 -140 412 -153 q 455 -128 436 -128 q 486 -140 474 -128 q 498 -172 498 -153 q 486 -203 498 -192 q 455 -215 474 -215 z "},"I":{"ha":293,"x_min":123,"x_max":170,"o":"m 123 0 l 123 1028 l 170 1028 l 170 0 l 123 0 z "},"Í":{"ha":293,"x_min":123,"x_max":283,"o":"m 123 0 l 123 1028 l 170 1028 l 170 0 l 123 0 m 126 1122 l 231 1311 l 283 1311 l 167 1122 l 126 1122 z "},"Ĭ":{"ha":293,"x_min":-35,"x_max":328,"o":"m 123 0 l 123 1028 l 170 1028 l 170 0 l 123 0 m 148 1131 q 17 1173 65 1131 q -35 1292 -30 1215 l 4 1292 q 45 1200 12 1229 q 148 1172 78 1172 q 250 1200 217 1172 q 289 1292 283 1229 l 328 1292 q 277 1172 323 1213 q 148 1131 232 1131 z "},"Î":{"ha":293,"x_min":-31,"x_max":324,"o":"m 123 0 l 123 1028 l 170 1028 l 170 0 l 123 0 m 324 1122 l 272 1122 l 147 1282 l 22 1122 l -31 1122 l 120 1311 l 173 1311 l 324 1122 z "},"Ȉ":{"ha":293,"x_min":-47,"x_max":262,"o":"m 123 0 l 123 1028 l 170 1028 l 170 0 l 123 0 m 31 1122 l -47 1311 l -1 1311 l 72 1122 l 31 1122 m 222 1122 l 144 1311 l 190 1311 l 262 1122 l 222 1122 z "},"Ï":{"ha":293,"x_min":-35,"x_max":328,"o":"m 123 0 l 123 1028 l 170 1028 l 170 0 l 123 0 m 8 1174 q -23 1185 -11 1174 q -35 1217 -35 1197 q -23 1249 -35 1236 q 8 1261 -11 1261 q 39 1249 26 1261 q 51 1217 51 1236 q 39 1185 51 1197 q 8 1174 26 1174 m 285 1174 q 255 1185 267 1174 q 242 1217 242 1197 q 255 1249 242 1236 q 285 1261 267 1261 q 316 1249 304 1261 q 328 1217 328 1236 q 316 1185 328 1197 q 285 1174 304 1174 z "},"Ḯ":{"ha":293,"x_min":-35,"x_max":328,"o":"m 123 0 l 123 1028 l 170 1028 l 170 0 l 123 0 m 126 1308 l 231 1469 l 283 1469 l 168 1308 l 126 1308 m 8 1174 q -23 1185 -11 1174 q -35 1217 -35 1197 q -23 1249 -35 1236 q 8 1261 -11 1261 q 39 1249 26 1261 q 51 1217 51 1236 q 39 1185 51 1197 q 8 1174 26 1174 m 285 1174 q 255 1185 267 1174 q 242 1217 242 1197 q 255 1249 242 1236 q 285 1261 267 1261 q 316 1249 304 1261 q 328 1217 328 1236 q 316 1185 328 1197 q 285 1174 304 1174 z "},"İ":{"ha":293,"x_min":103,"x_max":190,"o":"m 123 0 l 123 1028 l 170 1028 l 170 0 l 123 0 m 147 1174 q 116 1185 128 1174 q 103 1217 103 1197 q 116 1249 103 1236 q 147 1261 128 1261 q 177 1249 165 1261 q 190 1217 190 1236 q 177 1185 190 1197 q 147 1174 165 1174 z "},"Ị":{"ha":293,"x_min":103,"x_max":190,"o":"m 123 0 l 123 1028 l 170 1028 l 170 0 l 123 0 m 147 -215 q 116 -203 128 -215 q 103 -172 103 -192 q 116 -140 103 -153 q 147 -128 128 -128 q 177 -140 165 -128 q 190 -172 190 -153 q 177 -203 190 -192 q 147 -215 165 -215 z "},"Ì":{"ha":293,"x_min":10,"x_max":170,"o":"m 123 0 l 123 1028 l 170 1028 l 170 0 l 123 0 m 126 1122 l 10 1311 l 63 1311 l 167 1122 l 126 1122 z "},"Ỉ":{"ha":293,"x_min":25,"x_max":278,"o":"m 123 0 l 123 1028 l 170 1028 l 170 0 l 123 0 m 125 1122 q 143 1165 126 1151 q 190 1193 160 1180 q 225 1213 213 1203 q 236 1238 236 1222 q 218 1264 236 1255 q 156 1274 201 1274 q 25 1248 88 1274 l 25 1286 q 85 1305 51 1298 q 156 1311 119 1311 q 247 1291 215 1311 q 278 1238 278 1271 q 263 1197 278 1211 q 218 1169 247 1183 q 182 1148 194 1158 q 168 1122 170 1139 l 125 1122 z "},"Ȋ":{"ha":293,"x_min":-35,"x_max":328,"o":"m 123 0 l 123 1028 l 170 1028 l 170 0 l 123 0 m -35 1142 q 16 1261 -30 1220 q 145 1303 61 1303 q 276 1261 229 1303 q 328 1142 323 1219 l 289 1142 q 248 1234 281 1205 q 145 1263 215 1263 q 43 1234 76 1263 q 4 1142 10 1205 l -35 1142 z "},"Ī":{"ha":293,"x_min":-31,"x_max":324,"o":"m 123 0 l 123 1028 l 170 1028 l 170 0 l 123 0 m -31 1197 l -31 1238 l 324 1238 l 324 1197 l -31 1197 z "},"Į":{"ha":293,"x_min":3,"x_max":253,"o":"m 142 -242 q 193 -235 167 -242 q 253 -214 219 -228 l 253 -251 q 144 -278 199 -278 q 39 -248 76 -278 q 3 -161 3 -217 q 31 -68 3 -111 q 123 15 60 -26 l 123 1028 l 170 1028 l 170 0 q 71 -77 100 -40 q 42 -158 42 -115 q 142 -242 42 -242 z "},"Ĩ":{"ha":293,"x_min":-48,"x_max":342,"o":"m 123 0 l 123 1028 l 170 1028 l 170 0 l 123 0 m 241 1178 q 192 1186 215 1178 q 137 1207 169 1193 q 91 1226 110 1219 q 52 1232 72 1232 q -3 1220 21 1232 q -48 1182 -26 1208 l -48 1228 q -5 1260 -31 1249 q 52 1271 20 1271 q 101 1264 78 1271 q 156 1242 124 1256 q 202 1224 183 1230 q 241 1217 222 1217 q 296 1230 272 1217 q 342 1267 319 1242 l 342 1221 q 241 1178 305 1178 z "},"J":{"ha":293,"x_min":-3,"x_max":170,"o":"m -3 -212 q 94 -20 65 -113 q 123 199 123 73 l 123 1028 l 170 1028 l 170 177 q 134 -39 165 55 q 32 -236 103 -132 l -3 -212 z "},"Ĵ":{"ha":293,"x_min":-31,"x_max":324,"o":"m -3 -212 q 94 -20 65 -113 q 123 199 123 73 l 123 1028 l 170 1028 l 170 177 q 134 -39 165 55 q 32 -236 103 -132 l -3 -212 m 324 1122 l 272 1122 l 147 1282 l 22 1122 l -31 1122 l 120 1311 l 173 1311 l 324 1122 z "},"K":{"ha":772,"x_min":123,"x_max":789,"o":"m 731 0 l 326 506 l 170 506 l 170 0 l 123 0 l 123 1028 l 170 1028 l 170 551 l 328 551 l 703 1028 l 760 1028 l 366 529 l 789 0 l 731 0 z "},"Ķ":{"ha":772,"x_min":123,"x_max":789,"o":"m 731 0 l 326 506 l 170 506 l 170 0 l 123 0 l 123 1028 l 170 1028 l 170 551 l 328 551 l 703 1028 l 760 1028 l 366 529 l 789 0 l 731 0 m 404 -128 q 438 -143 426 -128 q 450 -187 450 -158 q 442 -247 450 -214 q 419 -311 435 -281 l 389 -311 q 412 -215 408 -262 l 407 -215 q 376 -203 388 -215 q 364 -171 364 -190 q 375 -140 364 -152 q 404 -128 387 -128 z "},"L":{"ha":666,"x_min":123,"x_max":660,"o":"m 123 0 l 123 1028 l 170 1028 l 170 46 l 660 46 l 660 0 l 123 0 z "},"Ǉ":{"ha":959,"x_min":123,"x_max":836,"o":"m 123 0 l 123 1028 l 170 1028 l 170 46 l 660 46 l 660 0 l 123 0 m 663 -212 q 760 -20 731 -113 q 789 199 789 73 l 789 1028 l 836 1028 l 836 177 q 800 -39 831 55 q 698 -236 769 -132 l 663 -212 z "},"Ĺ":{"ha":666,"x_min":123,"x_max":660,"o":"m 123 0 l 123 1028 l 170 1028 l 170 46 l 660 46 l 660 0 l 123 0 m 126 1122 l 231 1311 l 283 1311 l 167 1122 l 126 1122 z "},"Ľ":{"ha":666,"x_min":123,"x_max":660,"o":"m 123 0 l 123 1028 l 170 1028 l 170 46 l 660 46 l 660 0 l 123 0 m 419 792 q 430 938 427 858 q 432 1122 432 1018 l 476 1122 q 451 792 476 919 l 419 792 z "},"Ļ":{"ha":666,"x_min":123,"x_max":660,"o":"m 123 0 l 123 1028 l 170 1028 l 170 46 l 660 46 l 660 0 l 123 0 m 390 -128 q 423 -143 411 -128 q 435 -187 435 -158 q 428 -247 435 -214 q 405 -311 420 -281 l 374 -311 q 397 -215 394 -262 l 392 -215 q 361 -203 374 -215 q 349 -171 349 -190 q 361 -140 349 -152 q 390 -128 372 -128 z "},"Ŀ":{"ha":666,"x_min":123,"x_max":660,"o":"m 123 0 l 123 1028 l 170 1028 l 170 46 l 660 46 l 660 0 l 123 0 m 476 493 q 445 505 457 493 q 433 536 433 517 q 445 568 433 556 q 476 581 457 581 q 507 568 494 581 q 519 536 519 556 q 507 505 519 517 q 476 493 494 493 z "},"Ḷ":{"ha":666,"x_min":123,"x_max":660,"o":"m 123 0 l 123 1028 l 170 1028 l 170 46 l 660 46 l 660 0 l 123 0 m 392 -215 q 361 -203 374 -215 q 349 -172 349 -192 q 361 -140 349 -153 q 392 -128 374 -128 q 423 -140 411 -128 q 435 -172 435 -153 q 423 -203 435 -192 q 392 -215 411 -215 z "},"ǈ":{"ha":931,"x_min":123,"x_max":842,"o":"m 123 0 l 123 1028 l 170 1028 l 170 46 l 660 46 l 660 0 l 123 0 m 649 -296 q 746 -103 717 -197 q 775 115 775 -10 l 775 750 l 822 750 l 822 122 q 808 -44 822 29 q 764 -182 794 -117 q 684 -319 734 -247 l 649 -296 m 799 947 q 768 958 780 947 q 756 990 756 970 q 768 1022 756 1009 q 799 1034 780 1034 q 830 1022 817 1034 q 842 990 842 1009 q 830 958 842 970 q 799 947 817 947 z "},"Ḻ":{"ha":666,"x_min":123,"x_max":660,"o":"m 123 0 l 123 1028 l 170 1028 l 170 46 l 660 46 l 660 0 l 123 0 m 215 -192 l 215 -152 l 569 -152 l 569 -192 l 215 -192 z "},"Ł":{"ha":666,"x_min":-1,"x_max":660,"o":"m 170 46 l 660 46 l 660 0 l 123 0 l 123 485 l 26 394 l -1 425 l 123 540 l 123 1028 l 170 1028 l 170 584 l 348 750 l 376 720 l 170 528 l 170 46 z "},"M":{"ha":1114,"x_min":126,"x_max":988,"o":"m 936 1028 l 988 1028 l 988 0 l 942 0 l 942 933 l 583 139 l 531 139 l 172 930 l 172 0 l 126 0 l 126 1028 l 178 1028 l 558 186 l 936 1028 z "},"Ṃ":{"ha":1114,"x_min":126,"x_max":988,"o":"m 936 1028 l 988 1028 l 988 0 l 942 0 l 942 933 l 583 139 l 531 139 l 172 930 l 172 0 l 126 0 l 126 1028 l 178 1028 l 558 186 l 936 1028 m 557 -215 q 526 -203 538 -215 q 514 -172 514 -192 q 526 -140 514 -153 q 557 -128 538 -128 q 588 -140 576 -128 q 600 -172 600 -153 q 588 -203 600 -192 q 557 -215 576 -215 z "},"N":{"ha":929,"x_min":123,"x_max":806,"o":"m 760 1028 l 806 1028 l 806 0 l 753 0 l 169 951 l 169 0 l 123 0 l 123 1028 l 176 1028 l 760 76 l 760 1028 z "},"Ǌ":{"ha":1222,"x_min":123,"x_max":1099,"o":"m 760 1028 l 806 1028 l 806 0 l 753 0 l 169 951 l 169 0 l 123 0 l 123 1028 l 176 1028 l 760 76 l 760 1028 m 926 -212 q 1023 -20 994 -113 q 1052 199 1052 73 l 1052 1028 l 1099 1028 l 1099 177 q 1064 -39 1094 55 q 961 -236 1033 -132 l 926 -212 z "},"Ń":{"ha":929,"x_min":123,"x_max":806,"o":"m 760 1028 l 806 1028 l 806 0 l 753 0 l 169 951 l 169 0 l 123 0 l 123 1028 l 176 1028 l 760 76 l 760 1028 m 444 1122 l 549 1311 l 601 1311 l 485 1122 l 444 1122 z "},"Ň":{"ha":929,"x_min":123,"x_max":806,"o":"m 760 1028 l 806 1028 l 806 0 l 753 0 l 169 951 l 169 0 l 123 0 l 123 1028 l 176 1028 l 760 76 l 760 1028 m 590 1311 l 642 1311 l 491 1122 l 438 1122 l 287 1311 l 340 1311 l 465 1152 l 590 1311 z "},"Ņ":{"ha":929,"x_min":123,"x_max":806,"o":"m 760 1028 l 806 1028 l 806 0 l 753 0 l 169 951 l 169 0 l 123 0 l 123 1028 l 176 1028 l 760 76 l 760 1028 m 462 -128 q 495 -143 483 -128 q 508 -187 508 -158 q 500 -247 508 -214 q 477 -311 492 -281 l 447 -311 q 469 -215 466 -262 l 465 -215 q 434 -203 446 -215 q 422 -171 422 -190 q 433 -140 422 -152 q 462 -128 444 -128 z "},"Ṅ":{"ha":929,"x_min":123,"x_max":806,"o":"m 760 1028 l 806 1028 l 806 0 l 753 0 l 169 951 l 169 0 l 123 0 l 123 1028 l 176 1028 l 760 76 l 760 1028 m 465 1174 q 434 1185 446 1174 q 422 1217 422 1197 q 434 1249 422 1236 q 465 1261 446 1261 q 495 1249 483 1261 q 508 1217 508 1236 q 495 1185 508 1197 q 465 1174 483 1174 z "},"Ṇ":{"ha":929,"x_min":123,"x_max":806,"o":"m 760 1028 l 806 1028 l 806 0 l 753 0 l 169 951 l 169 0 l 123 0 l 123 1028 l 176 1028 l 760 76 l 760 1028 m 465 -215 q 434 -203 446 -215 q 422 -172 422 -192 q 434 -140 422 -153 q 465 -128 446 -128 q 495 -140 483 -128 q 508 -172 508 -153 q 495 -203 508 -192 q 465 -215 483 -215 z "},"Ŋ":{"ha":929,"x_min":123,"x_max":806,"o":"m 806 1028 l 806 122 q 792 -44 806 29 q 747 -182 777 -117 q 668 -319 717 -247 l 633 -296 q 714 -151 685 -220 q 753 0 742 -81 l 169 950 l 169 0 l 123 0 l 123 1028 l 176 1028 l 760 78 q 760 115 760 90 l 760 1028 l 806 1028 z "},"ǋ":{"ha":1194,"x_min":123,"x_max":1105,"o":"m 760 1028 l 806 1028 l 806 0 l 753 0 l 169 951 l 169 0 l 123 0 l 123 1028 l 176 1028 l 760 76 l 760 1028 m 913 -296 q 1009 -103 980 -197 q 1038 115 1038 -10 l 1038 750 l 1085 750 l 1085 122 q 1071 -44 1085 29 q 1027 -182 1057 -117 q 947 -319 997 -247 l 913 -296 m 1062 947 q 1031 958 1043 947 q 1019 990 1019 970 q 1031 1022 1019 1009 q 1062 1034 1043 1034 q 1093 1022 1081 1034 q 1105 990 1105 1009 q 1093 958 1105 970 q 1062 947 1081 947 z "},"Ṉ":{"ha":929,"x_min":123,"x_max":806,"o":"m 760 1028 l 806 1028 l 806 0 l 753 0 l 169 951 l 169 0 l 123 0 l 123 1028 l 176 1028 l 760 76 l 760 1028 m 288 -192 l 288 -152 l 642 -152 l 642 -192 l 288 -192 z "},"Ñ":{"ha":929,"x_min":123,"x_max":806,"o":"m 760 1028 l 806 1028 l 806 0 l 753 0 l 169 951 l 169 0 l 123 0 l 123 1028 l 176 1028 l 760 76 l 760 1028 m 559 1178 q 510 1186 533 1178 q 455 1207 488 1193 q 409 1226 428 1219 q 370 1232 390 1232 q 315 1220 339 1232 q 270 1182 292 1208 l 270 1228 q 313 1260 288 1249 q 370 1271 338 1271 q 419 1264 396 1271 q 474 1242 442 1256 q 520 1224 501 1230 q 559 1217 540 1217 q 614 1230 590 1217 q 660 1267 638 1242 l 660 1221 q 559 1178 623 1178 z "},"O":{"ha":879,"x_min":75,"x_max":804,"o":"m 440 -12 q 75 514 75 -12 q 440 1040 75 1040 q 709 915 614 1040 q 804 514 804 790 q 440 -12 804 -12 m 440 34 q 673 144 591 34 q 754 511 754 253 q 716 796 754 689 q 608 949 678 903 q 440 994 539 994 q 207 884 288 994 q 125 517 125 774 q 163 232 125 339 q 271 80 201 126 q 440 34 340 34 z "},"Ó":{"ha":879,"x_min":75,"x_max":804,"o":"m 440 -12 q 75 514 75 -12 q 440 1040 75 1040 q 709 915 614 1040 q 804 514 804 790 q 440 -12 804 -12 m 440 34 q 673 144 591 34 q 754 511 754 253 q 716 796 754 689 q 608 949 678 903 q 440 994 539 994 q 207 884 288 994 q 125 517 125 774 q 163 232 125 339 q 271 80 201 126 q 440 34 340 34 m 419 1122 l 524 1311 l 576 1311 l 460 1122 l 419 1122 z "},"Ŏ":{"ha":879,"x_min":75,"x_max":804,"o":"m 440 -12 q 75 514 75 -12 q 440 1040 75 1040 q 709 915 614 1040 q 804 514 804 790 q 440 -12 804 -12 m 440 34 q 673 144 591 34 q 754 511 754 253 q 716 796 754 689 q 608 949 678 903 q 440 994 539 994 q 207 884 288 994 q 125 517 125 774 q 163 232 125 339 q 271 80 201 126 q 440 34 340 34 m 441 1131 q 310 1173 358 1131 q 258 1292 263 1215 l 297 1292 q 338 1200 305 1229 q 441 1172 372 1172 q 543 1200 510 1172 q 582 1292 576 1229 l 622 1292 q 570 1172 616 1213 q 441 1131 525 1131 z "},"Ô":{"ha":879,"x_min":75,"x_max":804,"o":"m 440 -12 q 75 514 75 -12 q 440 1040 75 1040 q 709 915 614 1040 q 804 514 804 790 q 440 -12 804 -12 m 440 34 q 673 144 591 34 q 754 511 754 253 q 716 796 754 689 q 608 949 678 903 q 440 994 539 994 q 207 884 288 994 q 125 517 125 774 q 163 232 125 339 q 271 80 201 126 q 440 34 340 34 m 617 1122 l 565 1122 l 440 1282 l 315 1122 l 262 1122 l 413 1311 l 466 1311 l 617 1122 z "},"Ố":{"ha":879,"x_min":75,"x_max":804,"o":"m 440 -12 q 75 514 75 -12 q 440 1040 75 1040 q 709 915 614 1040 q 804 514 804 790 q 440 -12 804 -12 m 440 34 q 673 144 591 34 q 754 511 754 253 q 716 796 754 689 q 608 949 678 903 q 440 994 539 994 q 207 884 288 994 q 125 517 125 774 q 163 232 125 339 q 271 80 201 126 q 440 34 340 34 m 681 1433 l 733 1433 l 617 1244 l 576 1244 l 681 1433 m 413 1311 l 466 1311 l 617 1122 l 565 1122 l 440 1282 l 315 1122 l 262 1122 l 413 1311 z "},"Ộ":{"ha":879,"x_min":75,"x_max":804,"o":"m 440 -12 q 75 514 75 -12 q 440 1040 75 1040 q 709 915 614 1040 q 804 514 804 790 q 440 -12 804 -12 m 440 34 q 673 144 591 34 q 754 511 754 253 q 716 796 754 689 q 608 949 678 903 q 440 994 539 994 q 207 884 288 994 q 125 517 125 774 q 163 232 125 339 q 271 80 201 126 q 440 34 340 34 m 440 -215 q 409 -203 421 -215 q 397 -172 397 -192 q 409 -140 397 -153 q 440 -128 421 -128 q 470 -140 458 -128 q 483 -172 483 -153 q 470 -203 483 -192 q 440 -215 458 -215 m 617 1122 l 565 1122 l 440 1282 l 315 1122 l 262 1122 l 413 1311 l 466 1311 l 617 1122 z "},"Ồ":{"ha":879,"x_min":75,"x_max":804,"o":"m 440 -12 q 75 514 75 -12 q 440 1040 75 1040 q 709 915 614 1040 q 804 514 804 790 q 440 -12 804 -12 m 440 34 q 673 144 591 34 q 754 511 754 253 q 716 796 754 689 q 608 949 678 903 q 440 994 539 994 q 207 884 288 994 q 125 517 125 774 q 163 232 125 339 q 271 80 201 126 q 440 34 340 34 m 631 1244 l 590 1244 l 474 1433 l 526 1433 l 631 1244 m 413 1311 l 466 1311 l 617 1122 l 565 1122 l 440 1282 l 315 1122 l 262 1122 l 413 1311 z "},"Ổ":{"ha":879,"x_min":75,"x_max":804,"o":"m 440 -12 q 75 514 75 -12 q 440 1040 75 1040 q 709 915 614 1040 q 804 514 804 790 q 440 -12 804 -12 m 440 34 q 673 144 591 34 q 754 511 754 253 q 716 796 754 689 q 608 949 678 903 q 440 994 539 994 q 207 884 288 994 q 125 517 125 774 q 163 232 125 339 q 271 80 201 126 q 440 34 340 34 m 606 1433 q 697 1413 665 1433 q 728 1360 728 1393 q 713 1319 728 1333 q 668 1292 697 1305 q 632 1270 644 1280 q 618 1244 620 1261 l 575 1244 q 593 1288 576 1273 q 640 1315 610 1302 q 675 1335 663 1326 q 686 1360 686 1344 q 668 1386 686 1377 q 606 1396 651 1396 q 475 1370 538 1396 l 475 1408 q 535 1427 501 1420 q 606 1433 569 1433 m 413 1311 l 466 1311 l 617 1122 l 565 1122 l 440 1282 l 315 1122 l 262 1122 l 413 1311 z "},"Ỗ":{"ha":879,"x_min":75,"x_max":804,"o":"m 440 -12 q 75 514 75 -12 q 440 1040 75 1040 q 709 915 614 1040 q 804 514 804 790 q 440 -12 804 -12 m 440 34 q 673 144 591 34 q 754 511 754 253 q 716 796 754 689 q 608 949 678 903 q 440 994 539 994 q 207 884 288 994 q 125 517 125 774 q 163 232 125 339 q 271 80 201 126 q 440 34 340 34 m 524 1383 q 574 1395 551 1383 q 617 1432 597 1407 l 617 1386 q 577 1354 601 1365 q 524 1343 553 1343 q 481 1350 501 1343 q 430 1372 461 1358 q 389 1391 405 1385 q 356 1397 372 1397 q 305 1384 328 1397 q 262 1347 283 1372 l 262 1393 q 303 1425 278 1414 q 356 1436 327 1436 q 399 1429 378 1436 q 449 1407 419 1422 q 492 1389 476 1394 q 524 1383 508 1383 m 413 1311 l 466 1311 l 617 1122 l 565 1122 l 440 1282 l 315 1122 l 262 1122 l 413 1311 z "},"Ȍ":{"ha":879,"x_min":75,"x_max":804,"o":"m 440 -12 q 75 514 75 -12 q 440 1040 75 1040 q 709 915 614 1040 q 804 514 804 790 q 440 -12 804 -12 m 440 34 q 673 144 591 34 q 754 511 754 253 q 716 796 754 689 q 608 949 678 903 q 440 994 539 994 q 207 884 288 994 q 125 517 125 774 q 163 232 125 339 q 271 80 201 126 q 440 34 340 34 m 324 1122 l 246 1311 l 292 1311 l 365 1122 l 324 1122 m 515 1122 l 437 1311 l 483 1311 l 555 1122 l 515 1122 z "},"Ö":{"ha":879,"x_min":75,"x_max":804,"o":"m 440 -12 q 75 514 75 -12 q 440 1040 75 1040 q 709 915 614 1040 q 804 514 804 790 q 440 -12 804 -12 m 440 34 q 673 144 591 34 q 754 511 754 253 q 716 796 754 689 q 608 949 678 903 q 440 994 539 994 q 207 884 288 994 q 125 517 125 774 q 163 232 125 339 q 271 80 201 126 q 440 34 340 34 m 301 1174 q 270 1185 282 1174 q 258 1217 258 1197 q 270 1249 258 1236 q 301 1261 282 1261 q 332 1249 319 1261 q 344 1217 344 1236 q 332 1185 344 1197 q 301 1174 319 1174 m 578 1174 q 548 1185 560 1174 q 535 1217 535 1197 q 548 1249 535 1236 q 578 1261 560 1261 q 609 1249 597 1261 q 622 1217 622 1236 q 609 1185 622 1197 q 578 1174 597 1174 z "},"Ȫ":{"ha":879,"x_min":75,"x_max":804,"o":"m 440 -12 q 75 514 75 -12 q 440 1040 75 1040 q 709 915 614 1040 q 804 514 804 790 q 440 -12 804 -12 m 440 34 q 673 144 591 34 q 754 511 754 253 q 716 796 754 689 q 608 949 678 903 q 440 994 539 994 q 207 884 288 994 q 125 517 125 774 q 163 232 125 339 q 271 80 201 126 q 440 34 340 34 m 301 1174 q 270 1185 282 1174 q 258 1217 258 1197 q 270 1249 258 1236 q 301 1261 282 1261 q 332 1249 319 1261 q 344 1217 344 1236 q 332 1185 344 1197 q 301 1174 319 1174 m 578 1174 q 548 1185 560 1174 q 535 1217 535 1197 q 548 1249 535 1236 q 578 1261 560 1261 q 609 1249 597 1261 q 622 1217 622 1236 q 609 1185 622 1197 q 578 1174 597 1174 m 263 1356 l 263 1396 l 617 1396 l 617 1356 l 263 1356 z "},"Ȱ":{"ha":879,"x_min":75,"x_max":804,"o":"m 440 -12 q 75 514 75 -12 q 440 1040 75 1040 q 709 915 614 1040 q 804 514 804 790 q 440 -12 804 -12 m 440 34 q 673 144 591 34 q 754 511 754 253 q 716 796 754 689 q 608 949 678 903 q 440 994 539 994 q 207 884 288 994 q 125 517 125 774 q 163 232 125 339 q 271 80 201 126 q 440 34 340 34 m 440 1174 q 409 1185 421 1174 q 397 1217 397 1197 q 409 1249 397 1236 q 440 1261 421 1261 q 470 1249 458 1261 q 483 1217 483 1236 q 470 1185 483 1197 q 440 1174 458 1174 m 263 1356 l 263 1396 l 617 1396 l 617 1356 l 263 1356 z "},"Ọ":{"ha":879,"x_min":75,"x_max":804,"o":"m 440 -12 q 75 514 75 -12 q 440 1040 75 1040 q 709 915 614 1040 q 804 514 804 790 q 440 -12 804 -12 m 440 34 q 673 144 591 34 q 754 511 754 253 q 716 796 754 689 q 608 949 678 903 q 440 994 539 994 q 207 884 288 994 q 125 517 125 774 q 163 232 125 339 q 271 80 201 126 q 440 34 340 34 m 440 -215 q 409 -203 421 -215 q 397 -172 397 -192 q 409 -140 397 -153 q 440 -128 421 -128 q 470 -140 458 -128 q 483 -172 483 -153 q 470 -203 483 -192 q 440 -215 458 -215 z "},"Ò":{"ha":879,"x_min":75,"x_max":804,"o":"m 440 -12 q 75 514 75 -12 q 440 1040 75 1040 q 709 915 614 1040 q 804 514 804 790 q 440 -12 804 -12 m 440 34 q 673 144 591 34 q 754 511 754 253 q 716 796 754 689 q 608 949 678 903 q 440 994 539 994 q 207 884 288 994 q 125 517 125 774 q 163 232 125 339 q 271 80 201 126 q 440 34 340 34 m 419 1122 l 303 1311 l 356 1311 l 460 1122 l 419 1122 z "},"Ỏ":{"ha":879,"x_min":75,"x_max":804,"o":"m 440 -12 q 75 514 75 -12 q 440 1040 75 1040 q 709 915 614 1040 q 804 514 804 790 q 440 -12 804 -12 m 440 34 q 673 144 591 34 q 754 511 754 253 q 716 796 754 689 q 608 949 678 903 q 440 994 539 994 q 207 884 288 994 q 125 517 125 774 q 163 232 125 339 q 271 80 201 126 q 440 34 340 34 m 418 1122 q 436 1165 419 1151 q 483 1193 453 1180 q 518 1213 506 1203 q 529 1238 529 1222 q 511 1264 529 1255 q 449 1274 494 1274 q 318 1248 381 1274 l 318 1286 q 378 1305 344 1298 q 449 1311 413 1311 q 540 1291 508 1311 q 571 1238 571 1271 q 556 1197 571 1211 q 511 1169 540 1183 q 475 1148 487 1158 q 461 1122 463 1139 l 418 1122 z "},"Ơ":{"ha":879,"x_min":75,"x_max":804,"o":"m 647 979 q 804 514 804 863 q 440 -12 804 -12 q 171 113 267 -12 q 75 514 75 239 q 440 1040 75 1040 q 540 1032 480 1040 q 628 1024 590 1024 q 723 1052 688 1024 q 758 1135 758 1080 q 754 1184 758 1162 q 742 1233 750 1206 l 788 1233 q 800 1186 797 1208 q 804 1133 804 1163 q 761 1024 804 1065 q 647 979 719 983 m 440 34 q 673 144 591 34 q 754 511 754 253 q 716 796 754 689 q 608 949 678 903 q 440 994 539 994 q 207 884 288 994 q 125 517 125 774 q 163 232 125 339 q 271 80 201 126 q 440 34 340 34 z "},"Ớ":{"ha":879,"x_min":75,"x_max":804,"o":"m 647 979 q 804 514 804 863 q 440 -12 804 -12 q 171 113 267 -12 q 75 514 75 239 q 440 1040 75 1040 q 540 1032 480 1040 q 628 1024 590 1024 q 723 1052 688 1024 q 758 1135 758 1080 q 754 1184 758 1162 q 742 1233 750 1206 l 788 1233 q 800 1186 797 1208 q 804 1133 804 1163 q 761 1024 804 1065 q 647 979 719 983 m 440 34 q 673 144 591 34 q 754 511 754 253 q 716 796 754 689 q 608 949 678 903 q 440 994 539 994 q 207 884 288 994 q 125 517 125 774 q 163 232 125 339 q 271 80 201 126 q 440 34 340 34 m 419 1122 l 524 1311 l 576 1311 l 460 1122 l 419 1122 z "},"Ợ":{"ha":879,"x_min":75,"x_max":804,"o":"m 647 979 q 804 514 804 863 q 440 -12 804 -12 q 171 113 267 -12 q 75 514 75 239 q 440 1040 75 1040 q 540 1032 480 1040 q 628 1024 590 1024 q 723 1052 688 1024 q 758 1135 758 1080 q 754 1184 758 1162 q 742 1233 750 1206 l 788 1233 q 800 1186 797 1208 q 804 1133 804 1163 q 761 1024 804 1065 q 647 979 719 983 m 440 34 q 673 144 591 34 q 754 511 754 253 q 716 796 754 689 q 608 949 678 903 q 440 994 539 994 q 207 884 288 994 q 125 517 125 774 q 163 232 125 339 q 271 80 201 126 q 440 34 340 34 m 440 -215 q 409 -203 421 -215 q 397 -172 397 -192 q 409 -140 397 -153 q 440 -128 421 -128 q 470 -140 458 -128 q 483 -172 483 -153 q 470 -203 483 -192 q 440 -215 458 -215 z "},"Ờ":{"ha":879,"x_min":75,"x_max":804,"o":"m 647 979 q 804 514 804 863 q 440 -12 804 -12 q 171 113 267 -12 q 75 514 75 239 q 440 1040 75 1040 q 540 1032 480 1040 q 628 1024 590 1024 q 723 1052 688 1024 q 758 1135 758 1080 q 754 1184 758 1162 q 742 1233 750 1206 l 788 1233 q 800 1186 797 1208 q 804 1133 804 1163 q 761 1024 804 1065 q 647 979 719 983 m 440 34 q 673 144 591 34 q 754 511 754 253 q 716 796 754 689 q 608 949 678 903 q 440 994 539 994 q 207 884 288 994 q 125 517 125 774 q 163 232 125 339 q 271 80 201 126 q 440 34 340 34 m 419 1122 l 303 1311 l 356 1311 l 460 1122 l 419 1122 z "},"Ở":{"ha":879,"x_min":75,"x_max":804,"o":"m 647 979 q 804 514 804 863 q 440 -12 804 -12 q 171 113 267 -12 q 75 514 75 239 q 440 1040 75 1040 q 540 1032 480 1040 q 628 1024 590 1024 q 723 1052 688 1024 q 758 1135 758 1080 q 754 1184 758 1162 q 742 1233 750 1206 l 788 1233 q 800 1186 797 1208 q 804 1133 804 1163 q 761 1024 804 1065 q 647 979 719 983 m 440 34 q 673 144 591 34 q 754 511 754 253 q 716 796 754 689 q 608 949 678 903 q 440 994 539 994 q 207 884 288 994 q 125 517 125 774 q 163 232 125 339 q 271 80 201 126 q 440 34 340 34 m 418 1122 q 436 1165 419 1151 q 483 1193 453 1180 q 518 1213 506 1203 q 529 1238 529 1222 q 511 1264 529 1255 q 449 1274 494 1274 q 318 1248 381 1274 l 318 1286 q 378 1305 344 1298 q 449 1311 413 1311 q 540 1291 508 1311 q 571 1238 571 1271 q 556 1197 571 1211 q 511 1169 540 1183 q 475 1148 487 1158 q 461 1122 463 1139 l 418 1122 z "},"Ỡ":{"ha":879,"x_min":75,"x_max":804,"o":"m 345 1232 q 290 1220 314 1232 q 245 1182 267 1208 l 245 1228 q 288 1260 263 1249 q 345 1271 313 1271 q 394 1264 371 1271 q 449 1242 417 1256 q 495 1224 476 1230 q 534 1217 515 1217 q 589 1230 565 1217 q 635 1267 613 1242 l 635 1221 q 534 1178 598 1178 q 485 1186 508 1178 q 430 1207 463 1193 q 384 1226 403 1219 q 345 1232 365 1232 m 647 979 q 804 514 804 863 q 440 -12 804 -12 q 171 113 267 -12 q 75 514 75 239 q 440 1040 75 1040 q 540 1032 480 1040 q 628 1024 590 1024 q 723 1052 688 1024 q 758 1135 758 1080 q 754 1184 758 1162 q 742 1233 750 1206 l 788 1233 q 800 1186 797 1208 q 804 1133 804 1163 q 761 1024 804 1065 q 647 979 719 983 m 440 34 q 673 144 591 34 q 754 511 754 253 q 716 796 754 689 q 608 949 678 903 q 440 994 539 994 q 207 884 288 994 q 125 517 125 774 q 163 232 125 339 q 271 80 201 126 q 440 34 340 34 z "},"Ő":{"ha":879,"x_min":75,"x_max":804,"o":"m 440 -12 q 75 514 75 -12 q 440 1040 75 1040 q 709 915 614 1040 q 804 514 804 790 q 440 -12 804 -12 m 440 34 q 673 144 591 34 q 754 511 754 253 q 716 796 754 689 q 608 949 678 903 q 440 994 539 994 q 207 884 288 994 q 125 517 125 774 q 163 232 125 339 q 271 80 201 126 q 440 34 340 34 m 324 1122 l 397 1311 l 443 1311 l 365 1122 l 324 1122 m 515 1122 l 588 1311 l 633 1311 l 555 1122 l 515 1122 z "},"Ȏ":{"ha":879,"x_min":75,"x_max":804,"o":"m 440 -12 q 75 514 75 -12 q 440 1040 75 1040 q 709 915 614 1040 q 804 514 804 790 q 440 -12 804 -12 m 440 34 q 673 144 591 34 q 754 511 754 253 q 716 796 754 689 q 608 949 678 903 q 440 994 539 994 q 207 884 288 994 q 125 517 125 774 q 163 232 125 339 q 271 80 201 126 q 440 34 340 34 m 258 1142 q 309 1261 263 1220 q 438 1303 354 1303 q 569 1261 522 1303 q 622 1142 616 1219 l 582 1142 q 541 1234 574 1205 q 438 1263 508 1263 q 336 1234 369 1263 q 297 1142 303 1205 l 258 1142 z "},"Ō":{"ha":879,"x_min":75,"x_max":804,"o":"m 440 -12 q 75 514 75 -12 q 440 1040 75 1040 q 709 915 614 1040 q 804 514 804 790 q 440 -12 804 -12 m 440 34 q 673 144 591 34 q 754 511 754 253 q 716 796 754 689 q 608 949 678 903 q 440 994 539 994 q 207 884 288 994 q 125 517 125 774 q 163 232 125 339 q 271 80 201 126 q 440 34 340 34 m 263 1197 l 263 1238 l 617 1238 l 617 1197 l 263 1197 z "},"Ṓ":{"ha":879,"x_min":75,"x_max":804,"o":"m 440 -12 q 75 514 75 -12 q 440 1040 75 1040 q 709 915 614 1040 q 804 514 804 790 q 440 -12 804 -12 m 440 34 q 673 144 591 34 q 754 511 754 253 q 716 796 754 689 q 608 949 678 903 q 440 994 539 994 q 207 884 288 994 q 125 517 125 774 q 163 232 125 339 q 271 80 201 126 q 440 34 340 34 m 419 1308 l 524 1469 l 576 1469 l 461 1308 l 419 1308 m 263 1197 l 263 1238 l 617 1238 l 617 1197 l 263 1197 z "},"Ṑ":{"ha":879,"x_min":75,"x_max":804,"o":"m 440 -12 q 75 514 75 -12 q 440 1040 75 1040 q 709 915 614 1040 q 804 514 804 790 q 440 -12 804 -12 m 440 34 q 673 144 591 34 q 754 511 754 253 q 716 796 754 689 q 608 949 678 903 q 440 994 539 994 q 207 884 288 994 q 125 517 125 774 q 163 232 125 339 q 271 80 201 126 q 440 34 340 34 m 419 1308 l 303 1469 l 356 1469 l 460 1308 l 419 1308 m 263 1197 l 263 1238 l 617 1238 l 617 1197 l 263 1197 z "},"Ǫ":{"ha":879,"x_min":75,"x_max":804,"o":"m 574 9 q 415 -158 415 -55 q 516 -242 415 -242 q 567 -235 541 -242 q 626 -214 592 -228 l 626 -251 q 517 -278 573 -278 q 412 -248 449 -278 q 375 -161 375 -217 q 463 -12 375 -72 l 441 -12 q 75 514 75 -12 q 440 1040 75 1040 q 709 916 613 1040 q 804 514 804 791 q 744 175 804 295 q 574 9 685 54 m 440 34 q 673 144 591 34 q 754 511 754 253 q 716 796 754 689 q 608 949 678 903 q 440 994 539 994 q 207 884 288 994 q 125 517 125 774 q 163 232 125 339 q 271 80 201 126 q 440 34 340 34 z "},"Ø":{"ha":879,"x_min":75,"x_max":804,"o":"m 721 898 q 804 514 804 767 q 440 -12 804 -12 q 186 93 276 -12 l 117 -11 l 81 13 l 159 130 q 75 514 75 260 q 440 1040 75 1040 q 693 935 603 1040 l 762 1039 l 799 1015 l 721 898 m 125 517 q 189 174 125 292 l 665 893 q 440 994 589 994 q 207 884 288 994 q 125 517 125 774 m 440 34 q 673 144 591 34 q 754 511 754 253 q 691 853 754 734 l 214 135 q 310 58 253 82 q 440 34 367 34 z "},"Ǿ":{"ha":879,"x_min":75,"x_max":804,"o":"m 721 898 q 804 514 804 767 q 440 -12 804 -12 q 186 93 276 -12 l 117 -11 l 81 13 l 159 130 q 75 514 75 260 q 440 1040 75 1040 q 693 935 603 1040 l 762 1039 l 799 1015 l 721 898 m 125 517 q 189 174 125 292 l 665 893 q 440 994 589 994 q 207 884 288 994 q 125 517 125 774 m 440 34 q 673 144 591 34 q 754 511 754 253 q 691 853 754 734 l 214 135 q 310 58 253 82 q 440 34 367 34 m 418 1122 l 524 1311 l 576 1311 l 460 1122 l 418 1122 z "},"Õ":{"ha":879,"x_min":75,"x_max":804,"o":"m 440 -12 q 75 514 75 -12 q 440 1040 75 1040 q 709 915 614 1040 q 804 514 804 790 q 440 -12 804 -12 m 440 34 q 673 144 591 34 q 754 511 754 253 q 716 796 754 689 q 608 949 678 903 q 440 994 539 994 q 207 884 288 994 q 125 517 125 774 q 163 232 125 339 q 271 80 201 126 q 440 34 340 34 m 534 1178 q 485 1186 508 1178 q 430 1207 463 1193 q 384 1226 403 1219 q 345 1232 365 1232 q 290 1220 314 1232 q 245 1182 267 1208 l 245 1228 q 288 1260 263 1249 q 345 1271 313 1271 q 394 1264 371 1271 q 449 1242 417 1256 q 495 1224 476 1230 q 534 1217 515 1217 q 589 1230 565 1217 q 635 1267 613 1242 l 635 1221 q 534 1178 598 1178 z "},"Ṍ":{"ha":879,"x_min":75,"x_max":804,"o":"m 440 -12 q 75 514 75 -12 q 440 1040 75 1040 q 709 915 614 1040 q 804 514 804 790 q 440 -12 804 -12 m 440 34 q 673 144 591 34 q 754 511 754 253 q 716 796 754 689 q 608 949 678 903 q 440 994 539 994 q 207 884 288 994 q 125 517 125 774 q 163 232 125 339 q 271 80 201 126 q 440 34 340 34 m 419 1308 l 524 1469 l 576 1469 l 461 1308 l 419 1308 m 534 1178 q 485 1186 508 1178 q 430 1207 463 1193 q 384 1226 403 1219 q 345 1232 365 1232 q 290 1220 314 1232 q 245 1182 267 1208 l 245 1228 q 288 1260 263 1249 q 345 1271 313 1271 q 394 1264 371 1271 q 449 1242 417 1256 q 495 1224 476 1230 q 534 1217 515 1217 q 589 1230 565 1217 q 635 1267 613 1242 l 635 1221 q 534 1178 598 1178 z "},"Ṏ":{"ha":879,"x_min":75,"x_max":804,"o":"m 440 -12 q 75 514 75 -12 q 440 1040 75 1040 q 709 915 614 1040 q 804 514 804 790 q 440 -12 804 -12 m 440 34 q 673 144 591 34 q 754 511 754 253 q 716 796 754 689 q 608 949 678 903 q 440 994 539 994 q 207 884 288 994 q 125 517 125 774 q 163 232 125 339 q 271 80 201 126 q 440 34 340 34 m 534 1178 q 485 1186 508 1178 q 430 1207 463 1193 q 384 1226 403 1219 q 345 1232 365 1232 q 290 1220 314 1232 q 245 1182 267 1208 l 245 1228 q 288 1260 263 1249 q 345 1271 313 1271 q 394 1264 371 1271 q 449 1242 417 1256 q 495 1224 476 1230 q 534 1217 515 1217 q 589 1230 565 1217 q 635 1267 613 1242 l 635 1221 q 534 1178 598 1178 m 301 1332 q 270 1344 282 1332 q 258 1375 258 1356 q 270 1407 258 1394 q 301 1419 282 1419 q 332 1407 319 1419 q 344 1375 344 1394 q 332 1344 344 1356 q 301 1332 319 1332 m 578 1332 q 548 1344 560 1332 q 535 1375 535 1356 q 548 1407 535 1394 q 578 1419 560 1419 q 609 1407 597 1419 q 622 1375 622 1394 q 609 1344 622 1356 q 578 1332 597 1332 z "},"Ȭ":{"ha":879,"x_min":75,"x_max":804,"o":"m 440 -12 q 75 514 75 -12 q 440 1040 75 1040 q 709 915 614 1040 q 804 514 804 790 q 440 -12 804 -12 m 440 34 q 673 144 591 34 q 754 511 754 253 q 716 796 754 689 q 608 949 678 903 q 440 994 539 994 q 207 884 288 994 q 125 517 125 774 q 163 232 125 339 q 271 80 201 126 q 440 34 340 34 m 534 1178 q 485 1186 508 1178 q 430 1207 463 1193 q 384 1226 403 1219 q 345 1232 365 1232 q 290 1220 314 1232 q 245 1182 267 1208 l 245 1228 q 288 1260 263 1249 q 345 1271 313 1271 q 394 1264 371 1271 q 449 1242 417 1256 q 495 1224 476 1230 q 534 1217 515 1217 q 589 1230 565 1217 q 635 1267 613 1242 l 635 1221 q 534 1178 598 1178 m 263 1356 l 263 1396 l 617 1396 l 617 1356 l 263 1356 z "},"Œ":{"ha":1251,"x_min":75,"x_max":1215,"o":"m 1215 46 l 1215 0 l 716 0 q 646 -3 697 0 q 537 -7 582 -7 q 191 119 308 -7 q 75 514 75 245 q 188 908 75 779 q 521 1038 300 1038 q 635 1032 567 1038 q 710 1028 690 1028 l 1208 1028 l 1208 982 l 726 982 l 726 551 l 1144 551 l 1144 506 l 726 506 l 726 46 l 1215 46 m 678 982 q 524 992 606 992 q 301 941 389 992 q 169 785 213 891 q 125 514 125 680 q 171 242 125 347 q 307 88 217 137 q 535 39 398 39 q 678 47 622 39 l 678 982 z "},"P":{"ha":777,"x_min":123,"x_max":711,"o":"m 123 1017 q 340 1038 242 1038 q 618 955 525 1038 q 711 699 711 872 q 613 445 711 531 q 309 360 515 360 q 170 367 239 360 l 170 0 l 123 0 l 123 1017 m 313 406 q 577 477 493 406 q 661 696 661 548 q 583 921 661 850 q 340 992 504 992 q 170 978 255 992 l 170 414 q 313 406 232 406 z "},"Þ":{"ha":784,"x_min":123,"x_max":711,"o":"m 123 1028 l 170 1028 l 170 853 q 340 867 251 867 q 618 784 525 867 q 711 528 711 701 q 613 274 711 360 q 309 189 515 189 q 170 196 239 189 l 170 0 l 123 0 l 123 1028 m 313 235 q 577 306 493 235 q 661 525 661 377 q 583 750 661 679 q 340 821 504 821 q 170 808 255 821 l 170 243 q 313 235 232 235 z "},"Q":{"ha":879,"x_min":75,"x_max":804,"o":"m 804 514 q 715 123 804 256 q 451 -10 626 -10 l 431 -10 q 788 -79 571 -61 l 780 -125 q 352 -27 503 -94 q 139 167 202 40 q 75 514 75 294 q 440 1040 75 1040 q 709 916 613 1040 q 804 514 804 791 m 125 517 q 163 232 125 339 q 271 80 201 126 q 440 34 340 34 q 673 144 591 34 q 754 511 754 253 q 716 796 754 689 q 608 949 678 903 q 440 994 539 994 q 207 884 288 994 q 125 517 125 774 z "},"R":{"ha":829,"x_min":123,"x_max":791,"o":"m 734 0 l 393 456 q 312 453 350 453 q 170 458 238 453 l 170 0 l 123 0 l 123 1017 q 235 1032 181 1027 q 352 1038 288 1038 q 623 966 534 1038 q 711 749 711 895 q 443 463 713 506 l 791 0 l 734 0 m 309 497 q 512 524 434 497 q 627 607 590 551 q 664 748 664 662 q 632 887 664 833 q 530 966 599 940 q 349 992 461 992 q 256 988 297 992 q 170 977 215 985 l 170 503 q 309 497 257 497 z "},"Ŕ":{"ha":829,"x_min":123,"x_max":791,"o":"m 734 0 l 393 456 q 312 453 350 453 q 170 458 238 453 l 170 0 l 123 0 l 123 1017 q 235 1032 181 1027 q 352 1038 288 1038 q 623 966 534 1038 q 711 749 711 895 q 443 463 713 506 l 791 0 l 734 0 m 309 497 q 512 524 434 497 q 627 607 590 551 q 664 748 664 662 q 632 887 664 833 q 530 966 599 940 q 349 992 461 992 q 256 988 297 992 q 170 977 215 985 l 170 503 q 309 497 257 497 m 371 1122 l 476 1311 l 528 1311 l 413 1122 l 371 1122 z "},"Ř":{"ha":829,"x_min":123,"x_max":791,"o":"m 734 0 l 393 456 q 312 453 350 453 q 170 458 238 453 l 170 0 l 123 0 l 123 1017 q 235 1032 181 1027 q 352 1038 288 1038 q 623 966 534 1038 q 711 749 711 895 q 443 463 713 506 l 791 0 l 734 0 m 309 497 q 512 524 434 497 q 627 607 590 551 q 664 748 664 662 q 632 887 664 833 q 530 966 599 940 q 349 992 461 992 q 256 988 297 992 q 170 977 215 985 l 170 503 q 309 497 257 497 m 517 1311 l 569 1311 l 418 1122 l 365 1122 l 214 1311 l 267 1311 l 392 1152 l 517 1311 z "},"Ŗ":{"ha":829,"x_min":123,"x_max":791,"o":"m 734 0 l 393 456 q 312 453 350 453 q 170 458 238 453 l 170 0 l 123 0 l 123 1017 q 235 1032 181 1027 q 352 1038 288 1038 q 623 966 534 1038 q 711 749 711 895 q 443 463 713 506 l 791 0 l 734 0 m 309 497 q 512 524 434 497 q 627 607 590 551 q 664 748 664 662 q 632 887 664 833 q 530 966 599 940 q 349 992 461 992 q 256 988 297 992 q 170 977 215 985 l 170 503 q 309 497 257 497 m 433 -128 q 467 -143 455 -128 q 479 -187 479 -158 q 472 -247 479 -214 q 449 -311 464 -281 l 418 -311 q 441 -215 438 -262 l 436 -215 q 405 -203 417 -215 q 393 -171 393 -190 q 405 -140 393 -152 q 433 -128 416 -128 z "},"Ȑ":{"ha":829,"x_min":123,"x_max":791,"o":"m 734 0 l 393 456 q 312 453 350 453 q 170 458 238 453 l 170 0 l 123 0 l 123 1017 q 235 1032 181 1027 q 352 1038 288 1038 q 623 966 534 1038 q 711 749 711 895 q 443 463 713 506 l 791 0 l 734 0 m 309 497 q 512 524 434 497 q 627 607 590 551 q 664 748 664 662 q 632 887 664 833 q 530 966 599 940 q 349 992 461 992 q 256 988 297 992 q 170 977 215 985 l 170 503 q 309 497 257 497 m 276 1122 l 198 1311 l 244 1311 l 317 1122 l 276 1122 m 467 1122 l 389 1311 l 435 1311 l 507 1122 l 467 1122 z "},"Ṛ":{"ha":829,"x_min":123,"x_max":791,"o":"m 734 0 l 393 456 q 312 453 350 453 q 170 458 238 453 l 170 0 l 123 0 l 123 1017 q 235 1032 181 1027 q 352 1038 288 1038 q 623 966 534 1038 q 711 749 711 895 q 443 463 713 506 l 791 0 l 734 0 m 309 497 q 512 524 434 497 q 627 607 590 551 q 664 748 664 662 q 632 887 664 833 q 530 966 599 940 q 349 992 461 992 q 256 988 297 992 q 170 977 215 985 l 170 503 q 309 497 257 497 m 436 -215 q 405 -203 417 -215 q 393 -172 393 -192 q 405 -140 393 -153 q 436 -128 417 -128 q 467 -140 455 -128 q 479 -172 479 -153 q 467 -203 479 -192 q 436 -215 455 -215 z "},"Ȓ":{"ha":829,"x_min":123,"x_max":791,"o":"m 734 0 l 393 456 q 312 453 350 453 q 170 458 238 453 l 170 0 l 123 0 l 123 1017 q 235 1032 181 1027 q 352 1038 288 1038 q 623 966 534 1038 q 711 749 711 895 q 443 463 713 506 l 791 0 l 734 0 m 309 497 q 512 524 434 497 q 627 607 590 551 q 664 748 664 662 q 632 887 664 833 q 530 966 599 940 q 349 992 461 992 q 256 988 297 992 q 170 977 215 985 l 170 503 q 309 497 257 497 m 210 1142 q 261 1261 215 1220 q 390 1303 306 1303 q 521 1261 474 1303 q 574 1142 568 1219 l 534 1142 q 493 1234 526 1205 q 390 1263 460 1263 q 288 1234 321 1263 q 249 1142 256 1205 l 210 1142 z "},"Ṟ":{"ha":829,"x_min":123,"x_max":791,"o":"m 734 0 l 393 456 q 312 453 350 453 q 170 458 238 453 l 170 0 l 123 0 l 123 1017 q 235 1032 181 1027 q 352 1038 288 1038 q 623 966 534 1038 q 711 749 711 895 q 443 463 713 506 l 791 0 l 734 0 m 309 497 q 512 524 434 497 q 627 607 590 551 q 664 748 664 662 q 632 887 664 833 q 530 966 599 940 q 349 992 461 992 q 256 988 297 992 q 170 977 215 985 l 170 503 q 309 497 257 497 m 259 -192 l 259 -152 l 613 -152 l 613 -192 l 259 -192 z "},"S":{"ha":651,"x_min":53,"x_max":599,"o":"m 278 -12 q 172 -3 228 -12 q 64 25 115 6 l 64 72 q 282 33 178 33 q 481 91 414 33 q 549 260 549 148 q 526 367 549 324 q 457 439 504 410 q 330 492 410 468 l 290 504 q 112 606 170 540 q 53 775 53 671 q 89 917 53 858 q 195 1008 125 976 q 368 1040 266 1040 q 468 1033 417 1040 q 560 1013 519 1026 l 560 965 q 365 994 467 994 q 169 939 235 994 q 103 778 103 883 q 124 674 103 716 q 190 603 145 632 q 312 550 235 574 l 351 538 q 538 435 478 501 q 599 263 599 369 q 516 59 599 130 q 278 -12 433 -12 z "},"Ś":{"ha":651,"x_min":53,"x_max":599,"o":"m 278 -12 q 172 -3 228 -12 q 64 25 115 6 l 64 72 q 282 33 178 33 q 481 91 414 33 q 549 260 549 148 q 526 367 549 324 q 457 439 504 410 q 330 492 410 468 l 290 504 q 112 606 170 540 q 53 775 53 671 q 89 917 53 858 q 195 1008 125 976 q 368 1040 266 1040 q 468 1033 417 1040 q 560 1013 519 1026 l 560 965 q 365 994 467 994 q 169 939 235 994 q 103 778 103 883 q 124 674 103 716 q 190 603 145 632 q 312 550 235 574 l 351 538 q 538 435 478 501 q 599 263 599 369 q 516 59 599 130 q 278 -12 433 -12 m 310 1122 l 415 1311 l 467 1311 l 351 1122 l 310 1122 z "},"Ṥ":{"ha":651,"x_min":53,"x_max":599,"o":"m 278 -12 q 172 -3 228 -12 q 64 25 115 6 l 64 72 q 282 33 178 33 q 481 91 414 33 q 549 260 549 148 q 526 367 549 324 q 457 439 504 410 q 330 492 410 468 l 290 504 q 112 606 170 540 q 53 775 53 671 q 89 917 53 858 q 195 1008 125 976 q 368 1040 266 1040 q 468 1033 417 1040 q 560 1013 519 1026 l 560 965 q 365 994 467 994 q 169 939 235 994 q 103 778 103 883 q 124 674 103 716 q 190 603 145 632 q 312 550 235 574 l 351 538 q 538 435 478 501 q 599 263 599 369 q 516 59 599 130 q 278 -12 433 -12 m 303 1283 q 272 1295 284 1283 q 260 1326 260 1307 q 272 1358 260 1346 q 303 1371 284 1371 q 334 1358 322 1371 q 346 1326 346 1346 q 334 1295 346 1307 q 303 1283 322 1283 m 310 1122 l 415 1311 l 467 1311 l 351 1122 l 310 1122 z "},"Š":{"ha":651,"x_min":53,"x_max":599,"o":"m 278 -12 q 172 -3 228 -12 q 64 25 115 6 l 64 72 q 282 33 178 33 q 481 91 414 33 q 549 260 549 148 q 526 367 549 324 q 457 439 504 410 q 330 492 410 468 l 290 504 q 112 606 170 540 q 53 775 53 671 q 89 917 53 858 q 195 1008 125 976 q 368 1040 266 1040 q 468 1033 417 1040 q 560 1013 519 1026 l 560 965 q 365 994 467 994 q 169 939 235 994 q 103 778 103 883 q 124 674 103 716 q 190 603 145 632 q 312 550 235 574 l 351 538 q 538 435 478 501 q 599 263 599 369 q 516 59 599 130 q 278 -12 433 -12 m 456 1311 l 508 1311 l 357 1122 l 304 1122 l 153 1311 l 206 1311 l 331 1152 l 456 1311 z "},"Ṧ":{"ha":651,"x_min":53,"x_max":599,"o":"m 278 -12 q 172 -3 228 -12 q 64 25 115 6 l 64 72 q 282 33 178 33 q 481 91 414 33 q 549 260 549 148 q 526 367 549 324 q 457 439 504 410 q 330 492 410 468 l 290 504 q 112 606 170 540 q 53 775 53 671 q 89 917 53 858 q 195 1008 125 976 q 368 1040 266 1040 q 468 1033 417 1040 q 560 1013 519 1026 l 560 965 q 365 994 467 994 q 169 939 235 994 q 103 778 103 883 q 124 674 103 716 q 190 603 145 632 q 312 550 235 574 l 351 538 q 538 435 478 501 q 599 263 599 369 q 516 59 599 130 q 278 -12 433 -12 m 331 1311 q 300 1323 312 1311 q 288 1354 288 1335 q 300 1386 288 1374 q 331 1399 312 1399 q 361 1386 349 1399 q 374 1354 374 1374 q 361 1323 374 1335 q 331 1311 349 1311 m 456 1311 l 508 1311 l 357 1122 l 304 1122 l 153 1311 l 206 1311 l 331 1152 l 456 1311 z "},"Ş":{"ha":651,"x_min":53,"x_max":599,"o":"m 599 263 q 534 77 599 147 q 350 -8 470 8 l 350 -78 q 435 -106 403 -80 q 467 -178 467 -132 q 432 -252 467 -226 q 339 -278 397 -278 q 275 -271 308 -278 q 215 -251 242 -265 l 215 -212 q 280 -235 251 -228 q 339 -242 309 -242 q 405 -226 381 -242 q 428 -178 428 -210 q 404 -130 428 -145 q 338 -114 381 -114 l 311 -114 l 311 -12 q 278 -12 301 -12 q 172 -3 228 -12 q 64 25 115 6 l 64 72 q 282 33 178 33 q 481 91 414 33 q 549 260 549 148 q 526 367 549 324 q 457 439 504 410 q 330 492 410 468 l 290 504 q 112 606 170 540 q 53 775 53 671 q 89 917 53 858 q 195 1008 125 976 q 368 1040 266 1040 q 468 1033 417 1040 q 560 1013 519 1026 l 560 965 q 365 994 467 994 q 169 939 235 994 q 103 778 103 883 q 124 674 103 716 q 190 603 145 632 q 312 550 235 574 l 351 538 q 538 435 478 501 q 599 263 599 369 z "},"Ŝ":{"ha":651,"x_min":53,"x_max":599,"o":"m 278 -12 q 172 -3 228 -12 q 64 25 115 6 l 64 72 q 282 33 178 33 q 481 91 414 33 q 549 260 549 148 q 526 367 549 324 q 457 439 504 410 q 330 492 410 468 l 290 504 q 112 606 170 540 q 53 775 53 671 q 89 917 53 858 q 195 1008 125 976 q 368 1040 266 1040 q 468 1033 417 1040 q 560 1013 519 1026 l 560 965 q 365 994 467 994 q 169 939 235 994 q 103 778 103 883 q 124 674 103 716 q 190 603 145 632 q 312 550 235 574 l 351 538 q 538 435 478 501 q 599 263 599 369 q 516 59 599 130 q 278 -12 433 -12 m 508 1122 l 456 1122 l 331 1282 l 206 1122 l 153 1122 l 304 1311 l 357 1311 l 508 1122 z "},"Ș":{"ha":651,"x_min":53,"x_max":599,"o":"m 278 -12 q 172 -3 228 -12 q 64 25 115 6 l 64 72 q 282 33 178 33 q 481 91 414 33 q 549 260 549 148 q 526 367 549 324 q 457 439 504 410 q 330 492 410 468 l 290 504 q 112 606 170 540 q 53 775 53 671 q 89 917 53 858 q 195 1008 125 976 q 368 1040 266 1040 q 468 1033 417 1040 q 560 1013 519 1026 l 560 965 q 365 994 467 994 q 169 939 235 994 q 103 778 103 883 q 124 674 103 716 q 190 603 145 632 q 312 550 235 574 l 351 538 q 538 435 478 501 q 599 263 599 369 q 516 59 599 130 q 278 -12 433 -12 m 328 -128 q 361 -143 349 -128 q 374 -187 374 -158 q 366 -247 374 -214 q 343 -311 358 -281 l 313 -311 q 335 -215 332 -262 l 331 -215 q 300 -203 312 -215 q 288 -171 288 -190 q 299 -140 288 -152 q 328 -128 310 -128 z "},"Ṡ":{"ha":651,"x_min":53,"x_max":599,"o":"m 278 -12 q 172 -3 228 -12 q 64 25 115 6 l 64 72 q 282 33 178 33 q 481 91 414 33 q 549 260 549 148 q 526 367 549 324 q 457 439 504 410 q 330 492 410 468 l 290 504 q 112 606 170 540 q 53 775 53 671 q 89 917 53 858 q 195 1008 125 976 q 368 1040 266 1040 q 468 1033 417 1040 q 560 1013 519 1026 l 560 965 q 365 994 467 994 q 169 939 235 994 q 103 778 103 883 q 124 674 103 716 q 190 603 145 632 q 312 550 235 574 l 351 538 q 538 435 478 501 q 599 263 599 369 q 516 59 599 130 q 278 -12 433 -12 m 331 1174 q 300 1185 312 1174 q 288 1217 288 1197 q 300 1249 288 1236 q 331 1261 312 1261 q 361 1249 349 1261 q 374 1217 374 1236 q 361 1185 374 1197 q 331 1174 349 1174 z "},"Ṣ":{"ha":651,"x_min":53,"x_max":599,"o":"m 278 -12 q 172 -3 228 -12 q 64 25 115 6 l 64 72 q 282 33 178 33 q 481 91 414 33 q 549 260 549 148 q 526 367 549 324 q 457 439 504 410 q 330 492 410 468 l 290 504 q 112 606 170 540 q 53 775 53 671 q 89 917 53 858 q 195 1008 125 976 q 368 1040 266 1040 q 468 1033 417 1040 q 560 1013 519 1026 l 560 965 q 365 994 467 994 q 169 939 235 994 q 103 778 103 883 q 124 674 103 716 q 190 603 145 632 q 312 550 235 574 l 351 538 q 538 435 478 501 q 599 263 599 369 q 516 59 599 130 q 278 -12 433 -12 m 331 -215 q 300 -203 312 -215 q 288 -172 288 -192 q 300 -140 288 -153 q 331 -128 312 -128 q 361 -140 349 -128 q 374 -172 374 -153 q 361 -203 374 -192 q 331 -215 349 -215 z "},"Ṩ":{"ha":651,"x_min":53,"x_max":599,"o":"m 278 -12 q 172 -3 228 -12 q 64 25 115 6 l 64 72 q 282 33 178 33 q 481 91 414 33 q 549 260 549 148 q 526 367 549 324 q 457 439 504 410 q 330 492 410 468 l 290 504 q 112 606 170 540 q 53 775 53 671 q 89 917 53 858 q 195 1008 125 976 q 368 1040 266 1040 q 468 1033 417 1040 q 560 1013 519 1026 l 560 965 q 365 994 467 994 q 169 939 235 994 q 103 778 103 883 q 124 674 103 716 q 190 603 145 632 q 312 550 235 574 l 351 538 q 538 435 478 501 q 599 263 599 369 q 516 59 599 130 q 278 -12 433 -12 m 331 -215 q 300 -203 312 -215 q 288 -172 288 -192 q 300 -140 288 -153 q 331 -128 312 -128 q 361 -140 349 -128 q 374 -172 374 -153 q 361 -203 374 -192 q 331 -215 349 -215 m 331 1174 q 300 1185 312 1174 q 288 1217 288 1197 q 300 1249 288 1236 q 331 1261 312 1261 q 361 1249 349 1261 q 374 1217 374 1236 q 361 1185 374 1197 q 331 1174 349 1174 z "},"ẞ":{"ha":1049,"x_min":123,"x_max":996,"o":"m 749 538 q 935 435 875 501 q 996 263 996 369 q 913 59 996 130 q 676 -12 830 -12 q 569 -3 625 -12 q 461 25 513 6 l 461 72 q 679 33 575 33 q 878 91 811 33 q 946 260 946 148 q 924 367 946 324 q 854 439 901 410 q 727 492 807 468 l 688 504 q 509 606 567 540 q 451 775 451 671 q 476 897 451 844 q 550 984 501 950 q 453 994 506 994 q 291 961 353 994 q 199 858 228 927 q 170 681 170 789 l 170 0 l 123 0 l 123 674 q 158 881 123 800 q 265 1001 192 962 q 453 1040 338 1040 q 607 1015 543 1040 q 765 1040 674 1040 q 866 1033 815 1040 q 957 1013 917 1026 l 957 965 q 763 994 864 994 q 566 939 632 994 q 501 778 501 883 q 522 674 501 716 q 588 603 542 632 q 709 550 633 574 l 749 538 z "},"Ə":{"ha":881,"x_min":68,"x_max":806,"o":"m 363 1040 q 605 988 508 1040 q 754 819 703 935 q 806 514 806 703 q 709 113 806 238 q 436 -12 613 -12 q 163 112 258 -12 q 68 510 68 236 l 68 542 l 756 542 q 708 811 752 712 q 578 952 663 910 q 360 994 493 994 q 117 963 225 994 l 117 1010 q 363 1040 232 1040 m 436 34 q 606 78 536 34 q 715 224 676 122 q 756 496 753 326 l 118 496 q 158 223 120 325 q 265 78 196 122 q 436 34 335 34 z "},"T":{"ha":726,"x_min":8,"x_max":719,"o":"m 340 0 l 340 982 l 8 982 l 8 1028 l 719 1028 l 719 982 l 387 982 l 387 0 l 340 0 z "},"Ŧ":{"ha":726,"x_min":8,"x_max":719,"o":"m 719 982 l 387 982 l 387 576 l 608 576 l 608 535 l 387 535 l 387 0 l 340 0 l 340 535 l 119 535 l 119 576 l 340 576 l 340 982 l 8 982 l 8 1028 l 719 1028 l 719 982 z "},"Ť":{"ha":726,"x_min":8,"x_max":719,"o":"m 340 0 l 340 982 l 8 982 l 8 1028 l 719 1028 l 719 982 l 387 982 l 387 0 l 340 0 m 489 1311 l 541 1311 l 390 1122 l 337 1122 l 185 1311 l 238 1311 l 364 1152 l 489 1311 z "},"Ţ":{"ha":726,"x_min":8,"x_max":719,"o":"m 383 0 l 383 -78 q 468 -106 436 -80 q 499 -178 499 -132 q 464 -252 499 -226 q 372 -278 429 -278 q 308 -271 340 -278 q 247 -251 275 -265 l 247 -212 q 313 -235 283 -228 q 372 -242 342 -242 q 437 -226 414 -242 q 460 -178 460 -210 q 437 -130 460 -145 q 370 -114 413 -114 l 344 -114 l 344 0 l 340 0 l 340 982 l 8 982 l 8 1028 l 719 1028 l 719 982 l 387 982 l 387 0 l 383 0 z "},"Ț":{"ha":726,"x_min":8,"x_max":719,"o":"m 340 0 l 340 982 l 8 982 l 8 1028 l 719 1028 l 719 982 l 387 982 l 387 0 l 340 0 m 360 -128 q 394 -143 382 -128 q 406 -187 406 -158 q 399 -247 406 -214 q 376 -311 391 -281 l 345 -311 q 368 -215 365 -262 l 363 -215 q 332 -203 344 -215 q 320 -171 320 -190 q 332 -140 320 -152 q 360 -128 343 -128 z "},"Ṭ":{"ha":726,"x_min":8,"x_max":719,"o":"m 340 0 l 340 982 l 8 982 l 8 1028 l 719 1028 l 719 982 l 387 982 l 387 0 l 340 0 m 363 -215 q 332 -203 344 -215 q 320 -172 320 -192 q 332 -140 320 -153 q 363 -128 344 -128 q 394 -140 382 -128 q 406 -172 406 -153 q 394 -203 406 -192 q 363 -215 382 -215 z "},"Ṯ":{"ha":726,"x_min":8,"x_max":719,"o":"m 340 0 l 340 982 l 8 982 l 8 1028 l 719 1028 l 719 982 l 387 982 l 387 0 l 340 0 m 186 -192 l 186 -152 l 540 -152 l 540 -192 l 186 -192 z "},"U":{"ha":892,"x_min":117,"x_max":775,"o":"m 447 -12 q 260 27 333 -12 q 152 147 187 66 q 117 355 117 228 l 117 1028 l 165 1028 l 165 348 q 194 170 165 240 q 285 67 223 101 q 447 33 347 33 q 609 67 547 33 q 700 170 671 101 q 729 348 729 240 l 729 1028 l 775 1028 l 775 355 q 741 147 775 228 q 634 27 706 66 q 447 -12 562 -12 z "},"Ú":{"ha":892,"x_min":117,"x_max":775,"o":"m 447 -12 q 260 27 333 -12 q 152 147 187 66 q 117 355 117 228 l 117 1028 l 165 1028 l 165 348 q 194 170 165 240 q 285 67 223 101 q 447 33 347 33 q 609 67 547 33 q 700 170 671 101 q 729 348 729 240 l 729 1028 l 775 1028 l 775 355 q 741 147 775 228 q 634 27 706 66 q 447 -12 562 -12 m 426 1122 l 532 1311 l 584 1311 l 468 1122 l 426 1122 z "},"Ŭ":{"ha":892,"x_min":117,"x_max":775,"o":"m 447 -12 q 260 27 333 -12 q 152 147 187 66 q 117 355 117 228 l 117 1028 l 165 1028 l 165 348 q 194 170 165 240 q 285 67 223 101 q 447 33 347 33 q 609 67 547 33 q 700 170 671 101 q 729 348 729 240 l 729 1028 l 775 1028 l 775 355 q 741 147 775 228 q 634 27 706 66 q 447 -12 562 -12 m 449 1131 q 318 1173 365 1131 q 265 1292 271 1215 l 305 1292 q 346 1200 313 1229 q 449 1172 379 1172 q 551 1200 518 1172 q 590 1292 584 1229 l 629 1292 q 578 1172 624 1213 q 449 1131 533 1131 z "},"Û":{"ha":892,"x_min":117,"x_max":775,"o":"m 447 -12 q 260 27 333 -12 q 152 147 187 66 q 117 355 117 228 l 117 1028 l 165 1028 l 165 348 q 194 170 165 240 q 285 67 223 101 q 447 33 347 33 q 609 67 547 33 q 700 170 671 101 q 729 348 729 240 l 729 1028 l 775 1028 l 775 355 q 741 147 775 228 q 634 27 706 66 q 447 -12 562 -12 m 625 1122 l 573 1122 l 448 1282 l 322 1122 l 269 1122 l 421 1311 l 474 1311 l 625 1122 z "},"Ȕ":{"ha":892,"x_min":117,"x_max":775,"o":"m 447 -12 q 260 27 333 -12 q 152 147 187 66 q 117 355 117 228 l 117 1028 l 165 1028 l 165 348 q 194 170 165 240 q 285 67 223 101 q 447 33 347 33 q 609 67 547 33 q 700 170 671 101 q 729 348 729 240 l 729 1028 l 775 1028 l 775 355 q 741 147 775 228 q 634 27 706 66 q 447 -12 562 -12 m 332 1122 l 253 1311 l 299 1311 l 372 1122 l 332 1122 m 523 1122 l 444 1311 l 490 1311 l 563 1122 l 523 1122 z "},"Ü":{"ha":892,"x_min":117,"x_max":775,"o":"m 447 -12 q 260 27 333 -12 q 152 147 187 66 q 117 355 117 228 l 117 1028 l 165 1028 l 165 348 q 194 170 165 240 q 285 67 223 101 q 447 33 347 33 q 609 67 547 33 q 700 170 671 101 q 729 348 729 240 l 729 1028 l 775 1028 l 775 355 q 741 147 775 228 q 634 27 706 66 q 447 -12 562 -12 m 308 1174 q 277 1185 290 1174 q 265 1217 265 1197 q 277 1249 265 1236 q 308 1261 290 1261 q 339 1249 327 1261 q 351 1217 351 1236 q 339 1185 351 1197 q 308 1174 327 1174 m 586 1174 q 555 1185 567 1174 q 543 1217 543 1197 q 555 1249 543 1236 q 586 1261 567 1261 q 617 1249 605 1261 q 629 1217 629 1236 q 617 1185 629 1197 q 586 1174 605 1174 z "},"Ụ":{"ha":892,"x_min":117,"x_max":775,"o":"m 447 -12 q 260 27 333 -12 q 152 147 187 66 q 117 355 117 228 l 117 1028 l 165 1028 l 165 348 q 194 170 165 240 q 285 67 223 101 q 447 33 347 33 q 609 67 547 33 q 700 170 671 101 q 729 348 729 240 l 729 1028 l 775 1028 l 775 355 q 741 147 775 228 q 634 27 706 66 q 447 -12 562 -12 m 447 -215 q 416 -203 428 -215 q 404 -172 404 -192 q 416 -140 404 -153 q 447 -128 428 -128 q 478 -140 466 -128 q 490 -172 490 -153 q 478 -203 490 -192 q 447 -215 466 -215 z "},"Ù":{"ha":892,"x_min":117,"x_max":775,"o":"m 447 -12 q 260 27 333 -12 q 152 147 187 66 q 117 355 117 228 l 117 1028 l 165 1028 l 165 348 q 194 170 165 240 q 285 67 223 101 q 447 33 347 33 q 609 67 547 33 q 700 170 671 101 q 729 348 729 240 l 729 1028 l 775 1028 l 775 355 q 741 147 775 228 q 634 27 706 66 q 447 -12 562 -12 m 426 1122 l 310 1311 l 363 1311 l 468 1122 l 426 1122 z "},"Ủ":{"ha":892,"x_min":117,"x_max":775,"o":"m 447 -12 q 260 27 333 -12 q 152 147 187 66 q 117 355 117 228 l 117 1028 l 165 1028 l 165 348 q 194 170 165 240 q 285 67 223 101 q 447 33 347 33 q 609 67 547 33 q 700 170 671 101 q 729 348 729 240 l 729 1028 l 775 1028 l 775 355 q 741 147 775 228 q 634 27 706 66 q 447 -12 562 -12 m 426 1122 q 444 1165 427 1151 q 491 1193 460 1180 q 525 1213 514 1203 q 537 1238 537 1222 q 519 1264 537 1255 q 456 1274 501 1274 q 326 1248 388 1274 l 326 1286 q 386 1305 351 1298 q 456 1311 420 1311 q 547 1291 516 1311 q 578 1238 578 1271 q 563 1197 578 1211 q 519 1169 548 1183 q 483 1148 494 1158 q 469 1122 471 1139 l 426 1122 z "},"Ư":{"ha":892,"x_min":117,"x_max":928,"o":"m 447 -12 q 260 27 333 -12 q 152 147 187 66 q 117 355 117 228 l 117 1028 l 165 1028 l 165 348 q 194 170 165 240 q 285 67 223 101 q 447 33 347 33 q 609 67 547 33 q 700 170 671 101 q 729 348 729 240 l 729 1028 l 752 1028 q 848 1054 813 1028 q 883 1135 883 1081 q 878 1184 883 1162 q 866 1233 874 1206 l 912 1233 q 925 1186 921 1208 q 928 1133 928 1163 q 887 1027 928 1065 q 775 985 845 988 l 775 355 q 741 147 775 228 q 634 27 706 66 q 447 -12 562 -12 z "},"Ứ":{"ha":892,"x_min":117,"x_max":928,"o":"m 447 -12 q 260 27 333 -12 q 152 147 187 66 q 117 355 117 228 l 117 1028 l 165 1028 l 165 348 q 194 170 165 240 q 285 67 223 101 q 447 33 347 33 q 609 67 547 33 q 700 170 671 101 q 729 348 729 240 l 729 1028 l 752 1028 q 848 1054 813 1028 q 883 1135 883 1081 q 878 1184 883 1162 q 866 1233 874 1206 l 912 1233 q 925 1186 921 1208 q 928 1133 928 1163 q 887 1027 928 1065 q 775 985 845 988 l 775 355 q 741 147 775 228 q 634 27 706 66 q 447 -12 562 -12 m 426 1122 l 532 1311 l 584 1311 l 468 1122 l 426 1122 z "},"Ự":{"ha":892,"x_min":117,"x_max":928,"o":"m 447 -12 q 260 27 333 -12 q 152 147 187 66 q 117 355 117 228 l 117 1028 l 165 1028 l 165 348 q 194 170 165 240 q 285 67 223 101 q 447 33 347 33 q 609 67 547 33 q 700 170 671 101 q 729 348 729 240 l 729 1028 l 752 1028 q 848 1054 813 1028 q 883 1135 883 1081 q 878 1184 883 1162 q 866 1233 874 1206 l 912 1233 q 925 1186 921 1208 q 928 1133 928 1163 q 887 1027 928 1065 q 775 985 845 988 l 775 355 q 741 147 775 228 q 634 27 706 66 q 447 -12 562 -12 m 447 -215 q 416 -203 428 -215 q 404 -172 404 -192 q 416 -140 404 -153 q 447 -128 428 -128 q 478 -140 466 -128 q 490 -172 490 -153 q 478 -203 490 -192 q 447 -215 466 -215 z "},"Ừ":{"ha":892,"x_min":117,"x_max":928,"o":"m 447 -12 q 260 27 333 -12 q 152 147 187 66 q 117 355 117 228 l 117 1028 l 165 1028 l 165 348 q 194 170 165 240 q 285 67 223 101 q 447 33 347 33 q 609 67 547 33 q 700 170 671 101 q 729 348 729 240 l 729 1028 l 752 1028 q 848 1054 813 1028 q 883 1135 883 1081 q 878 1184 883 1162 q 866 1233 874 1206 l 912 1233 q 925 1186 921 1208 q 928 1133 928 1163 q 887 1027 928 1065 q 775 985 845 988 l 775 355 q 741 147 775 228 q 634 27 706 66 q 447 -12 562 -12 m 426 1122 l 310 1311 l 363 1311 l 468 1122 l 426 1122 z "},"Ử":{"ha":892,"x_min":117,"x_max":928,"o":"m 447 -12 q 260 27 333 -12 q 152 147 187 66 q 117 355 117 228 l 117 1028 l 165 1028 l 165 348 q 194 170 165 240 q 285 67 223 101 q 447 33 347 33 q 609 67 547 33 q 700 170 671 101 q 729 348 729 240 l 729 1028 l 752 1028 q 848 1054 813 1028 q 883 1135 883 1081 q 878 1184 883 1162 q 866 1233 874 1206 l 912 1233 q 925 1186 921 1208 q 928 1133 928 1163 q 887 1027 928 1065 q 775 985 845 988 l 775 355 q 741 147 775 228 q 634 27 706 66 q 447 -12 562 -12 m 426 1122 q 444 1165 427 1151 q 491 1193 460 1180 q 525 1213 514 1203 q 537 1238 537 1222 q 519 1264 537 1255 q 456 1274 501 1274 q 326 1248 388 1274 l 326 1286 q 386 1305 351 1298 q 456 1311 420 1311 q 547 1291 516 1311 q 578 1238 578 1271 q 563 1197 578 1211 q 519 1169 548 1183 q 483 1148 494 1158 q 469 1122 471 1139 l 426 1122 z "},"Ữ":{"ha":892,"x_min":117,"x_max":928,"o":"m 447 -12 q 260 27 333 -12 q 152 147 187 66 q 117 355 117 228 l 117 1028 l 165 1028 l 165 348 q 194 170 165 240 q 285 67 223 101 q 447 33 347 33 q 609 67 547 33 q 700 170 671 101 q 729 348 729 240 l 729 1028 l 752 1028 q 848 1054 813 1028 q 883 1135 883 1081 q 878 1184 883 1162 q 866 1233 874 1206 l 912 1233 q 925 1186 921 1208 q 928 1133 928 1163 q 887 1027 928 1065 q 775 985 845 988 l 775 355 q 741 147 775 228 q 634 27 706 66 q 447 -12 562 -12 m 542 1178 q 493 1186 516 1178 q 438 1207 470 1193 q 392 1226 411 1219 q 353 1232 372 1232 q 298 1220 322 1232 q 253 1182 274 1208 l 253 1228 q 295 1260 270 1249 q 353 1271 321 1271 q 401 1264 378 1271 q 457 1242 424 1256 q 503 1224 483 1230 q 542 1217 522 1217 q 597 1230 573 1217 q 642 1267 620 1242 l 642 1221 q 542 1178 606 1178 z "},"Ű":{"ha":892,"x_min":117,"x_max":775,"o":"m 447 -12 q 260 27 333 -12 q 152 147 187 66 q 117 355 117 228 l 117 1028 l 165 1028 l 165 348 q 194 170 165 240 q 285 67 223 101 q 447 33 347 33 q 609 67 547 33 q 700 170 671 101 q 729 348 729 240 l 729 1028 l 775 1028 l 775 355 q 741 147 775 228 q 634 27 706 66 q 447 -12 562 -12 m 332 1122 l 405 1311 l 451 1311 l 372 1122 l 332 1122 m 523 1122 l 595 1311 l 641 1311 l 563 1122 l 523 1122 z "},"Ȗ":{"ha":892,"x_min":117,"x_max":775,"o":"m 447 -12 q 260 27 333 -12 q 152 147 187 66 q 117 355 117 228 l 117 1028 l 165 1028 l 165 348 q 194 170 165 240 q 285 67 223 101 q 447 33 347 33 q 609 67 547 33 q 700 170 671 101 q 729 348 729 240 l 729 1028 l 775 1028 l 775 355 q 741 147 775 228 q 634 27 706 66 q 447 -12 562 -12 m 265 1142 q 316 1261 271 1220 q 446 1303 362 1303 q 577 1261 530 1303 q 629 1142 624 1219 l 590 1142 q 549 1234 582 1205 q 446 1263 515 1263 q 344 1234 376 1263 q 305 1142 311 1205 l 265 1142 z "},"Ū":{"ha":892,"x_min":117,"x_max":775,"o":"m 447 -12 q 260 27 333 -12 q 152 147 187 66 q 117 355 117 228 l 117 1028 l 165 1028 l 165 348 q 194 170 165 240 q 285 67 223 101 q 447 33 347 33 q 609 67 547 33 q 700 170 671 101 q 729 348 729 240 l 729 1028 l 775 1028 l 775 355 q 741 147 775 228 q 634 27 706 66 q 447 -12 562 -12 m 270 1197 l 270 1238 l 624 1238 l 624 1197 l 270 1197 z "},"Ṻ":{"ha":892,"x_min":117,"x_max":775,"o":"m 447 -12 q 260 27 333 -12 q 152 147 187 66 q 117 355 117 228 l 117 1028 l 165 1028 l 165 348 q 194 170 165 240 q 285 67 223 101 q 447 33 347 33 q 609 67 547 33 q 700 170 671 101 q 729 348 729 240 l 729 1028 l 775 1028 l 775 355 q 741 147 775 228 q 634 27 706 66 q 447 -12 562 -12 m 270 1197 l 270 1238 l 624 1238 l 624 1197 l 270 1197 m 308 1332 q 277 1344 290 1332 q 265 1375 265 1356 q 277 1407 265 1394 q 308 1419 290 1419 q 339 1407 327 1419 q 351 1375 351 1394 q 339 1344 351 1356 q 308 1332 327 1332 m 586 1332 q 555 1344 567 1332 q 543 1375 543 1356 q 555 1407 543 1394 q 586 1419 567 1419 q 617 1407 605 1419 q 629 1375 629 1394 q 617 1344 629 1356 q 586 1332 605 1332 z "},"Ų":{"ha":892,"x_min":117,"x_max":775,"o":"m 775 1028 l 775 355 q 729 124 775 212 q 577 4 683 36 q 406 -157 406 -50 q 507 -241 406 -241 q 558 -234 532 -241 q 617 -213 583 -228 l 617 -251 q 508 -277 564 -277 q 403 -247 440 -277 q 367 -159 367 -217 q 456 -12 367 -67 l 447 -12 q 260 27 333 -12 q 152 147 187 66 q 117 355 117 228 l 117 1028 l 165 1028 l 165 348 q 194 170 165 240 q 285 67 223 101 q 447 33 347 33 q 609 67 547 33 q 700 170 671 101 q 729 348 729 240 l 729 1028 l 775 1028 z "},"Ů":{"ha":892,"x_min":117,"x_max":775,"o":"m 447 -12 q 260 27 333 -12 q 152 147 187 66 q 117 355 117 228 l 117 1028 l 165 1028 l 165 348 q 194 170 165 240 q 285 67 223 101 q 447 33 347 33 q 609 67 547 33 q 700 170 671 101 q 729 348 729 240 l 729 1028 l 775 1028 l 775 355 q 741 147 775 228 q 634 27 706 66 q 447 -12 562 -12 m 447 1119 q 382 1135 411 1119 q 336 1181 353 1152 q 319 1247 319 1210 q 336 1312 319 1283 q 382 1358 353 1341 q 447 1374 411 1374 q 513 1358 483 1374 q 558 1312 542 1341 q 575 1247 575 1283 q 558 1181 575 1210 q 513 1135 542 1152 q 447 1119 483 1119 m 447 1155 q 513 1180 488 1155 q 538 1247 538 1204 q 513 1314 538 1289 q 447 1338 488 1338 q 382 1314 407 1338 q 357 1247 357 1289 q 382 1180 357 1204 q 447 1155 407 1155 z "},"Ũ":{"ha":892,"x_min":117,"x_max":775,"o":"m 447 -12 q 260 27 333 -12 q 152 147 187 66 q 117 355 117 228 l 117 1028 l 165 1028 l 165 348 q 194 170 165 240 q 285 67 223 101 q 447 33 347 33 q 609 67 547 33 q 700 170 671 101 q 729 348 729 240 l 729 1028 l 775 1028 l 775 355 q 741 147 775 228 q 634 27 706 66 q 447 -12 562 -12 m 542 1178 q 493 1186 516 1178 q 438 1207 470 1193 q 392 1226 411 1219 q 353 1232 372 1232 q 298 1220 322 1232 q 253 1182 274 1208 l 253 1228 q 295 1260 270 1249 q 353 1271 321 1271 q 401 1264 378 1271 q 457 1242 424 1256 q 503 1224 483 1230 q 542 1217 522 1217 q 597 1230 573 1217 q 642 1267 620 1242 l 642 1221 q 542 1178 606 1178 z "},"Ṹ":{"ha":892,"x_min":117,"x_max":775,"o":"m 447 -12 q 260 27 333 -12 q 152 147 187 66 q 117 355 117 228 l 117 1028 l 165 1028 l 165 348 q 194 170 165 240 q 285 67 223 101 q 447 33 347 33 q 609 67 547 33 q 700 170 671 101 q 729 348 729 240 l 729 1028 l 775 1028 l 775 355 q 741 147 775 228 q 634 27 706 66 q 447 -12 562 -12 m 426 1308 l 531 1469 l 584 1469 l 469 1308 l 426 1308 m 542 1178 q 493 1186 516 1178 q 438 1207 470 1193 q 392 1226 411 1219 q 353 1232 372 1232 q 298 1220 322 1232 q 253 1182 274 1208 l 253 1228 q 295 1260 270 1249 q 353 1271 321 1271 q 401 1264 378 1271 q 457 1242 424 1256 q 503 1224 483 1230 q 542 1217 522 1217 q 597 1230 573 1217 q 642 1267 620 1242 l 642 1221 q 542 1178 606 1178 z "},"V":{"ha":814,"x_min":10,"x_max":805,"o":"m 756 1028 l 805 1028 l 440 0 l 374 0 l 10 1028 l 61 1028 l 408 44 l 756 1028 z "},"W":{"ha":1317,"x_min":44,"x_max":1274,"o":"m 1226 1028 l 1274 1028 l 992 0 l 927 0 l 659 974 l 390 0 l 325 0 l 44 1028 l 94 1028 l 358 48 l 626 1028 l 692 1028 l 960 48 l 1226 1028 z "},"Ẃ":{"ha":1317,"x_min":44,"x_max":1274,"o":"m 1226 1028 l 1274 1028 l 992 0 l 927 0 l 659 974 l 390 0 l 325 0 l 44 1028 l 94 1028 l 358 48 l 626 1028 l 692 1028 l 960 48 l 1226 1028 m 639 1122 l 744 1311 l 797 1311 l 681 1122 l 639 1122 z "},"Ŵ":{"ha":1317,"x_min":44,"x_max":1274,"o":"m 1226 1028 l 1274 1028 l 992 0 l 927 0 l 659 974 l 390 0 l 325 0 l 44 1028 l 94 1028 l 358 48 l 626 1028 l 692 1028 l 960 48 l 1226 1028 m 838 1122 l 785 1122 l 660 1282 l 535 1122 l 482 1122 l 633 1311 l 686 1311 l 838 1122 z "},"Ẅ":{"ha":1317,"x_min":44,"x_max":1274,"o":"m 1226 1028 l 1274 1028 l 992 0 l 927 0 l 659 974 l 390 0 l 325 0 l 44 1028 l 94 1028 l 358 48 l 626 1028 l 692 1028 l 960 48 l 1226 1028 m 521 1174 q 490 1185 502 1174 q 478 1217 478 1197 q 490 1249 478 1236 q 521 1261 502 1261 q 552 1249 540 1261 q 564 1217 564 1236 q 552 1185 564 1197 q 521 1174 540 1174 m 799 1174 q 768 1185 780 1174 q 756 1217 756 1197 q 768 1249 756 1236 q 799 1261 780 1261 q 830 1249 817 1261 q 842 1217 842 1236 q 830 1185 842 1197 q 799 1174 817 1174 z "},"Ẁ":{"ha":1317,"x_min":44,"x_max":1274,"o":"m 1226 1028 l 1274 1028 l 992 0 l 927 0 l 659 974 l 390 0 l 325 0 l 44 1028 l 94 1028 l 358 48 l 626 1028 l 692 1028 l 960 48 l 1226 1028 m 639 1122 l 523 1311 l 576 1311 l 681 1122 l 639 1122 z "},"X":{"ha":798,"x_min":24,"x_max":774,"o":"m 427 519 l 774 0 l 716 0 l 399 476 l 81 0 l 24 0 l 371 519 l 31 1028 l 88 1028 l 399 561 l 711 1028 l 767 1028 l 427 519 z "},"Y":{"ha":726,"x_min":-15,"x_max":735,"o":"m 735 1028 l 387 472 l 387 0 l 340 0 l 340 472 l -15 1028 l 42 1028 l 363 519 l 681 1028 l 735 1028 z "},"Ý":{"ha":726,"x_min":-15,"x_max":735,"o":"m 735 1028 l 387 472 l 387 0 l 340 0 l 340 472 l -15 1028 l 42 1028 l 363 519 l 681 1028 l 735 1028 m 342 1122 l 448 1311 l 500 1311 l 384 1122 l 342 1122 z "},"Ŷ":{"ha":726,"x_min":-15,"x_max":735,"o":"m 735 1028 l 387 472 l 387 0 l 340 0 l 340 472 l -15 1028 l 42 1028 l 363 519 l 681 1028 l 735 1028 m 541 1122 l 489 1122 l 364 1282 l 238 1122 l 185 1122 l 337 1311 l 390 1311 l 541 1122 z "},"Ÿ":{"ha":726,"x_min":-15,"x_max":735,"o":"m 735 1028 l 387 472 l 387 0 l 340 0 l 340 472 l -15 1028 l 42 1028 l 363 519 l 681 1028 l 735 1028 m 224 1174 q 193 1185 206 1174 q 181 1217 181 1197 q 193 1249 181 1236 q 224 1261 206 1261 q 255 1249 243 1261 q 267 1217 267 1236 q 255 1185 267 1197 q 224 1174 243 1174 m 502 1174 q 471 1185 483 1174 q 459 1217 459 1197 q 471 1249 459 1236 q 502 1261 483 1261 q 533 1249 521 1261 q 545 1217 545 1236 q 533 1185 545 1197 q 502 1174 521 1174 z "},"Ẏ":{"ha":726,"x_min":-15,"x_max":735,"o":"m 735 1028 l 387 472 l 387 0 l 340 0 l 340 472 l -15 1028 l 42 1028 l 363 519 l 681 1028 l 735 1028 m 363 1174 q 332 1185 344 1174 q 320 1217 320 1197 q 332 1249 320 1236 q 363 1261 344 1261 q 394 1249 382 1261 q 406 1217 406 1236 q 394 1185 406 1197 q 363 1174 382 1174 z "},"Ỵ":{"ha":726,"x_min":-15,"x_max":735,"o":"m 735 1028 l 387 472 l 387 0 l 340 0 l 340 472 l -15 1028 l 42 1028 l 363 519 l 681 1028 l 735 1028 m 363 -215 q 332 -203 344 -215 q 320 -172 320 -192 q 332 -140 320 -153 q 363 -128 344 -128 q 394 -140 382 -128 q 406 -172 406 -153 q 394 -203 406 -192 q 363 -215 382 -215 z "},"Ỳ":{"ha":726,"x_min":-15,"x_max":735,"o":"m 735 1028 l 387 472 l 387 0 l 340 0 l 340 472 l -15 1028 l 42 1028 l 363 519 l 681 1028 l 735 1028 m 342 1122 l 226 1311 l 279 1311 l 384 1122 l 342 1122 z "},"Ỷ":{"ha":726,"x_min":-15,"x_max":735,"o":"m 735 1028 l 387 472 l 387 0 l 340 0 l 340 472 l -15 1028 l 42 1028 l 363 519 l 681 1028 l 735 1028 m 342 1122 q 360 1165 343 1151 q 407 1193 376 1180 q 441 1213 430 1203 q 453 1238 453 1222 q 435 1264 453 1255 q 372 1274 417 1274 q 242 1248 304 1274 l 242 1286 q 302 1305 267 1298 q 372 1311 336 1311 q 463 1291 432 1311 q 494 1238 494 1271 q 479 1197 494 1211 q 435 1169 464 1183 q 399 1148 410 1158 q 385 1122 387 1139 l 342 1122 z "},"Ȳ":{"ha":726,"x_min":-15,"x_max":735,"o":"m 735 1028 l 387 472 l 387 0 l 340 0 l 340 472 l -15 1028 l 42 1028 l 363 519 l 681 1028 l 735 1028 m 186 1197 l 186 1238 l 540 1238 l 540 1197 l 186 1197 z "},"Ỹ":{"ha":726,"x_min":-15,"x_max":735,"o":"m 735 1028 l 387 472 l 387 0 l 340 0 l 340 472 l -15 1028 l 42 1028 l 363 519 l 681 1028 l 735 1028 m 458 1178 q 409 1186 432 1178 q 353 1207 386 1193 q 308 1226 327 1219 q 269 1232 288 1232 q 214 1220 238 1232 q 169 1182 190 1208 l 169 1228 q 211 1260 186 1249 q 269 1271 237 1271 q 317 1264 294 1271 q 373 1242 340 1256 q 419 1224 399 1230 q 458 1217 438 1217 q 513 1230 489 1217 q 558 1267 536 1242 l 558 1221 q 458 1178 522 1178 z "},"Z":{"ha":713,"x_min":42,"x_max":672,"o":"m 105 44 l 672 44 l 672 0 l 42 0 l 42 28 l 601 983 l 49 983 l 49 1028 l 664 1028 l 664 1000 l 105 44 z "},"Ź":{"ha":713,"x_min":42,"x_max":672,"o":"m 105 44 l 672 44 l 672 0 l 42 0 l 42 28 l 601 983 l 49 983 l 49 1028 l 664 1028 l 664 1000 l 105 44 m 336 1122 l 442 1311 l 494 1311 l 378 1122 l 336 1122 z "},"Ž":{"ha":713,"x_min":42,"x_max":672,"o":"m 105 44 l 672 44 l 672 0 l 42 0 l 42 28 l 601 983 l 49 983 l 49 1028 l 664 1028 l 664 1000 l 105 44 m 483 1311 l 535 1311 l 383 1122 l 331 1122 l 179 1311 l 232 1311 l 358 1152 l 483 1311 z "},"Ż":{"ha":713,"x_min":42,"x_max":672,"o":"m 105 44 l 672 44 l 672 0 l 42 0 l 42 28 l 601 983 l 49 983 l 49 1028 l 664 1028 l 664 1000 l 105 44 m 357 1174 q 326 1185 338 1174 q 314 1217 314 1197 q 326 1249 314 1236 q 357 1261 338 1261 q 388 1249 376 1261 q 400 1217 400 1236 q 388 1185 400 1197 q 357 1174 376 1174 z "},"Ẓ":{"ha":713,"x_min":42,"x_max":672,"o":"m 105 44 l 672 44 l 672 0 l 42 0 l 42 28 l 601 983 l 49 983 l 49 1028 l 664 1028 l 664 1000 l 105 44 m 357 -215 q 326 -203 338 -215 q 314 -172 314 -192 q 326 -140 314 -153 q 357 -128 338 -128 q 388 -140 376 -128 q 400 -172 400 -153 q 388 -203 400 -192 q 357 -215 376 -215 z "},"a":{"ha":636,"x_min":66,"x_max":535,"o":"m 294 761 q 427 738 374 761 q 508 663 480 715 q 535 521 535 610 l 535 0 l 494 0 l 490 87 l 484 87 q 393 14 448 40 q 274 -11 338 -11 q 122 40 178 -11 q 66 185 66 92 q 124 333 66 281 q 305 399 183 386 l 488 422 l 488 522 q 466 639 488 597 q 402 698 444 681 q 294 715 360 715 q 202 707 251 715 q 105 682 153 699 l 105 729 q 196 753 144 744 q 294 761 247 761 m 277 35 q 391 63 336 35 q 488 153 447 91 l 488 375 l 303 353 q 162 303 207 343 q 117 190 117 263 q 158 74 117 113 q 277 35 199 35 z "},"á":{"ha":636,"x_min":66,"x_max":535,"o":"m 294 761 q 427 738 374 761 q 508 663 480 715 q 535 521 535 610 l 535 0 l 494 0 l 490 87 l 484 87 q 393 14 448 40 q 274 -11 338 -11 q 122 40 178 -11 q 66 185 66 92 q 124 333 66 281 q 305 399 183 386 l 488 422 l 488 522 q 466 639 488 597 q 402 698 444 681 q 294 715 360 715 q 202 707 251 715 q 105 682 153 699 l 105 729 q 196 753 144 744 q 294 761 247 761 m 277 35 q 391 63 336 35 q 488 153 447 91 l 488 375 l 303 353 q 162 303 207 343 q 117 190 117 263 q 158 74 117 113 q 277 35 199 35 m 294 878 l 417 1122 l 469 1122 l 335 878 l 294 878 z "},"ă":{"ha":636,"x_min":66,"x_max":535,"o":"m 294 761 q 427 738 374 761 q 508 663 480 715 q 535 521 535 610 l 535 0 l 494 0 l 490 87 l 484 87 q 393 14 448 40 q 274 -11 338 -11 q 122 40 178 -11 q 66 185 66 92 q 124 333 66 281 q 305 399 183 386 l 488 422 l 488 522 q 466 639 488 597 q 402 698 444 681 q 294 715 360 715 q 202 707 251 715 q 105 682 153 699 l 105 729 q 196 753 144 744 q 294 761 247 761 m 277 35 q 391 63 336 35 q 488 153 447 91 l 488 375 l 303 353 q 162 303 207 343 q 117 190 117 263 q 158 74 117 113 q 277 35 199 35 m 316 886 q 194 942 239 886 q 147 1103 150 998 l 186 1103 q 223 969 191 1012 q 316 926 256 926 q 408 969 377 926 q 443 1103 440 1012 l 483 1103 q 436 941 480 997 q 316 886 393 886 z "},"ắ":{"ha":636,"x_min":66,"x_max":535,"o":"m 294 761 q 427 738 374 761 q 508 663 480 715 q 535 521 535 610 l 535 0 l 494 0 l 490 87 l 484 87 q 393 14 448 40 q 274 -11 338 -11 q 122 40 178 -11 q 66 185 66 92 q 124 333 66 281 q 305 399 183 386 l 488 422 l 488 522 q 466 639 488 597 q 402 698 444 681 q 294 715 360 715 q 202 707 251 715 q 105 682 153 699 l 105 729 q 196 753 144 744 q 294 761 247 761 m 277 35 q 391 63 336 35 q 488 153 447 91 l 488 375 l 303 353 q 162 303 207 343 q 117 190 117 263 q 158 74 117 113 q 277 35 199 35 m 294 1108 l 399 1297 l 451 1297 l 335 1108 l 294 1108 m 316 886 q 194 942 239 886 q 147 1103 150 998 l 186 1103 q 223 969 191 1012 q 316 926 256 926 q 408 969 377 926 q 443 1103 440 1012 l 483 1103 q 436 941 480 997 q 316 886 393 886 z "},"ặ":{"ha":636,"x_min":66,"x_max":535,"o":"m 294 761 q 427 738 374 761 q 508 663 480 715 q 535 521 535 610 l 535 0 l 494 0 l 490 87 l 484 87 q 393 14 448 40 q 274 -11 338 -11 q 122 40 178 -11 q 66 185 66 92 q 124 333 66 281 q 305 399 183 386 l 488 422 l 488 522 q 466 639 488 597 q 402 698 444 681 q 294 715 360 715 q 202 707 251 715 q 105 682 153 699 l 105 729 q 196 753 144 744 q 294 761 247 761 m 277 35 q 391 63 336 35 q 488 153 447 91 l 488 375 l 303 353 q 162 303 207 343 q 117 190 117 263 q 158 74 117 113 q 277 35 199 35 m 321 -215 q 290 -203 302 -215 q 278 -172 278 -192 q 290 -140 278 -153 q 321 -128 302 -128 q 352 -140 340 -128 q 364 -172 364 -153 q 352 -203 364 -192 q 321 -215 340 -215 m 316 886 q 194 942 239 886 q 147 1103 150 998 l 186 1103 q 223 969 191 1012 q 316 926 256 926 q 408 969 377 926 q 443 1103 440 1012 l 483 1103 q 436 941 480 997 q 316 886 393 886 z "},"ằ":{"ha":636,"x_min":66,"x_max":535,"o":"m 294 761 q 427 738 374 761 q 508 663 480 715 q 535 521 535 610 l 535 0 l 494 0 l 490 87 l 484 87 q 393 14 448 40 q 274 -11 338 -11 q 122 40 178 -11 q 66 185 66 92 q 124 333 66 281 q 305 399 183 386 l 488 422 l 488 522 q 466 639 488 597 q 402 698 444 681 q 294 715 360 715 q 202 707 251 715 q 105 682 153 699 l 105 729 q 196 753 144 744 q 294 761 247 761 m 277 35 q 391 63 336 35 q 488 153 447 91 l 488 375 l 303 353 q 162 303 207 343 q 117 190 117 263 q 158 74 117 113 q 277 35 199 35 m 294 1108 l 178 1297 l 231 1297 l 335 1108 l 294 1108 m 316 886 q 194 942 239 886 q 147 1103 150 998 l 186 1103 q 223 969 191 1012 q 316 926 256 926 q 408 969 377 926 q 443 1103 440 1012 l 483 1103 q 436 941 480 997 q 316 886 393 886 z "},"ẳ":{"ha":636,"x_min":66,"x_max":535,"o":"m 294 761 q 427 738 374 761 q 508 663 480 715 q 535 521 535 610 l 535 0 l 494 0 l 490 87 l 484 87 q 393 14 448 40 q 274 -11 338 -11 q 122 40 178 -11 q 66 185 66 92 q 124 333 66 281 q 305 399 183 386 l 488 422 l 488 522 q 466 639 488 597 q 402 698 444 681 q 294 715 360 715 q 202 707 251 715 q 105 682 153 699 l 105 729 q 196 753 144 744 q 294 761 247 761 m 277 35 q 391 63 336 35 q 488 153 447 91 l 488 375 l 303 353 q 162 303 207 343 q 117 190 117 263 q 158 74 117 113 q 277 35 199 35 m 293 1108 q 311 1151 294 1137 q 358 1179 328 1166 q 393 1199 381 1190 q 404 1224 404 1208 q 386 1250 404 1241 q 324 1260 369 1260 q 193 1234 256 1260 l 193 1272 q 253 1291 219 1284 q 324 1297 288 1297 q 415 1277 383 1297 q 446 1224 446 1257 q 431 1183 446 1197 q 386 1156 415 1169 q 350 1134 362 1144 q 336 1108 338 1125 l 293 1108 m 316 886 q 194 942 239 886 q 147 1103 150 998 l 186 1103 q 223 969 191 1012 q 316 926 256 926 q 408 969 377 926 q 443 1103 440 1012 l 483 1103 q 436 941 480 997 q 316 886 393 886 z "},"ẵ":{"ha":636,"x_min":66,"x_max":535,"o":"m 294 761 q 427 738 374 761 q 508 663 480 715 q 535 521 535 610 l 535 0 l 494 0 l 490 87 l 484 87 q 393 14 448 40 q 274 -11 338 -11 q 122 40 178 -11 q 66 185 66 92 q 124 333 66 281 q 305 399 183 386 l 488 422 l 488 522 q 466 639 488 597 q 402 698 444 681 q 294 715 360 715 q 202 707 251 715 q 105 682 153 699 l 105 729 q 196 753 144 744 q 294 761 247 761 m 277 35 q 391 63 336 35 q 488 153 447 91 l 488 375 l 303 353 q 162 303 207 343 q 117 190 117 263 q 158 74 117 113 q 277 35 199 35 m 402 1164 q 356 1172 378 1164 q 305 1193 333 1179 q 261 1211 278 1206 q 227 1217 244 1217 q 174 1205 198 1217 q 130 1168 151 1193 l 130 1214 q 172 1246 147 1235 q 227 1257 197 1257 q 273 1249 251 1257 q 324 1228 296 1242 q 368 1209 351 1215 q 402 1203 385 1203 q 455 1216 431 1203 q 500 1253 478 1228 l 500 1207 q 402 1164 464 1164 m 316 886 q 194 942 239 886 q 147 1103 150 998 l 186 1103 q 223 969 191 1012 q 316 926 256 926 q 408 969 377 926 q 443 1103 440 1012 l 483 1103 q 436 941 480 997 q 316 886 393 886 z "},"â":{"ha":636,"x_min":66,"x_max":535,"o":"m 294 761 q 427 738 374 761 q 508 663 480 715 q 535 521 535 610 l 535 0 l 494 0 l 490 87 l 484 87 q 393 14 448 40 q 274 -11 338 -11 q 122 40 178 -11 q 66 185 66 92 q 124 333 66 281 q 305 399 183 386 l 488 422 l 488 522 q 466 639 488 597 q 402 698 444 681 q 294 715 360 715 q 202 707 251 715 q 105 682 153 699 l 105 729 q 196 753 144 744 q 294 761 247 761 m 277 35 q 391 63 336 35 q 488 153 447 91 l 488 375 l 303 353 q 162 303 207 343 q 117 190 117 263 q 158 74 117 113 q 277 35 199 35 m 478 878 l 431 878 l 315 1092 l 199 878 l 151 878 l 288 1122 l 341 1122 l 478 878 z "},"ấ":{"ha":636,"x_min":66,"x_max":604,"o":"m 294 761 q 427 738 374 761 q 508 663 480 715 q 535 521 535 610 l 535 0 l 494 0 l 490 87 l 484 87 q 393 14 448 40 q 274 -11 338 -11 q 122 40 178 -11 q 66 185 66 92 q 124 333 66 281 q 305 399 183 386 l 488 422 l 488 522 q 466 639 488 597 q 402 698 444 681 q 294 715 360 715 q 202 707 251 715 q 105 682 153 699 l 105 729 q 196 753 144 744 q 294 761 247 761 m 277 35 q 391 63 336 35 q 488 153 447 91 l 488 375 l 303 353 q 162 303 207 343 q 117 190 117 263 q 158 74 117 113 q 277 35 199 35 m 551 1297 l 604 1297 l 488 1108 l 447 1108 l 551 1297 m 288 1122 l 341 1122 l 478 878 l 431 878 l 315 1092 l 199 878 l 151 878 l 288 1122 z "},"ậ":{"ha":636,"x_min":66,"x_max":535,"o":"m 294 761 q 427 738 374 761 q 508 663 480 715 q 535 521 535 610 l 535 0 l 494 0 l 490 87 l 484 87 q 393 14 448 40 q 274 -11 338 -11 q 122 40 178 -11 q 66 185 66 92 q 124 333 66 281 q 305 399 183 386 l 488 422 l 488 522 q 466 639 488 597 q 402 698 444 681 q 294 715 360 715 q 202 707 251 715 q 105 682 153 699 l 105 729 q 196 753 144 744 q 294 761 247 761 m 277 35 q 391 63 336 35 q 488 153 447 91 l 488 375 l 303 353 q 162 303 207 343 q 117 190 117 263 q 158 74 117 113 q 277 35 199 35 m 321 -215 q 290 -203 302 -215 q 278 -172 278 -192 q 290 -140 278 -153 q 321 -128 302 -128 q 352 -140 340 -128 q 364 -172 364 -153 q 352 -203 364 -192 q 321 -215 340 -215 m 478 878 l 431 878 l 315 1092 l 199 878 l 151 878 l 288 1122 l 341 1122 l 478 878 z "},"ầ":{"ha":636,"x_min":66,"x_max":535,"o":"m 294 761 q 427 738 374 761 q 508 663 480 715 q 535 521 535 610 l 535 0 l 494 0 l 490 87 l 484 87 q 393 14 448 40 q 274 -11 338 -11 q 122 40 178 -11 q 66 185 66 92 q 124 333 66 281 q 305 399 183 386 l 488 422 l 488 522 q 466 639 488 597 q 402 698 444 681 q 294 715 360 715 q 202 707 251 715 q 105 682 153 699 l 105 729 q 196 753 144 744 q 294 761 247 761 m 277 35 q 391 63 336 35 q 488 153 447 91 l 488 375 l 303 353 q 162 303 207 343 q 117 190 117 263 q 158 74 117 113 q 277 35 199 35 m 492 1108 l 451 1108 l 335 1297 l 388 1297 l 492 1108 m 288 1122 l 341 1122 l 478 878 l 431 878 l 315 1092 l 199 878 l 151 878 l 288 1122 z "},"ẩ":{"ha":636,"x_min":66,"x_max":588,"o":"m 294 761 q 427 738 374 761 q 508 663 480 715 q 535 521 535 610 l 535 0 l 494 0 l 490 87 l 484 87 q 393 14 448 40 q 274 -11 338 -11 q 122 40 178 -11 q 66 185 66 92 q 124 333 66 281 q 305 399 183 386 l 488 422 l 488 522 q 466 639 488 597 q 402 698 444 681 q 294 715 360 715 q 202 707 251 715 q 105 682 153 699 l 105 729 q 196 753 144 744 q 294 761 247 761 m 277 35 q 391 63 336 35 q 488 153 447 91 l 488 375 l 303 353 q 162 303 207 343 q 117 190 117 263 q 158 74 117 113 q 277 35 199 35 m 465 1297 q 557 1277 526 1297 q 588 1224 588 1257 q 572 1183 588 1197 q 528 1156 557 1169 q 492 1134 503 1144 q 478 1108 480 1125 l 435 1108 q 453 1151 437 1137 q 501 1179 470 1166 q 535 1199 524 1190 q 547 1224 547 1208 q 528 1250 547 1241 q 465 1260 510 1260 q 335 1234 398 1260 l 335 1272 q 395 1291 361 1284 q 465 1297 429 1297 m 288 1122 l 341 1122 l 478 878 l 431 878 l 315 1092 l 199 878 l 151 878 l 288 1122 z "},"ẫ":{"ha":636,"x_min":66,"x_max":535,"o":"m 294 761 q 427 738 374 761 q 508 663 480 715 q 535 521 535 610 l 535 0 l 494 0 l 490 87 l 484 87 q 393 14 448 40 q 274 -11 338 -11 q 122 40 178 -11 q 66 185 66 92 q 124 333 66 281 q 305 399 183 386 l 488 422 l 488 522 q 466 639 488 597 q 402 698 444 681 q 294 715 360 715 q 202 707 251 715 q 105 682 153 699 l 105 729 q 196 753 144 744 q 294 761 247 761 m 277 35 q 391 63 336 35 q 488 153 447 91 l 488 375 l 303 353 q 162 303 207 343 q 117 190 117 263 q 158 74 117 113 q 277 35 199 35 m 402 1203 q 455 1216 431 1203 q 500 1253 478 1228 l 500 1207 q 402 1164 464 1164 q 356 1172 378 1164 q 305 1193 333 1179 q 261 1211 278 1206 q 227 1217 244 1217 q 174 1205 198 1217 q 130 1168 151 1193 l 130 1214 q 172 1246 147 1235 q 227 1257 197 1257 q 273 1249 251 1257 q 324 1228 296 1242 q 368 1209 351 1215 q 402 1203 385 1203 m 288 1122 l 341 1122 l 478 878 l 431 878 l 315 1092 l 199 878 l 151 878 l 288 1122 z "},"ȁ":{"ha":636,"x_min":66,"x_max":535,"o":"m 294 761 q 427 738 374 761 q 508 663 480 715 q 535 521 535 610 l 535 0 l 494 0 l 490 87 l 484 87 q 393 14 448 40 q 274 -11 338 -11 q 122 40 178 -11 q 66 185 66 92 q 124 333 66 281 q 305 399 183 386 l 488 422 l 488 522 q 466 639 488 597 q 402 698 444 681 q 294 715 360 715 q 202 707 251 715 q 105 682 153 699 l 105 729 q 196 753 144 744 q 294 761 247 761 m 277 35 q 391 63 336 35 q 488 153 447 91 l 488 375 l 303 353 q 162 303 207 343 q 117 190 117 263 q 158 74 117 113 q 277 35 199 35 m 199 878 l 117 1122 l 164 1122 l 240 878 l 199 878 m 390 878 l 308 1122 l 355 1122 l 430 878 l 390 878 z "},"ä":{"ha":636,"x_min":66,"x_max":535,"o":"m 294 761 q 427 738 374 761 q 508 663 480 715 q 535 521 535 610 l 535 0 l 494 0 l 490 87 l 484 87 q 393 14 448 40 q 274 -11 338 -11 q 122 40 178 -11 q 66 185 66 92 q 124 333 66 281 q 305 399 183 386 l 488 422 l 488 522 q 466 639 488 597 q 402 698 444 681 q 294 715 360 715 q 202 707 251 715 q 105 682 153 699 l 105 729 q 196 753 144 744 q 294 761 247 761 m 277 35 q 391 63 336 35 q 488 153 447 91 l 488 375 l 303 353 q 162 303 207 343 q 117 190 117 263 q 158 74 117 113 q 277 35 199 35 m 190 944 q 159 956 171 944 q 147 988 147 968 q 159 1019 147 1007 q 190 1032 171 1032 q 220 1019 208 1032 q 233 988 233 1007 q 220 956 233 968 q 190 944 208 944 m 440 944 q 409 956 421 944 q 397 988 397 968 q 409 1019 397 1007 q 440 1032 421 1032 q 470 1019 458 1032 q 483 988 483 1007 q 470 956 483 968 q 440 944 458 944 z "},"ạ":{"ha":636,"x_min":66,"x_max":535,"o":"m 294 761 q 427 738 374 761 q 508 663 480 715 q 535 521 535 610 l 535 0 l 494 0 l 490 87 l 484 87 q 393 14 448 40 q 274 -11 338 -11 q 122 40 178 -11 q 66 185 66 92 q 124 333 66 281 q 305 399 183 386 l 488 422 l 488 522 q 466 639 488 597 q 402 698 444 681 q 294 715 360 715 q 202 707 251 715 q 105 682 153 699 l 105 729 q 196 753 144 744 q 294 761 247 761 m 277 35 q 391 63 336 35 q 488 153 447 91 l 488 375 l 303 353 q 162 303 207 343 q 117 190 117 263 q 158 74 117 113 q 277 35 199 35 m 321 -215 q 290 -203 302 -215 q 278 -172 278 -192 q 290 -140 278 -153 q 321 -128 302 -128 q 352 -140 340 -128 q 364 -172 364 -153 q 352 -203 364 -192 q 321 -215 340 -215 z "},"à":{"ha":636,"x_min":66,"x_max":535,"o":"m 294 761 q 427 738 374 761 q 508 663 480 715 q 535 521 535 610 l 535 0 l 494 0 l 490 87 l 484 87 q 393 14 448 40 q 274 -11 338 -11 q 122 40 178 -11 q 66 185 66 92 q 124 333 66 281 q 305 399 183 386 l 488 422 l 488 522 q 466 639 488 597 q 402 698 444 681 q 294 715 360 715 q 202 707 251 715 q 105 682 153 699 l 105 729 q 196 753 144 744 q 294 761 247 761 m 277 35 q 391 63 336 35 q 488 153 447 91 l 488 375 l 303 353 q 162 303 207 343 q 117 190 117 263 q 158 74 117 113 q 277 35 199 35 m 294 878 l 160 1122 l 212 1122 l 335 878 l 294 878 z "},"ả":{"ha":636,"x_min":66,"x_max":535,"o":"m 294 761 q 427 738 374 761 q 508 663 480 715 q 535 521 535 610 l 535 0 l 494 0 l 490 87 l 484 87 q 393 14 448 40 q 274 -11 338 -11 q 122 40 178 -11 q 66 185 66 92 q 124 333 66 281 q 305 399 183 386 l 488 422 l 488 522 q 466 639 488 597 q 402 698 444 681 q 294 715 360 715 q 202 707 251 715 q 105 682 153 699 l 105 729 q 196 753 144 744 q 294 761 247 761 m 277 35 q 391 63 336 35 q 488 153 447 91 l 488 375 l 303 353 q 162 303 207 343 q 117 190 117 263 q 158 74 117 113 q 277 35 199 35 m 293 878 q 302 922 293 903 q 324 953 311 941 q 356 981 336 965 q 388 1009 377 997 q 399 1039 399 1021 q 379 1079 399 1066 q 315 1092 360 1092 q 263 1088 290 1092 q 215 1075 235 1083 l 215 1114 q 261 1126 234 1122 q 313 1131 288 1131 q 409 1107 377 1131 q 440 1040 440 1083 q 427 992 440 1010 q 387 954 414 974 q 349 920 361 935 q 336 878 336 904 l 293 878 z "},"ȃ":{"ha":636,"x_min":66,"x_max":535,"o":"m 294 761 q 427 738 374 761 q 508 663 480 715 q 535 521 535 610 l 535 0 l 494 0 l 490 87 l 484 87 q 393 14 448 40 q 274 -11 338 -11 q 122 40 178 -11 q 66 185 66 92 q 124 333 66 281 q 305 399 183 386 l 488 422 l 488 522 q 466 639 488 597 q 402 698 444 681 q 294 715 360 715 q 202 707 251 715 q 105 682 153 699 l 105 729 q 196 753 144 744 q 294 761 247 761 m 277 35 q 391 63 336 35 q 488 153 447 91 l 488 375 l 303 353 q 162 303 207 343 q 117 190 117 263 q 158 74 117 113 q 277 35 199 35 m 147 897 q 193 1059 150 1005 q 313 1114 236 1114 q 435 1059 390 1114 q 483 897 480 1003 l 443 897 q 406 1031 438 988 q 313 1074 374 1074 q 221 1031 253 1074 q 186 897 190 988 l 147 897 z "},"ā":{"ha":636,"x_min":66,"x_max":535,"o":"m 294 761 q 427 738 374 761 q 508 663 480 715 q 535 521 535 610 l 535 0 l 494 0 l 490 87 l 484 87 q 393 14 448 40 q 274 -11 338 -11 q 122 40 178 -11 q 66 185 66 92 q 124 333 66 281 q 305 399 183 386 l 488 422 l 488 522 q 466 639 488 597 q 402 698 444 681 q 294 715 360 715 q 202 707 251 715 q 105 682 153 699 l 105 729 q 196 753 144 744 q 294 761 247 761 m 277 35 q 391 63 336 35 q 488 153 447 91 l 488 375 l 303 353 q 162 303 207 343 q 117 190 117 263 q 158 74 117 113 q 277 35 199 35 m 130 968 l 130 1009 l 500 1009 l 500 968 l 130 968 z "},"ą":{"ha":636,"x_min":66,"x_max":607,"o":"m 508 -242 q 607 -211 560 -242 l 607 -250 q 561 -270 587 -263 q 509 -278 535 -278 q 416 -247 449 -278 q 382 -161 382 -216 q 409 -69 382 -112 q 493 16 435 -26 l 490 87 l 484 87 q 393 14 448 40 q 274 -11 338 -11 q 122 40 178 -11 q 66 185 66 92 q 124 333 66 281 q 305 399 183 386 l 488 422 l 488 522 q 466 639 488 597 q 402 698 444 681 q 294 715 360 715 q 202 707 251 715 q 105 682 153 699 l 105 729 q 196 753 144 744 q 294 761 247 761 q 427 738 374 761 q 508 663 480 715 q 535 521 535 610 l 535 0 q 448 -78 474 -41 q 421 -158 421 -115 q 444 -220 421 -199 q 508 -242 467 -242 m 277 35 q 391 63 336 35 q 488 153 447 91 l 488 375 l 303 353 q 162 303 207 343 q 117 190 117 263 q 158 74 117 113 q 277 35 199 35 z "},"å":{"ha":636,"x_min":66,"x_max":535,"o":"m 294 761 q 427 738 374 761 q 508 663 480 715 q 535 521 535 610 l 535 0 l 494 0 l 490 87 l 484 87 q 393 14 448 40 q 274 -11 338 -11 q 122 40 178 -11 q 66 185 66 92 q 124 333 66 281 q 305 399 183 386 l 488 422 l 488 522 q 466 639 488 597 q 402 698 444 681 q 294 715 360 715 q 202 707 251 715 q 105 682 153 699 l 105 729 q 196 753 144 744 q 294 761 247 761 m 277 35 q 391 63 336 35 q 488 153 447 91 l 488 375 l 303 353 q 162 303 207 343 q 117 190 117 263 q 158 74 117 113 q 277 35 199 35 m 315 875 q 249 892 278 875 q 203 938 220 908 q 187 1003 187 967 q 203 1068 187 1039 q 249 1114 220 1097 q 315 1131 278 1131 q 380 1114 351 1131 q 426 1068 409 1097 q 442 1003 442 1039 q 426 938 442 967 q 380 892 409 908 q 315 875 351 875 m 315 911 q 380 936 355 911 q 405 1003 405 960 q 380 1070 405 1045 q 315 1094 355 1094 q 249 1070 274 1094 q 224 1003 224 1045 q 249 936 224 960 q 315 911 274 911 z "},"ǻ":{"ha":636,"x_min":66,"x_max":535,"o":"m 294 761 q 427 738 374 761 q 508 663 480 715 q 535 521 535 610 l 535 0 l 494 0 l 490 87 l 484 87 q 393 14 448 40 q 274 -11 338 -11 q 122 40 178 -11 q 66 185 66 92 q 124 333 66 281 q 305 399 183 386 l 488 422 l 488 522 q 466 639 488 597 q 402 698 444 681 q 294 715 360 715 q 202 707 251 715 q 105 682 153 699 l 105 729 q 196 753 144 744 q 294 761 247 761 m 277 35 q 391 63 336 35 q 488 153 447 91 l 488 375 l 303 353 q 162 303 207 343 q 117 190 117 263 q 158 74 117 113 q 277 35 199 35 m 408 1092 q 434 1052 425 1075 q 442 1003 442 1029 q 426 938 442 967 q 380 892 409 908 q 315 875 351 875 q 249 892 278 875 q 203 938 220 908 q 187 1003 187 967 q 203 1068 187 1039 q 249 1114 220 1097 q 315 1131 278 1131 q 379 1115 351 1131 l 479 1236 l 533 1236 l 408 1092 m 315 911 q 380 936 355 911 q 405 1003 405 960 q 380 1070 405 1045 q 315 1094 355 1094 q 249 1070 274 1094 q 224 1003 224 1045 q 249 936 224 960 q 315 911 274 911 z "},"ã":{"ha":636,"x_min":66,"x_max":535,"o":"m 294 761 q 427 738 374 761 q 508 663 480 715 q 535 521 535 610 l 535 0 l 494 0 l 490 87 l 484 87 q 393 14 448 40 q 274 -11 338 -11 q 122 40 178 -11 q 66 185 66 92 q 124 333 66 281 q 305 399 183 386 l 488 422 l 488 522 q 466 639 488 597 q 402 698 444 681 q 294 715 360 715 q 202 707 251 715 q 105 682 153 699 l 105 729 q 196 753 144 744 q 294 761 247 761 m 277 35 q 391 63 336 35 q 488 153 447 91 l 488 375 l 303 353 q 162 303 207 343 q 117 190 117 263 q 158 74 117 113 q 277 35 199 35 m 402 958 q 356 966 378 958 q 305 988 333 974 q 261 1006 278 1000 q 227 1012 244 1012 q 174 1000 198 1012 q 130 963 151 988 l 130 1008 q 172 1040 147 1029 q 227 1051 197 1051 q 273 1044 251 1051 q 324 1022 296 1036 q 368 1004 351 1010 q 402 998 385 998 q 455 1010 431 998 q 500 1047 478 1022 l 500 1001 q 402 958 464 958 z "},"æ":{"ha":1048,"x_min":66,"x_max":990,"o":"m 990 354 l 535 354 q 567 166 538 237 q 651 64 596 95 q 788 33 706 33 q 956 65 859 33 l 956 18 q 785 -12 869 -12 q 627 23 691 -12 q 528 135 563 58 q 413 22 476 56 q 275 -11 349 -11 q 165 11 213 -11 q 92 78 118 34 q 66 183 66 122 q 129 342 66 284 q 327 400 192 400 l 488 400 l 488 525 q 466 640 488 598 q 402 698 444 681 q 294 715 360 715 q 202 707 251 715 q 105 682 153 699 l 105 729 q 196 753 144 744 q 294 761 247 761 q 450 725 393 761 q 524 606 506 689 q 740 763 581 763 q 925 671 860 763 q 990 376 990 580 l 990 354 m 740 717 q 592 644 645 717 q 535 400 538 571 l 940 400 q 914 589 938 519 q 846 688 889 658 q 740 717 803 717 m 278 35 q 408 71 347 35 q 510 189 468 107 q 488 354 490 256 l 325 354 q 117 188 117 354 q 159 74 117 113 q 278 35 201 35 z "},"ǽ":{"ha":1048,"x_min":66,"x_max":990,"o":"m 990 354 l 535 354 q 567 166 538 237 q 651 64 596 95 q 788 33 706 33 q 956 65 859 33 l 956 18 q 785 -12 869 -12 q 627 23 691 -12 q 528 135 563 58 q 413 22 476 56 q 275 -11 349 -11 q 165 11 213 -11 q 92 78 118 34 q 66 183 66 122 q 129 342 66 284 q 327 400 192 400 l 488 400 l 488 525 q 466 640 488 598 q 402 698 444 681 q 294 715 360 715 q 202 707 251 715 q 105 682 153 699 l 105 729 q 196 753 144 744 q 294 761 247 761 q 450 725 393 761 q 524 606 506 689 q 740 763 581 763 q 925 671 860 763 q 990 376 990 580 l 990 354 m 740 717 q 592 644 645 717 q 535 400 538 571 l 940 400 q 914 589 938 519 q 846 688 889 658 q 740 717 803 717 m 278 35 q 408 71 347 35 q 510 189 468 107 q 488 354 490 256 l 325 354 q 117 188 117 354 q 159 74 117 113 q 278 35 201 35 m 491 878 l 615 1122 l 667 1122 l 533 878 l 491 878 z "},"b":{"ha":690,"x_min":109,"x_max":622,"o":"m 287 -12 q 194 -5 242 -12 q 109 15 147 2 l 109 1122 l 156 1122 l 156 675 l 160 675 q 243 737 193 713 q 356 761 294 761 q 549 674 476 761 q 622 389 622 588 q 536 86 622 184 q 287 -12 450 -12 m 288 33 q 500 117 429 33 q 572 383 572 200 q 514 642 572 568 q 353 715 456 715 q 241 687 294 715 q 156 606 188 659 l 156 51 q 218 39 183 44 q 288 33 254 33 z "},"c":{"ha":531,"x_min":68,"x_max":514,"o":"m 349 -12 q 139 79 210 -12 q 68 375 68 170 q 103 599 68 514 q 208 723 139 684 q 381 761 277 761 q 514 744 454 761 l 514 697 q 383 715 446 715 q 233 684 291 715 q 147 578 176 652 q 118 378 118 505 q 144 174 118 250 q 223 66 171 99 q 355 33 274 33 q 514 65 426 33 l 514 18 q 349 -12 432 -12 z "},"ć":{"ha":531,"x_min":68,"x_max":514,"o":"m 349 -12 q 139 79 210 -12 q 68 375 68 170 q 103 599 68 514 q 208 723 139 684 q 381 761 277 761 q 514 744 454 761 l 514 697 q 383 715 446 715 q 233 684 291 715 q 147 578 176 652 q 118 378 118 505 q 144 174 118 250 q 223 66 171 99 q 355 33 274 33 q 514 65 426 33 l 514 18 q 349 -12 432 -12 m 301 878 l 424 1122 l 476 1122 l 342 878 l 301 878 z "},"č":{"ha":531,"x_min":68,"x_max":514,"o":"m 349 -12 q 139 79 210 -12 q 68 375 68 170 q 103 599 68 514 q 208 723 139 684 q 381 761 277 761 q 514 744 454 761 l 514 697 q 383 715 446 715 q 233 684 291 715 q 147 578 176 652 q 118 378 118 505 q 144 174 118 250 q 223 66 171 99 q 355 33 274 33 q 514 65 426 33 l 514 18 q 349 -12 432 -12 m 440 1122 l 486 1122 l 348 878 l 295 878 l 157 1122 l 204 1122 l 322 908 l 440 1122 z "},"ç":{"ha":531,"x_min":68,"x_max":514,"o":"m 383 715 q 233 684 291 715 q 147 578 176 652 q 118 378 118 505 q 144 174 118 250 q 223 66 171 99 q 355 33 274 33 q 514 65 426 33 l 514 18 q 349 -12 432 -12 l 342 -12 l 342 -80 q 415 -110 390 -84 q 440 -179 440 -135 q 409 -251 440 -224 q 322 -278 377 -278 q 264 -272 293 -278 q 215 -253 235 -265 l 215 -215 q 324 -242 266 -242 q 402 -179 402 -242 q 323 -114 402 -114 l 303 -114 l 303 -10 q 127 95 186 3 q 68 375 68 188 q 103 599 68 514 q 208 723 139 684 q 381 761 277 761 q 514 744 454 761 l 514 697 q 383 715 446 715 z "},"ḉ":{"ha":531,"x_min":68,"x_max":514,"o":"m 476 1122 l 342 878 l 301 878 l 424 1122 l 476 1122 m 383 715 q 233 684 291 715 q 147 578 176 652 q 118 378 118 505 q 144 174 118 250 q 223 66 171 99 q 355 33 274 33 q 514 65 426 33 l 514 18 q 349 -12 432 -12 l 342 -12 l 342 -80 q 415 -110 390 -84 q 440 -179 440 -135 q 409 -251 440 -224 q 322 -278 377 -278 q 264 -272 293 -278 q 215 -253 235 -265 l 215 -215 q 324 -242 266 -242 q 402 -179 402 -242 q 323 -114 402 -114 l 303 -114 l 303 -10 q 127 95 186 3 q 68 375 68 188 q 103 599 68 514 q 208 723 139 684 q 381 761 277 761 q 514 744 454 761 l 514 697 q 383 715 446 715 z "},"ĉ":{"ha":531,"x_min":68,"x_max":514,"o":"m 349 -12 q 139 79 210 -12 q 68 375 68 170 q 103 599 68 514 q 208 723 139 684 q 381 761 277 761 q 514 744 454 761 l 514 697 q 383 715 446 715 q 233 684 291 715 q 147 578 176 652 q 118 378 118 505 q 144 174 118 250 q 223 66 171 99 q 355 33 274 33 q 514 65 426 33 l 514 18 q 349 -12 432 -12 m 485 878 l 438 878 l 322 1092 l 206 878 l 158 878 l 295 1122 l 348 1122 l 485 878 z "},"ċ":{"ha":531,"x_min":68,"x_max":514,"o":"m 349 -12 q 139 79 210 -12 q 68 375 68 170 q 103 599 68 514 q 208 723 139 684 q 381 761 277 761 q 514 744 454 761 l 514 697 q 383 715 446 715 q 233 684 291 715 q 147 578 176 652 q 118 378 118 505 q 144 174 118 250 q 223 66 171 99 q 355 33 274 33 q 514 65 426 33 l 514 18 q 349 -12 432 -12 m 322 944 q 291 956 303 944 q 278 988 278 968 q 291 1019 278 1007 q 322 1032 303 1032 q 352 1019 340 1032 q 365 988 365 1007 q 352 956 365 968 q 322 944 340 944 z "},"d":{"ha":690,"x_min":68,"x_max":581,"o":"m 337 -12 q 141 75 215 -12 q 68 360 68 162 q 155 663 68 565 q 408 761 241 761 q 533 751 468 761 l 533 1122 l 581 1122 l 581 0 l 539 0 l 535 78 l 529 78 q 447 13 497 38 q 337 -12 397 -12 m 338 33 q 449 63 397 33 q 533 148 502 92 l 533 703 q 473 712 508 708 q 406 715 438 715 q 190 632 262 715 q 118 365 118 549 q 146 166 118 239 q 222 63 174 92 q 338 33 270 33 z "},"ð":{"ha":684,"x_min":68,"x_max":615,"o":"m 457 924 q 572 668 530 807 q 615 396 615 530 q 543 87 615 187 q 344 -12 472 -12 q 141 80 213 -12 q 68 375 68 173 q 140 669 68 576 q 342 761 212 761 q 439 745 395 761 q 517 689 483 728 q 410 916 477 815 l 138 871 l 132 911 l 384 953 q 219 1122 314 1047 l 283 1122 q 433 961 363 1062 l 594 988 l 601 947 l 457 924 m 344 33 q 507 115 449 33 q 566 373 566 197 q 539 576 566 500 q 463 683 513 651 q 342 715 414 715 q 176 638 233 715 q 118 378 118 561 q 145 174 118 251 q 222 66 172 98 q 344 33 272 33 z "},"ď":{"ha":690,"x_min":68,"x_max":701,"o":"m 337 -12 q 141 75 215 -12 q 68 360 68 162 q 155 663 68 565 q 408 761 241 761 q 533 751 468 761 l 533 1122 l 581 1122 l 581 0 l 539 0 l 535 78 l 529 78 q 447 13 497 38 q 337 -12 397 -12 m 338 33 q 449 63 397 33 q 533 148 502 92 l 533 703 q 473 712 508 708 q 406 715 438 715 q 190 632 262 715 q 118 365 118 549 q 146 166 118 239 q 222 63 174 92 q 338 33 270 33 m 644 819 q 657 1122 657 929 l 701 1122 q 676 819 701 947 l 644 819 z "},"đ":{"ha":690,"x_min":68,"x_max":684,"o":"m 684 921 l 581 921 l 581 0 l 539 0 l 535 78 l 529 78 q 447 13 497 38 q 337 -12 397 -12 q 141 75 215 -12 q 68 360 68 162 q 155 663 68 565 q 408 761 241 761 q 533 751 468 761 l 533 921 l 303 921 l 303 963 l 533 963 l 533 1122 l 581 1122 l 581 963 l 684 963 l 684 921 m 533 703 q 473 712 508 708 q 406 715 438 715 q 190 632 262 715 q 118 365 118 549 q 146 166 118 239 q 222 63 174 92 q 338 33 270 33 q 449 63 397 33 q 533 148 502 92 l 533 703 z "},"ḍ":{"ha":690,"x_min":68,"x_max":581,"o":"m 337 -12 q 141 75 215 -12 q 68 360 68 162 q 155 663 68 565 q 408 761 241 761 q 533 751 468 761 l 533 1122 l 581 1122 l 581 0 l 539 0 l 535 78 l 529 78 q 447 13 497 38 q 337 -12 397 -12 m 338 33 q 449 63 397 33 q 533 148 502 92 l 533 703 q 473 712 508 708 q 406 715 438 715 q 190 632 262 715 q 118 365 118 549 q 146 166 118 239 q 222 63 174 92 q 338 33 270 33 m 343 -215 q 312 -203 324 -215 q 300 -172 300 -192 q 312 -140 300 -153 q 343 -128 324 -128 q 374 -140 362 -128 q 386 -172 386 -153 q 374 -203 386 -192 q 343 -215 362 -215 z "},"ḏ":{"ha":690,"x_min":68,"x_max":581,"o":"m 337 -12 q 141 75 215 -12 q 68 360 68 162 q 155 663 68 565 q 408 761 241 761 q 533 751 468 761 l 533 1122 l 581 1122 l 581 0 l 539 0 l 535 78 l 529 78 q 447 13 497 38 q 337 -12 397 -12 m 338 33 q 449 63 397 33 q 533 148 502 92 l 533 703 q 473 712 508 708 q 406 715 438 715 q 190 632 262 715 q 118 365 118 549 q 146 166 118 239 q 222 63 174 92 q 338 33 270 33 m 180 -192 l 180 -152 l 506 -152 l 506 -192 l 180 -192 z "},"ǳ":{"ha":1248,"x_min":68,"x_max":1210,"o":"m 337 -12 q 141 75 215 -12 q 68 360 68 162 q 155 663 68 565 q 408 761 241 761 q 533 751 468 761 l 533 1122 l 581 1122 l 581 0 l 539 0 l 535 78 l 529 78 q 447 13 497 38 q 337 -12 397 -12 m 338 33 q 449 63 397 33 q 533 148 502 92 l 533 703 q 473 712 508 708 q 406 715 438 715 q 190 632 262 715 q 118 365 118 549 q 146 166 118 239 q 222 63 174 92 q 338 33 270 33 m 792 44 l 1210 44 l 1210 0 l 730 0 l 730 28 l 1140 706 l 738 706 l 738 750 l 1203 750 l 1203 722 l 792 44 z "},"ǆ":{"ha":1248,"x_min":68,"x_max":1210,"o":"m 337 -12 q 141 75 215 -12 q 68 360 68 162 q 155 663 68 565 q 408 761 241 761 q 533 751 468 761 l 533 1122 l 581 1122 l 581 0 l 539 0 l 535 78 l 529 78 q 447 13 497 38 q 337 -12 397 -12 m 338 33 q 449 63 397 33 q 533 148 502 92 l 533 703 q 473 712 508 708 q 406 715 438 715 q 190 632 262 715 q 118 365 118 549 q 146 166 118 239 q 222 63 174 92 q 338 33 270 33 m 792 44 l 1210 44 l 1210 0 l 730 0 l 730 28 l 1140 706 l 738 706 l 738 750 l 1203 750 l 1203 722 l 792 44 m 1089 1122 l 1135 1122 l 997 878 l 944 878 l 806 1122 l 853 1122 l 972 908 l 1089 1122 z "},"e":{"ha":636,"x_min":68,"x_max":578,"o":"m 578 354 l 118 354 q 150 166 120 237 q 235 64 179 95 q 374 33 290 33 q 544 65 446 33 l 544 18 q 371 -12 457 -12 q 144 78 220 -12 q 68 375 68 169 q 138 668 68 576 q 328 761 207 761 q 514 670 449 761 q 578 375 578 578 l 578 354 m 328 715 q 176 643 231 715 q 118 400 121 570 l 528 400 q 475 643 526 571 q 328 715 424 715 z "},"é":{"ha":636,"x_min":68,"x_max":578,"o":"m 578 354 l 118 354 q 150 166 120 237 q 235 64 179 95 q 374 33 290 33 q 544 65 446 33 l 544 18 q 371 -12 457 -12 q 144 78 220 -12 q 68 375 68 169 q 138 668 68 576 q 328 761 207 761 q 514 670 449 761 q 578 375 578 578 l 578 354 m 328 715 q 176 643 231 715 q 118 400 121 570 l 528 400 q 475 643 526 571 q 328 715 424 715 m 306 878 l 430 1122 l 482 1122 l 348 878 l 306 878 z "},"ĕ":{"ha":636,"x_min":68,"x_max":578,"o":"m 578 354 l 118 354 q 150 166 120 237 q 235 64 179 95 q 374 33 290 33 q 544 65 446 33 l 544 18 q 371 -12 457 -12 q 144 78 220 -12 q 68 375 68 169 q 138 668 68 576 q 328 761 207 761 q 514 670 449 761 q 578 375 578 578 l 578 354 m 328 715 q 176 643 231 715 q 118 400 121 570 l 528 400 q 475 643 526 571 q 328 715 424 715 m 328 886 q 207 942 251 886 q 159 1103 163 998 l 199 1103 q 236 969 203 1012 q 328 926 268 926 q 421 969 390 926 q 456 1103 452 1012 l 495 1103 q 449 941 492 997 q 328 886 406 886 z "},"ě":{"ha":636,"x_min":68,"x_max":578,"o":"m 578 354 l 118 354 q 150 166 120 237 q 235 64 179 95 q 374 33 290 33 q 544 65 446 33 l 544 18 q 371 -12 457 -12 q 144 78 220 -12 q 68 375 68 169 q 138 668 68 576 q 328 761 207 761 q 514 670 449 761 q 578 375 578 578 l 578 354 m 328 715 q 176 643 231 715 q 118 400 121 570 l 528 400 q 475 643 526 571 q 328 715 424 715 m 445 1122 l 492 1122 l 353 878 l 301 878 l 163 1122 l 210 1122 l 328 908 l 445 1122 z "},"ḝ":{"ha":636,"x_min":68,"x_max":578,"o":"m 328 886 q 207 942 251 886 q 159 1103 163 998 l 199 1103 q 236 969 203 1012 q 328 926 268 926 q 421 969 390 926 q 456 1103 452 1012 l 495 1103 q 449 941 492 997 q 328 886 406 886 m 578 354 l 118 354 q 150 166 120 237 q 235 64 179 95 q 374 33 290 33 q 544 65 446 33 l 544 18 q 371 -12 457 -12 q 348 -12 356 -12 l 348 -80 q 421 -110 396 -84 q 447 -179 447 -135 q 415 -251 447 -224 q 328 -278 383 -278 q 270 -272 299 -278 q 221 -253 241 -265 l 221 -215 q 331 -242 272 -242 q 408 -179 408 -242 q 329 -114 408 -114 l 309 -114 l 309 -8 q 129 100 190 8 q 68 375 68 192 q 138 668 68 576 q 328 761 207 761 q 514 670 449 761 q 578 375 578 578 l 578 354 m 328 715 q 176 643 231 715 q 118 400 121 570 l 528 400 q 475 643 526 571 q 328 715 424 715 z "},"ê":{"ha":636,"x_min":68,"x_max":578,"o":"m 578 354 l 118 354 q 150 166 120 237 q 235 64 179 95 q 374 33 290 33 q 544 65 446 33 l 544 18 q 371 -12 457 -12 q 144 78 220 -12 q 68 375 68 169 q 138 668 68 576 q 328 761 207 761 q 514 670 449 761 q 578 375 578 578 l 578 354 m 328 715 q 176 643 231 715 q 118 400 121 570 l 528 400 q 475 643 526 571 q 328 715 424 715 m 490 878 l 444 878 l 328 1092 l 211 878 l 164 878 l 301 1122 l 353 1122 l 490 878 z "},"ế":{"ha":636,"x_min":68,"x_max":617,"o":"m 578 354 l 118 354 q 150 166 120 237 q 235 64 179 95 q 374 33 290 33 q 544 65 446 33 l 544 18 q 371 -12 457 -12 q 144 78 220 -12 q 68 375 68 169 q 138 668 68 576 q 328 761 207 761 q 514 670 449 761 q 578 375 578 578 l 578 354 m 328 715 q 176 643 231 715 q 118 400 121 570 l 528 400 q 475 643 526 571 q 328 715 424 715 m 564 1297 l 617 1297 l 501 1108 l 459 1108 l 564 1297 m 301 1122 l 353 1122 l 490 878 l 444 878 l 328 1092 l 211 878 l 164 878 l 301 1122 z "},"ệ":{"ha":636,"x_min":68,"x_max":578,"o":"m 578 354 l 118 354 q 150 166 120 237 q 235 64 179 95 q 374 33 290 33 q 544 65 446 33 l 544 18 q 371 -12 457 -12 q 144 78 220 -12 q 68 375 68 169 q 138 668 68 576 q 328 761 207 761 q 514 670 449 761 q 578 375 578 578 l 578 354 m 328 715 q 176 643 231 715 q 118 400 121 570 l 528 400 q 475 643 526 571 q 328 715 424 715 m 327 -215 q 296 -203 308 -215 q 284 -172 284 -192 q 296 -140 284 -153 q 327 -128 308 -128 q 358 -140 346 -128 q 370 -172 370 -153 q 358 -203 370 -192 q 327 -215 346 -215 m 490 878 l 444 878 l 328 1092 l 211 878 l 164 878 l 301 1122 l 353 1122 l 490 878 z "},"ề":{"ha":636,"x_min":68,"x_max":578,"o":"m 578 354 l 118 354 q 150 166 120 237 q 235 64 179 95 q 374 33 290 33 q 544 65 446 33 l 544 18 q 371 -12 457 -12 q 144 78 220 -12 q 68 375 68 169 q 138 668 68 576 q 328 761 207 761 q 514 670 449 761 q 578 375 578 578 l 578 354 m 328 715 q 176 643 231 715 q 118 400 121 570 l 528 400 q 475 643 526 571 q 328 715 424 715 m 505 1108 l 463 1108 l 347 1297 l 400 1297 l 505 1108 m 301 1122 l 353 1122 l 490 878 l 444 878 l 328 1092 l 211 878 l 164 878 l 301 1122 z "},"ể":{"ha":636,"x_min":68,"x_max":600,"o":"m 578 354 l 118 354 q 150 166 120 237 q 235 64 179 95 q 374 33 290 33 q 544 65 446 33 l 544 18 q 371 -12 457 -12 q 144 78 220 -12 q 68 375 68 169 q 138 668 68 576 q 328 761 207 761 q 514 670 449 761 q 578 375 578 578 l 578 354 m 328 715 q 176 643 231 715 q 118 400 121 570 l 528 400 q 475 643 526 571 q 328 715 424 715 m 478 1297 q 569 1277 538 1297 q 600 1224 600 1257 q 585 1183 600 1197 q 540 1156 569 1169 q 504 1134 516 1144 q 490 1108 492 1125 l 448 1108 q 466 1151 449 1137 q 513 1179 483 1166 q 548 1199 536 1190 q 559 1224 559 1208 q 541 1250 559 1241 q 478 1260 523 1260 q 348 1234 410 1260 l 348 1272 q 408 1291 374 1284 q 478 1297 442 1297 m 301 1122 l 353 1122 l 490 878 l 444 878 l 328 1092 l 211 878 l 164 878 l 301 1122 z "},"ễ":{"ha":636,"x_min":68,"x_max":578,"o":"m 578 354 l 118 354 q 150 166 120 237 q 235 64 179 95 q 374 33 290 33 q 544 65 446 33 l 544 18 q 371 -12 457 -12 q 144 78 220 -12 q 68 375 68 169 q 138 668 68 576 q 328 761 207 761 q 514 670 449 761 q 578 375 578 578 l 578 354 m 328 715 q 176 643 231 715 q 118 400 121 570 l 528 400 q 475 643 526 571 q 328 715 424 715 m 415 1203 q 467 1216 444 1203 q 513 1253 491 1228 l 513 1207 q 415 1164 476 1164 q 368 1172 391 1164 q 317 1193 346 1179 q 274 1211 291 1206 q 240 1217 256 1217 q 187 1205 210 1217 q 142 1168 163 1193 l 142 1214 q 184 1246 159 1235 q 240 1257 209 1257 q 286 1249 263 1257 q 337 1228 308 1242 q 381 1209 363 1215 q 415 1203 398 1203 m 301 1122 l 353 1122 l 490 878 l 444 878 l 328 1092 l 211 878 l 164 878 l 301 1122 z "},"ȅ":{"ha":636,"x_min":68,"x_max":578,"o":"m 578 354 l 118 354 q 150 166 120 237 q 235 64 179 95 q 374 33 290 33 q 544 65 446 33 l 544 18 q 371 -12 457 -12 q 144 78 220 -12 q 68 375 68 169 q 138 668 68 576 q 328 761 207 761 q 514 670 449 761 q 578 375 578 578 l 578 354 m 328 715 q 176 643 231 715 q 118 400 121 570 l 528 400 q 475 643 526 571 q 328 715 424 715 m 212 878 l 129 1122 l 176 1122 l 252 878 l 212 878 m 403 878 l 320 1122 l 367 1122 l 442 878 l 403 878 z "},"ë":{"ha":636,"x_min":68,"x_max":578,"o":"m 578 354 l 118 354 q 150 166 120 237 q 235 64 179 95 q 374 33 290 33 q 544 65 446 33 l 544 18 q 371 -12 457 -12 q 144 78 220 -12 q 68 375 68 169 q 138 668 68 576 q 328 761 207 761 q 514 670 449 761 q 578 375 578 578 l 578 354 m 328 715 q 176 643 231 715 q 118 400 121 570 l 528 400 q 475 643 526 571 q 328 715 424 715 m 202 944 q 171 956 183 944 q 159 988 159 968 q 171 1019 159 1007 q 202 1032 183 1032 q 233 1019 221 1032 q 245 988 245 1007 q 233 956 245 968 q 202 944 221 944 m 452 944 q 421 956 433 944 q 409 988 409 968 q 421 1019 409 1007 q 452 1032 433 1032 q 483 1019 471 1032 q 495 988 495 1007 q 483 956 495 968 q 452 944 471 944 z "},"ė":{"ha":636,"x_min":68,"x_max":578,"o":"m 578 354 l 118 354 q 150 166 120 237 q 235 64 179 95 q 374 33 290 33 q 544 65 446 33 l 544 18 q 371 -12 457 -12 q 144 78 220 -12 q 68 375 68 169 q 138 668 68 576 q 328 761 207 761 q 514 670 449 761 q 578 375 578 578 l 578 354 m 328 715 q 176 643 231 715 q 118 400 121 570 l 528 400 q 475 643 526 571 q 328 715 424 715 m 327 944 q 296 956 308 944 q 284 988 284 968 q 296 1019 284 1007 q 327 1032 308 1032 q 358 1019 346 1032 q 370 988 370 1007 q 358 956 370 968 q 327 944 346 944 z "},"ẹ":{"ha":636,"x_min":68,"x_max":578,"o":"m 578 354 l 118 354 q 150 166 120 237 q 235 64 179 95 q 374 33 290 33 q 544 65 446 33 l 544 18 q 371 -12 457 -12 q 144 78 220 -12 q 68 375 68 169 q 138 668 68 576 q 328 761 207 761 q 514 670 449 761 q 578 375 578 578 l 578 354 m 328 715 q 176 643 231 715 q 118 400 121 570 l 528 400 q 475 643 526 571 q 328 715 424 715 m 327 -215 q 296 -203 308 -215 q 284 -172 284 -192 q 296 -140 284 -153 q 327 -128 308 -128 q 358 -140 346 -128 q 370 -172 370 -153 q 358 -203 370 -192 q 327 -215 346 -215 z "},"è":{"ha":636,"x_min":68,"x_max":578,"o":"m 578 354 l 118 354 q 150 166 120 237 q 235 64 179 95 q 374 33 290 33 q 544 65 446 33 l 544 18 q 371 -12 457 -12 q 144 78 220 -12 q 68 375 68 169 q 138 668 68 576 q 328 761 207 761 q 514 670 449 761 q 578 375 578 578 l 578 354 m 328 715 q 176 643 231 715 q 118 400 121 570 l 528 400 q 475 643 526 571 q 328 715 424 715 m 306 878 l 172 1122 l 224 1122 l 348 878 l 306 878 z "},"ẻ":{"ha":636,"x_min":68,"x_max":578,"o":"m 578 354 l 118 354 q 150 166 120 237 q 235 64 179 95 q 374 33 290 33 q 544 65 446 33 l 544 18 q 371 -12 457 -12 q 144 78 220 -12 q 68 375 68 169 q 138 668 68 576 q 328 761 207 761 q 514 670 449 761 q 578 375 578 578 l 578 354 m 328 715 q 176 643 231 715 q 118 400 121 570 l 528 400 q 475 643 526 571 q 328 715 424 715 m 306 878 q 315 922 306 903 q 336 953 324 941 q 368 981 349 965 q 400 1009 390 997 q 411 1039 411 1021 q 392 1079 411 1066 q 328 1092 372 1092 q 275 1088 303 1092 q 227 1075 248 1083 l 227 1114 q 273 1126 247 1122 q 326 1131 300 1131 q 421 1107 390 1131 q 453 1040 453 1083 q 440 992 453 1010 q 399 954 426 974 q 361 920 374 935 q 349 878 349 904 l 306 878 z "},"ȇ":{"ha":636,"x_min":68,"x_max":578,"o":"m 578 354 l 118 354 q 150 166 120 237 q 235 64 179 95 q 374 33 290 33 q 544 65 446 33 l 544 18 q 371 -12 457 -12 q 144 78 220 -12 q 68 375 68 169 q 138 668 68 576 q 328 761 207 761 q 514 670 449 761 q 578 375 578 578 l 578 354 m 328 715 q 176 643 231 715 q 118 400 121 570 l 528 400 q 475 643 526 571 q 328 715 424 715 m 159 897 q 206 1059 163 1005 q 326 1114 249 1114 q 448 1059 403 1114 q 495 897 492 1003 l 456 897 q 419 1031 451 988 q 326 1074 387 1074 q 234 1031 265 1074 q 199 897 202 988 l 159 897 z "},"ē":{"ha":636,"x_min":68,"x_max":578,"o":"m 578 354 l 118 354 q 150 166 120 237 q 235 64 179 95 q 374 33 290 33 q 544 65 446 33 l 544 18 q 371 -12 457 -12 q 144 78 220 -12 q 68 375 68 169 q 138 668 68 576 q 328 761 207 761 q 514 670 449 761 q 578 375 578 578 l 578 354 m 328 715 q 176 643 231 715 q 118 400 121 570 l 528 400 q 475 643 526 571 q 328 715 424 715 m 142 968 l 142 1009 l 513 1009 l 513 968 l 142 968 z "},"ḗ":{"ha":636,"x_min":68,"x_max":578,"o":"m 578 354 l 118 354 q 150 166 120 237 q 235 64 179 95 q 374 33 290 33 q 544 65 446 33 l 544 18 q 371 -12 457 -12 q 144 78 220 -12 q 68 375 68 169 q 138 668 68 576 q 328 761 207 761 q 514 670 449 761 q 578 375 578 578 l 578 354 m 328 715 q 176 643 231 715 q 118 400 121 570 l 528 400 q 475 643 526 571 q 328 715 424 715 m 142 968 l 142 1009 l 513 1009 l 513 968 l 142 968 m 306 1108 l 412 1297 l 464 1297 l 348 1108 l 306 1108 z "},"ḕ":{"ha":636,"x_min":68,"x_max":578,"o":"m 578 354 l 118 354 q 150 166 120 237 q 235 64 179 95 q 374 33 290 33 q 544 65 446 33 l 544 18 q 371 -12 457 -12 q 144 78 220 -12 q 68 375 68 169 q 138 668 68 576 q 328 761 207 761 q 514 670 449 761 q 578 375 578 578 l 578 354 m 328 715 q 176 643 231 715 q 118 400 121 570 l 528 400 q 475 643 526 571 q 328 715 424 715 m 142 968 l 142 1009 l 513 1009 l 513 968 l 142 968 m 306 1108 l 190 1297 l 243 1297 l 348 1108 l 306 1108 z "},"ę":{"ha":636,"x_min":68,"x_max":578,"o":"m 578 354 l 118 354 q 150 166 120 237 q 235 64 179 95 q 374 33 290 33 q 544 65 446 33 l 544 18 q 398 -62 439 -17 q 358 -158 358 -108 q 381 -220 358 -198 q 444 -242 403 -242 q 544 -211 497 -242 l 544 -250 q 498 -270 524 -263 q 447 -278 472 -278 q 353 -247 387 -278 q 319 -161 319 -216 q 341 -78 319 -116 q 406 -11 363 -40 q 371 -12 383 -12 q 144 78 220 -12 q 68 375 68 169 q 138 668 68 576 q 328 761 207 761 q 514 670 449 761 q 578 375 578 578 l 578 354 m 328 715 q 176 643 231 715 q 118 400 121 570 l 528 400 q 475 643 526 571 q 328 715 424 715 z "},"ẽ":{"ha":636,"x_min":68,"x_max":578,"o":"m 578 354 l 118 354 q 150 166 120 237 q 235 64 179 95 q 374 33 290 33 q 544 65 446 33 l 544 18 q 371 -12 457 -12 q 144 78 220 -12 q 68 375 68 169 q 138 668 68 576 q 328 761 207 761 q 514 670 449 761 q 578 375 578 578 l 578 354 m 328 715 q 176 643 231 715 q 118 400 121 570 l 528 400 q 475 643 526 571 q 328 715 424 715 m 415 958 q 368 966 391 958 q 317 988 346 974 q 274 1006 291 1000 q 240 1012 256 1012 q 187 1000 210 1012 q 142 963 163 988 l 142 1008 q 184 1040 159 1029 q 240 1051 209 1051 q 286 1044 263 1051 q 337 1022 308 1036 q 381 1004 363 1010 q 415 998 398 998 q 467 1010 444 998 q 513 1047 491 1022 l 513 1001 q 415 958 476 958 z "},"ə":{"ha":636,"x_min":58,"x_max":568,"o":"m 265 763 q 492 672 416 763 q 568 375 568 581 q 499 82 568 174 q 308 -11 429 -11 q 122 80 187 -11 q 58 375 58 172 l 58 396 l 518 396 q 486 584 516 513 q 401 686 457 655 q 263 717 346 717 q 92 685 190 717 l 92 732 q 265 763 180 763 m 308 35 q 460 107 405 35 q 518 350 515 180 l 108 350 q 161 107 110 179 q 308 35 213 35 z "},"f":{"ha":427,"x_min":8,"x_max":460,"o":"m 367 1090 q 242 1050 283 1090 q 201 919 201 1010 l 201 750 l 434 750 l 434 706 l 201 706 l 201 0 l 154 0 l 154 706 l 8 706 l 8 750 l 154 750 l 154 919 q 369 1136 154 1136 q 460 1128 419 1136 l 460 1081 q 367 1090 415 1090 z "},"g":{"ha":690,"x_min":68,"x_max":581,"o":"m 298 -319 q 202 -311 253 -319 q 112 -287 151 -302 l 112 -240 q 299 -274 209 -274 q 431 -249 379 -274 q 508 -169 482 -225 q 533 -20 533 -113 l 533 74 l 529 74 q 445 12 496 36 q 333 -12 395 -12 q 141 74 214 -12 q 68 360 68 161 q 403 761 68 761 q 495 754 447 761 q 581 734 544 747 l 581 -17 q 510 -249 581 -178 q 298 -319 440 -319 m 336 33 q 448 62 394 33 q 533 144 501 90 l 533 699 q 470 711 506 706 q 401 715 435 715 q 189 632 260 715 q 118 365 118 549 q 176 107 118 181 q 336 33 234 33 z "},"ǵ":{"ha":690,"x_min":68,"x_max":581,"o":"m 298 -319 q 202 -311 253 -319 q 112 -287 151 -302 l 112 -240 q 299 -274 209 -274 q 431 -249 379 -274 q 508 -169 482 -225 q 533 -20 533 -113 l 533 74 l 529 74 q 445 12 496 36 q 333 -12 395 -12 q 141 74 214 -12 q 68 360 68 161 q 403 761 68 761 q 495 754 447 761 q 581 734 544 747 l 581 -17 q 510 -249 581 -178 q 298 -319 440 -319 m 336 33 q 448 62 394 33 q 533 144 501 90 l 533 699 q 470 711 506 706 q 401 715 435 715 q 189 632 260 715 q 118 365 118 549 q 176 107 118 181 q 336 33 234 33 m 337 878 l 460 1122 l 513 1122 l 378 878 l 337 878 z "},"ğ":{"ha":690,"x_min":68,"x_max":581,"o":"m 298 -319 q 202 -311 253 -319 q 112 -287 151 -302 l 112 -240 q 299 -274 209 -274 q 431 -249 379 -274 q 508 -169 482 -225 q 533 -20 533 -113 l 533 74 l 529 74 q 445 12 496 36 q 333 -12 395 -12 q 141 74 214 -12 q 68 360 68 161 q 403 761 68 761 q 495 754 447 761 q 581 734 544 747 l 581 -17 q 510 -249 581 -178 q 298 -319 440 -319 m 336 33 q 448 62 394 33 q 533 144 501 90 l 533 699 q 470 711 506 706 q 401 715 435 715 q 189 632 260 715 q 118 365 118 549 q 176 107 118 181 q 336 33 234 33 m 359 886 q 238 942 282 886 q 190 1103 193 998 l 229 1103 q 266 969 234 1012 q 359 926 299 926 q 451 969 420 926 q 486 1103 483 1012 l 526 1103 q 480 941 523 997 q 359 886 436 886 z "},"ǧ":{"ha":690,"x_min":68,"x_max":581,"o":"m 298 -319 q 202 -311 253 -319 q 112 -287 151 -302 l 112 -240 q 299 -274 209 -274 q 431 -249 379 -274 q 508 -169 482 -225 q 533 -20 533 -113 l 533 74 l 529 74 q 445 12 496 36 q 333 -12 395 -12 q 141 74 214 -12 q 68 360 68 161 q 403 761 68 761 q 495 754 447 761 q 581 734 544 747 l 581 -17 q 510 -249 581 -178 q 298 -319 440 -319 m 336 33 q 448 62 394 33 q 533 144 501 90 l 533 699 q 470 711 506 706 q 401 715 435 715 q 189 632 260 715 q 118 365 118 549 q 176 107 118 181 q 336 33 234 33 m 476 1122 l 522 1122 l 384 878 l 331 878 l 193 1122 l 240 1122 l 358 908 l 476 1122 z "},"ĝ":{"ha":690,"x_min":68,"x_max":581,"o":"m 298 -319 q 202 -311 253 -319 q 112 -287 151 -302 l 112 -240 q 299 -274 209 -274 q 431 -249 379 -274 q 508 -169 482 -225 q 533 -20 533 -113 l 533 74 l 529 74 q 445 12 496 36 q 333 -12 395 -12 q 141 74 214 -12 q 68 360 68 161 q 403 761 68 761 q 495 754 447 761 q 581 734 544 747 l 581 -17 q 510 -249 581 -178 q 298 -319 440 -319 m 336 33 q 448 62 394 33 q 533 144 501 90 l 533 699 q 470 711 506 706 q 401 715 435 715 q 189 632 260 715 q 118 365 118 549 q 176 107 118 181 q 336 33 234 33 m 521 878 l 474 878 l 358 1092 l 242 878 l 194 878 l 331 1122 l 384 1122 l 521 878 z "},"ģ":{"ha":690,"x_min":68,"x_max":581,"o":"m 298 -319 q 202 -311 253 -319 q 112 -287 151 -302 l 112 -240 q 299 -274 209 -274 q 431 -249 379 -274 q 508 -169 482 -225 q 533 -20 533 -113 l 533 74 l 529 74 q 445 12 496 36 q 333 -12 395 -12 q 141 74 214 -12 q 68 360 68 161 q 403 761 68 761 q 495 754 447 761 q 581 734 544 747 l 581 -17 q 510 -249 581 -178 q 298 -319 440 -319 m 336 33 q 448 62 394 33 q 533 144 501 90 l 533 699 q 470 711 506 706 q 401 715 435 715 q 189 632 260 715 q 118 365 118 549 q 176 107 118 181 q 336 33 234 33 m 358 1032 q 389 1019 376 1032 q 401 988 401 1007 q 389 957 401 969 q 360 944 378 944 q 327 960 339 944 q 315 1004 315 975 q 322 1064 315 1031 q 345 1128 330 1097 l 376 1128 q 353 1032 356 1078 l 358 1032 z "},"ġ":{"ha":690,"x_min":68,"x_max":581,"o":"m 298 -319 q 202 -311 253 -319 q 112 -287 151 -302 l 112 -240 q 299 -274 209 -274 q 431 -249 379 -274 q 508 -169 482 -225 q 533 -20 533 -113 l 533 74 l 529 74 q 445 12 496 36 q 333 -12 395 -12 q 141 74 214 -12 q 68 360 68 161 q 403 761 68 761 q 495 754 447 761 q 581 734 544 747 l 581 -17 q 510 -249 581 -178 q 298 -319 440 -319 m 336 33 q 448 62 394 33 q 533 144 501 90 l 533 699 q 470 711 506 706 q 401 715 435 715 q 189 632 260 715 q 118 365 118 549 q 176 107 118 181 q 336 33 234 33 m 358 944 q 327 956 339 944 q 315 988 315 968 q 327 1019 315 1007 q 358 1032 339 1032 q 389 1019 376 1032 q 401 988 401 1007 q 389 956 401 968 q 358 944 376 944 z "},"ḡ":{"ha":690,"x_min":68,"x_max":581,"o":"m 298 -319 q 202 -311 253 -319 q 112 -287 151 -302 l 112 -240 q 299 -274 209 -274 q 431 -249 379 -274 q 508 -169 482 -225 q 533 -20 533 -113 l 533 74 l 529 74 q 445 12 496 36 q 333 -12 395 -12 q 141 74 214 -12 q 68 360 68 161 q 403 761 68 761 q 495 754 447 761 q 581 734 544 747 l 581 -17 q 510 -249 581 -178 q 298 -319 440 -319 m 336 33 q 448 62 394 33 q 533 144 501 90 l 533 699 q 470 711 506 706 q 401 715 435 715 q 189 632 260 715 q 118 365 118 549 q 176 107 118 181 q 336 33 234 33 m 173 968 l 173 1009 l 543 1009 l 543 968 l 173 968 z "},"h":{"ha":701,"x_min":109,"x_max":600,"o":"m 109 1122 l 156 1122 l 156 663 l 160 663 q 263 737 206 713 q 386 761 321 761 q 600 524 600 761 l 600 0 l 553 0 l 553 526 q 509 671 553 628 q 383 714 465 714 q 259 684 321 714 q 156 591 197 655 l 156 0 l 109 0 l 109 1122 z "},"ħ":{"ha":701,"x_min":6,"x_max":600,"o":"m 386 761 q 600 524 600 761 l 600 0 l 553 0 l 553 526 q 509 671 553 628 q 383 714 465 714 q 259 684 321 714 q 156 591 197 655 l 156 0 l 109 0 l 109 921 l 6 921 l 6 963 l 109 963 l 109 1122 l 156 1122 l 156 963 l 387 963 l 387 921 l 156 921 l 156 663 l 160 663 q 263 737 206 713 q 386 761 321 761 z "},"ḫ":{"ha":701,"x_min":109,"x_max":600,"o":"m 109 1122 l 156 1122 l 156 663 l 160 663 q 263 737 206 713 q 386 761 321 761 q 600 524 600 761 l 600 0 l 553 0 l 553 526 q 509 671 553 628 q 383 714 465 714 q 259 684 321 714 q 156 591 197 655 l 156 0 l 109 0 l 109 1122 m 356 -278 q 233 -233 279 -278 q 187 -111 188 -189 l 226 -111 q 262 -206 229 -174 q 356 -237 295 -237 q 450 -206 417 -237 q 483 -111 482 -174 l 523 -111 q 478 -234 522 -190 q 356 -278 433 -278 z "},"ĥ":{"ha":701,"x_min":109,"x_max":600,"o":"m 109 1122 l 156 1122 l 156 663 l 160 663 q 263 737 206 713 q 386 761 321 761 q 600 524 600 761 l 600 0 l 553 0 l 553 526 q 509 671 553 628 q 383 714 465 714 q 259 684 321 714 q 156 591 197 655 l 156 0 l 109 0 l 109 1122 m 533 1189 l 481 1189 l 356 1349 l 230 1189 l 177 1189 l 328 1378 l 381 1378 l 533 1189 z "},"ḥ":{"ha":701,"x_min":109,"x_max":600,"o":"m 109 1122 l 156 1122 l 156 663 l 160 663 q 263 737 206 713 q 386 761 321 761 q 600 524 600 761 l 600 0 l 553 0 l 553 526 q 509 671 553 628 q 383 714 465 714 q 259 684 321 714 q 156 591 197 655 l 156 0 l 109 0 l 109 1122 m 355 -215 q 324 -203 336 -215 q 312 -172 312 -192 q 324 -140 312 -153 q 355 -128 336 -128 q 386 -140 374 -128 q 398 -172 398 -153 q 386 -203 398 -192 q 355 -215 374 -215 z "},"i":{"ha":265,"x_min":90,"x_max":176,"o":"m 109 0 l 109 750 l 156 750 l 156 0 l 109 0 m 133 944 q 102 956 114 944 q 90 988 90 968 q 102 1019 90 1007 q 133 1032 114 1032 q 164 1019 151 1032 q 176 988 176 1007 q 164 956 176 968 q 133 944 151 944 z "},"ı":{"ha":265,"x_min":109,"x_max":156,"o":"m 109 0 l 109 750 l 156 750 l 156 0 l 109 0 z "},"í":{"ha":265,"x_min":109,"x_max":288,"o":"m 109 0 l 109 750 l 156 750 l 156 0 l 109 0 m 112 878 l 235 1122 l 288 1122 l 153 878 l 112 878 z "},"ĭ":{"ha":265,"x_min":-35,"x_max":301,"o":"m 109 0 l 109 750 l 156 750 l 156 0 l 109 0 m 134 886 q 13 942 57 886 q -35 1103 -32 998 l 4 1103 q 41 969 9 1012 q 134 926 74 926 q 226 969 195 926 q 261 1103 258 1012 l 301 1103 q 255 941 298 997 q 134 886 211 886 z "},"î":{"ha":265,"x_min":-31,"x_max":296,"o":"m 109 0 l 109 750 l 156 750 l 156 0 l 109 0 m 296 878 l 249 878 l 133 1092 l 17 878 l -31 878 l 106 1122 l 159 1122 l 296 878 z "},"ȉ":{"ha":265,"x_min":-65,"x_max":248,"o":"m 109 0 l 109 750 l 156 750 l 156 0 l 109 0 m 17 878 l -65 1122 l -18 1122 l 58 878 l 17 878 m 208 878 l 126 1122 l 173 1122 l 248 878 l 208 878 z "},"ï":{"ha":265,"x_min":-35,"x_max":301,"o":"m 109 0 l 109 750 l 156 750 l 156 0 l 109 0 m 8 944 q -23 956 -11 944 q -35 988 -35 968 q -23 1019 -35 1007 q 8 1032 -11 1032 q 39 1019 26 1032 q 51 988 51 1007 q 39 956 51 968 q 8 944 26 944 m 258 944 q 227 956 239 944 q 215 988 215 968 q 227 1019 215 1007 q 258 1032 239 1032 q 289 1019 276 1032 q 301 988 301 1007 q 289 956 301 968 q 258 944 276 944 z "},"ḯ":{"ha":265,"x_min":-35,"x_max":301,"o":"m 109 0 l 109 750 l 156 750 l 156 0 l 109 0 m 8 944 q -23 956 -11 944 q -35 988 -35 968 q -23 1019 -35 1007 q 8 1032 -11 1032 q 39 1019 26 1032 q 51 988 51 1007 q 39 956 51 968 q 8 944 26 944 m 258 944 q 227 956 239 944 q 215 988 215 968 q 227 1019 215 1007 q 258 1032 239 1032 q 289 1019 276 1032 q 301 988 301 1007 q 289 956 301 968 q 258 944 276 944 m 112 1108 l 217 1297 l 269 1297 l 153 1108 l 112 1108 z "},"ị":{"ha":265,"x_min":90,"x_max":176,"o":"m 109 0 l 109 750 l 156 750 l 156 0 l 109 0 m 133 944 q 102 956 114 944 q 90 988 90 968 q 102 1019 90 1007 q 133 1032 114 1032 q 164 1019 151 1032 q 176 988 176 1007 q 164 956 176 968 q 133 944 151 944 m 133 -215 q 102 -203 114 -215 q 90 -172 90 -192 q 102 -140 90 -153 q 133 -128 114 -128 q 164 -140 151 -128 q 176 -172 176 -153 q 164 -203 176 -192 q 133 -215 151 -215 z "},"ì":{"ha":265,"x_min":-22,"x_max":156,"o":"m 109 0 l 109 750 l 156 750 l 156 0 l 109 0 m 112 878 l -22 1122 l 30 1122 l 153 878 l 112 878 z "},"ỉ":{"ha":265,"x_min":33,"x_max":258,"o":"m 109 0 l 109 750 l 156 750 l 156 0 l 109 0 m 111 878 q 120 922 111 903 q 142 953 129 941 q 174 981 154 965 q 206 1009 195 997 q 217 1039 217 1021 q 197 1079 217 1066 q 133 1092 178 1092 q 81 1088 108 1092 q 33 1075 53 1083 l 33 1114 q 79 1126 52 1122 q 131 1131 106 1131 q 227 1107 195 1131 q 258 1040 258 1083 q 245 992 258 1010 q 205 954 232 974 q 167 920 179 935 q 154 878 154 904 l 111 878 z "},"ȋ":{"ha":265,"x_min":-35,"x_max":301,"o":"m 109 0 l 109 750 l 156 750 l 156 0 l 109 0 m -35 897 q 11 1059 -32 1005 q 131 1114 54 1114 q 253 1059 208 1114 q 301 897 298 1003 l 261 897 q 224 1031 256 988 q 131 1074 192 1074 q 39 1031 71 1074 q 4 897 8 988 l -35 897 z "},"ī":{"ha":265,"x_min":-52,"x_max":318,"o":"m 109 0 l 109 750 l 156 750 l 156 0 l 109 0 m -52 968 l -52 1009 l 318 1009 l 318 968 l -52 968 z "},"į":{"ha":265,"x_min":3,"x_max":228,"o":"m 133 944 q 102 956 114 944 q 90 988 90 968 q 102 1019 90 1007 q 133 1032 114 1032 q 164 1019 151 1032 q 176 988 176 1007 q 164 956 176 968 q 133 944 151 944 m 128 -242 q 228 -211 181 -242 l 228 -250 q 182 -270 208 -263 q 130 -278 156 -278 q 36 -247 70 -278 q 3 -161 3 -216 q 28 -71 3 -113 q 109 13 54 -29 l 109 750 l 156 750 l 156 0 q 68 -78 95 -41 q 42 -158 42 -115 q 65 -220 42 -199 q 128 -242 88 -242 z "},"ĩ":{"ha":265,"x_min":-52,"x_max":318,"o":"m 109 0 l 109 750 l 156 750 l 156 0 l 109 0 m 220 958 q 174 966 197 958 q 123 988 151 974 q 79 1006 97 1000 q 45 1012 62 1012 q -8 1000 16 1012 q -52 963 -31 988 l -52 1008 q -10 1040 -35 1029 q 45 1051 15 1051 q 91 1044 69 1051 q 142 1022 114 1036 q 186 1004 169 1010 q 220 998 203 998 q 273 1010 249 998 q 318 1047 297 1022 l 318 1001 q 220 958 282 958 z "},"j":{"ha":265,"x_min":-17,"x_max":176,"o":"m -17 -296 q 80 -103 51 -197 q 109 115 109 -10 l 109 750 l 156 750 l 156 122 q 142 -44 156 29 q 98 -182 128 -117 q 18 -319 68 -247 l -17 -296 m 133 947 q 102 958 114 947 q 90 990 90 970 q 102 1022 90 1009 q 133 1034 114 1034 q 164 1022 151 1034 q 176 990 176 1009 q 164 958 176 970 q 133 947 151 947 z "},"ȷ":{"ha":265,"x_min":-17,"x_max":156,"o":"m -17 -296 q 80 -103 51 -197 q 109 115 109 -10 l 109 750 l 156 750 l 156 122 q 142 -44 156 29 q 98 -182 128 -117 q 18 -319 68 -247 l -17 -296 z "},"ĵ":{"ha":265,"x_min":-31,"x_max":296,"o":"m -17 -296 q 80 -103 51 -197 q 109 115 109 -10 l 109 750 l 156 750 l 156 122 q 142 -44 156 29 q 98 -182 128 -117 q 18 -319 68 -247 l -17 -296 m 296 880 l 249 880 l 133 1094 l 17 880 l -31 880 l 106 1124 l 159 1124 l 296 880 z "},"k":{"ha":622,"x_min":109,"x_max":635,"o":"m 576 0 l 290 361 l 156 361 l 156 0 l 109 0 l 109 1122 l 156 1122 l 156 406 l 290 406 l 555 750 l 613 750 l 331 384 l 635 0 l 576 0 z "},"ķ":{"ha":622,"x_min":109,"x_max":635,"o":"m 576 0 l 290 361 l 156 361 l 156 0 l 109 0 l 109 1122 l 156 1122 l 156 406 l 290 406 l 555 750 l 613 750 l 331 384 l 635 0 l 576 0 m 338 -128 q 372 -143 360 -128 q 384 -187 384 -158 q 376 -247 384 -214 q 353 -311 369 -281 l 323 -311 q 346 -215 342 -262 l 341 -215 q 310 -203 322 -215 q 298 -171 298 -190 q 309 -140 298 -152 q 338 -128 321 -128 z "},"ĸ":{"ha":622,"x_min":109,"x_max":635,"o":"m 576 0 l 290 361 l 156 361 l 156 0 l 109 0 l 109 750 l 156 750 l 156 406 l 290 406 l 555 750 l 613 750 l 331 384 l 635 0 l 576 0 z "},"l":{"ha":265,"x_min":109,"x_max":156,"o":"m 109 0 l 109 1122 l 156 1122 l 156 0 l 109 0 z "},"ĺ":{"ha":265,"x_min":109,"x_max":269,"o":"m 109 0 l 109 1122 l 156 1122 l 156 0 l 109 0 m 112 1189 l 217 1378 l 269 1378 l 153 1189 l 112 1189 z "},"ľ":{"ha":265,"x_min":109,"x_max":277,"o":"m 109 0 l 109 1122 l 156 1122 l 156 0 l 109 0 m 220 819 q 233 1122 233 929 l 277 1122 q 252 819 277 947 l 220 819 z "},"ļ":{"ha":265,"x_min":90,"x_max":176,"o":"m 109 0 l 109 1122 l 156 1122 l 156 0 l 109 0 m 130 -128 q 164 -143 151 -128 q 176 -187 176 -158 q 168 -247 176 -214 q 145 -311 160 -281 l 115 -311 q 138 -215 134 -262 l 133 -215 q 102 -203 114 -215 q 90 -171 90 -190 q 101 -140 90 -152 q 130 -128 113 -128 z "},"ŀ":{"ha":265,"x_min":109,"x_max":303,"o":"m 109 0 l 109 1122 l 156 1122 l 156 0 l 109 0 m 260 507 q 229 519 241 507 q 217 550 217 531 q 229 582 217 569 q 260 594 241 594 q 291 582 278 594 q 303 550 303 569 q 291 519 303 531 q 260 507 278 507 z "},"ḷ":{"ha":265,"x_min":90,"x_max":176,"o":"m 109 0 l 109 1122 l 156 1122 l 156 0 l 109 0 m 133 -215 q 102 -203 114 -215 q 90 -172 90 -192 q 102 -140 90 -153 q 133 -128 114 -128 q 164 -140 151 -128 q 176 -172 176 -153 q 164 -203 176 -192 q 133 -215 151 -215 z "},"ǉ":{"ha":531,"x_min":109,"x_max":441,"o":"m 109 0 l 109 1122 l 156 1122 l 156 0 l 109 0 m 249 -296 q 345 -103 316 -197 q 374 115 374 -10 l 374 750 l 422 750 l 422 122 q 407 -44 422 29 q 363 -182 393 -117 q 283 -319 333 -247 l 249 -296 m 398 947 q 367 958 379 947 q 355 990 355 970 q 367 1022 355 1009 q 398 1034 379 1034 q 429 1022 417 1034 q 441 990 441 1009 q 429 958 441 970 q 398 947 417 947 z "},"ḻ":{"ha":265,"x_min":-31,"x_max":296,"o":"m 109 0 l 109 1122 l 156 1122 l 156 0 l 109 0 m -31 -192 l -31 -152 l 296 -152 l 296 -192 l -31 -192 z "},"ł":{"ha":265,"x_min":6,"x_max":260,"o":"m 260 587 l 156 490 l 156 0 l 109 0 l 109 446 l 34 376 l 6 405 l 109 501 l 109 1122 l 156 1122 l 156 544 l 233 616 l 260 587 z "},"m":{"ha":1070,"x_min":109,"x_max":969,"o":"m 769 761 q 916 706 862 761 q 969 524 969 650 l 969 0 l 922 0 l 922 524 q 881 671 922 626 q 766 715 840 715 q 655 686 712 715 q 560 590 599 656 q 565 524 565 560 l 565 0 l 517 0 l 517 524 q 477 671 517 626 q 365 715 437 715 q 251 684 308 715 q 156 588 194 653 l 156 0 l 109 0 l 109 750 l 151 750 l 155 661 l 160 661 q 256 736 202 711 q 369 761 310 761 q 546 648 504 761 q 651 735 593 708 q 769 761 710 761 z "},"ṃ":{"ha":1070,"x_min":109,"x_max":969,"o":"m 769 761 q 916 706 862 761 q 969 524 969 650 l 969 0 l 922 0 l 922 524 q 881 671 922 626 q 766 715 840 715 q 655 686 712 715 q 560 590 599 656 q 565 524 565 560 l 565 0 l 517 0 l 517 524 q 477 671 517 626 q 365 715 437 715 q 251 684 308 715 q 156 588 194 653 l 156 0 l 109 0 l 109 750 l 151 750 l 155 661 l 160 661 q 256 736 202 711 q 369 761 310 761 q 546 648 504 761 q 651 735 593 708 q 769 761 710 761 m 541 -215 q 510 -203 522 -215 q 498 -172 498 -192 q 510 -140 498 -153 q 541 -128 522 -128 q 572 -140 560 -128 q 584 -172 584 -153 q 572 -203 584 -192 q 541 -215 560 -215 z "},"n":{"ha":701,"x_min":109,"x_max":600,"o":"m 109 750 l 151 750 l 155 663 l 160 663 q 263 735 205 710 q 385 761 320 761 q 600 526 600 761 l 600 0 l 553 0 l 553 525 q 509 671 553 627 q 383 715 465 715 q 260 685 322 715 q 156 592 197 656 l 156 0 l 109 0 l 109 750 z "},"ń":{"ha":701,"x_min":109,"x_max":600,"o":"m 109 750 l 151 750 l 155 663 l 160 663 q 263 735 205 710 q 385 761 320 761 q 600 526 600 761 l 600 0 l 553 0 l 553 525 q 509 671 553 627 q 383 715 465 715 q 260 685 322 715 q 156 592 197 656 l 156 0 l 109 0 l 109 750 m 334 878 l 458 1122 l 510 1122 l 376 878 l 334 878 z "},"ŉ":{"ha":701,"x_min":8,"x_max":600,"o":"m 109 750 l 151 750 l 155 663 l 160 663 q 263 735 205 710 q 385 761 320 761 q 600 526 600 761 l 600 0 l 553 0 l 553 525 q 509 671 553 627 q 383 715 465 715 q 260 685 322 715 q 156 592 197 656 l 156 0 l 109 0 l 109 750 m 49 1128 q 82 1113 70 1128 q 94 1068 94 1097 q 87 1008 94 1042 q 64 944 79 975 l 33 944 q 56 1040 53 994 l 51 1040 q 20 1053 33 1040 q 8 1085 8 1065 q 20 1116 8 1103 q 49 1128 31 1128 z "},"ň":{"ha":701,"x_min":109,"x_max":600,"o":"m 109 750 l 151 750 l 155 663 l 160 663 q 263 735 205 710 q 385 761 320 761 q 600 526 600 761 l 600 0 l 553 0 l 553 525 q 509 671 553 627 q 383 715 465 715 q 260 685 322 715 q 156 592 197 656 l 156 0 l 109 0 l 109 750 m 473 1122 l 519 1122 l 381 878 l 328 878 l 190 1122 l 238 1122 l 356 908 l 473 1122 z "},"ņ":{"ha":701,"x_min":109,"x_max":600,"o":"m 109 750 l 151 750 l 155 663 l 160 663 q 263 735 205 710 q 385 761 320 761 q 600 526 600 761 l 600 0 l 553 0 l 553 525 q 509 671 553 627 q 383 715 465 715 q 260 685 322 715 q 156 592 197 656 l 156 0 l 109 0 l 109 750 m 352 -128 q 386 -143 374 -128 q 398 -187 398 -158 q 390 -247 398 -214 q 367 -311 383 -281 l 337 -311 q 360 -215 356 -262 l 355 -215 q 324 -203 336 -215 q 312 -171 312 -190 q 323 -140 312 -152 q 352 -128 335 -128 z "},"ṅ":{"ha":701,"x_min":109,"x_max":600,"o":"m 109 750 l 151 750 l 155 663 l 160 663 q 263 735 205 710 q 385 761 320 761 q 600 526 600 761 l 600 0 l 553 0 l 553 525 q 509 671 553 627 q 383 715 465 715 q 260 685 322 715 q 156 592 197 656 l 156 0 l 109 0 l 109 750 m 355 944 q 324 956 336 944 q 312 988 312 968 q 324 1019 312 1007 q 355 1032 336 1032 q 386 1019 374 1032 q 398 988 398 1007 q 386 956 398 968 q 355 944 374 944 z "},"ṇ":{"ha":701,"x_min":109,"x_max":600,"o":"m 109 750 l 151 750 l 155 663 l 160 663 q 263 735 205 710 q 385 761 320 761 q 600 526 600 761 l 600 0 l 553 0 l 553 525 q 509 671 553 627 q 383 715 465 715 q 260 685 322 715 q 156 592 197 656 l 156 0 l 109 0 l 109 750 m 355 -215 q 324 -203 336 -215 q 312 -172 312 -192 q 324 -140 312 -153 q 355 -128 336 -128 q 386 -140 374 -128 q 398 -172 398 -153 q 386 -203 398 -192 q 355 -215 374 -215 z "},"ŋ":{"ha":701,"x_min":109,"x_max":600,"o":"m 427 -296 q 524 -103 494 -197 q 553 115 553 -10 l 553 526 q 509 672 553 628 q 383 715 465 715 q 259 685 322 715 q 156 591 197 655 l 156 0 l 109 0 l 109 750 l 151 750 l 155 663 l 160 663 q 263 736 206 712 q 386 761 321 761 q 600 524 600 761 l 600 94 q 564 -122 594 -28 q 462 -319 533 -215 l 427 -296 z "},"ǌ":{"ha":966,"x_min":109,"x_max":876,"o":"m 109 750 l 151 750 l 155 663 l 160 663 q 263 735 205 710 q 385 761 320 761 q 600 526 600 761 l 600 0 l 553 0 l 553 525 q 509 671 553 627 q 383 715 465 715 q 260 685 322 715 q 156 592 197 656 l 156 0 l 109 0 l 109 750 m 684 -296 q 781 -103 751 -197 q 810 115 810 -10 l 810 750 l 857 750 l 857 122 q 843 -44 857 29 q 799 -182 828 -117 q 719 -319 769 -247 l 684 -296 m 833 947 q 802 958 815 947 q 790 990 790 970 q 802 1022 790 1009 q 833 1034 815 1034 q 864 1022 852 1034 q 876 990 876 1009 q 864 958 876 970 q 833 947 852 947 z "},"ṉ":{"ha":701,"x_min":109,"x_max":600,"o":"m 109 750 l 151 750 l 155 663 l 160 663 q 263 735 205 710 q 385 761 320 761 q 600 526 600 761 l 600 0 l 553 0 l 553 525 q 509 671 553 627 q 383 715 465 715 q 260 685 322 715 q 156 592 197 656 l 156 0 l 109 0 l 109 750 m 192 -192 l 192 -152 l 518 -152 l 518 -192 l 192 -192 z "},"ñ":{"ha":701,"x_min":109,"x_max":600,"o":"m 109 750 l 151 750 l 155 663 l 160 663 q 263 735 205 710 q 385 761 320 761 q 600 526 600 761 l 600 0 l 553 0 l 553 525 q 509 671 553 627 q 383 715 465 715 q 260 685 322 715 q 156 592 197 656 l 156 0 l 109 0 l 109 750 m 442 958 q 396 966 419 958 q 345 988 374 974 q 301 1006 319 1000 q 267 1012 284 1012 q 215 1000 238 1012 q 170 963 191 988 l 170 1008 q 212 1040 187 1029 q 267 1051 237 1051 q 314 1044 291 1051 q 365 1022 336 1036 q 408 1004 391 1010 q 442 998 426 998 q 495 1010 472 998 q 540 1047 519 1022 l 540 1001 q 442 958 504 958 z "},"o":{"ha":684,"x_min":68,"x_max":616,"o":"m 342 -12 q 140 81 213 -12 q 68 375 68 174 q 140 669 68 576 q 342 761 212 761 q 616 375 616 761 q 544 81 616 174 q 342 -12 472 -12 m 342 33 q 509 111 451 33 q 566 373 566 189 q 539 576 566 500 q 463 683 513 651 q 342 715 414 715 q 176 638 233 715 q 118 378 118 561 q 176 112 118 190 q 342 33 233 33 z "},"ó":{"ha":684,"x_min":68,"x_max":616,"o":"m 342 -12 q 140 81 213 -12 q 68 375 68 174 q 140 669 68 576 q 342 761 212 761 q 616 375 616 761 q 544 81 616 174 q 342 -12 472 -12 m 342 33 q 509 111 451 33 q 566 373 566 189 q 539 576 566 500 q 463 683 513 651 q 342 715 414 715 q 176 638 233 715 q 118 378 118 561 q 176 112 118 190 q 342 33 233 33 m 322 878 l 445 1122 l 497 1122 l 363 878 l 322 878 z "},"ŏ":{"ha":684,"x_min":68,"x_max":616,"o":"m 342 -12 q 140 81 213 -12 q 68 375 68 174 q 140 669 68 576 q 342 761 212 761 q 616 375 616 761 q 544 81 616 174 q 342 -12 472 -12 m 342 33 q 509 111 451 33 q 566 373 566 189 q 539 576 566 500 q 463 683 513 651 q 342 715 414 715 q 176 638 233 715 q 118 378 118 561 q 176 112 118 190 q 342 33 233 33 m 344 886 q 222 942 267 886 q 174 1103 178 998 l 214 1103 q 251 969 219 1012 q 344 926 283 926 q 436 969 405 926 q 471 1103 467 1012 l 510 1103 q 464 941 508 997 q 344 886 421 886 z "},"ô":{"ha":684,"x_min":68,"x_max":616,"o":"m 342 -12 q 140 81 213 -12 q 68 375 68 174 q 140 669 68 576 q 342 761 212 761 q 616 375 616 761 q 544 81 616 174 q 342 -12 472 -12 m 342 33 q 509 111 451 33 q 566 373 566 189 q 539 576 566 500 q 463 683 513 651 q 342 715 414 715 q 176 638 233 715 q 118 378 118 561 q 176 112 118 190 q 342 33 233 33 m 506 878 l 459 878 l 343 1092 l 226 878 l 179 878 l 316 1122 l 369 1122 l 506 878 z "},"ố":{"ha":684,"x_min":68,"x_max":632,"o":"m 342 -12 q 140 81 213 -12 q 68 375 68 174 q 140 669 68 576 q 342 761 212 761 q 616 375 616 761 q 544 81 616 174 q 342 -12 472 -12 m 342 33 q 509 111 451 33 q 566 373 566 189 q 539 576 566 500 q 463 683 513 651 q 342 715 414 715 q 176 638 233 715 q 118 378 118 561 q 176 112 118 190 q 342 33 233 33 m 579 1297 l 632 1297 l 516 1108 l 474 1108 l 579 1297 m 316 1122 l 369 1122 l 506 878 l 459 878 l 343 1092 l 226 878 l 179 878 l 316 1122 z "},"ộ":{"ha":684,"x_min":68,"x_max":616,"o":"m 342 -12 q 140 81 213 -12 q 68 375 68 174 q 140 669 68 576 q 342 761 212 761 q 616 375 616 761 q 544 81 616 174 q 342 -12 472 -12 m 342 33 q 509 111 451 33 q 566 373 566 189 q 539 576 566 500 q 463 683 513 651 q 342 715 414 715 q 176 638 233 715 q 118 378 118 561 q 176 112 118 190 q 342 33 233 33 m 342 -215 q 311 -203 324 -215 q 299 -172 299 -192 q 311 -140 299 -153 q 342 -128 324 -128 q 373 -140 361 -128 q 385 -172 385 -153 q 373 -203 385 -192 q 342 -215 361 -215 m 506 878 l 459 878 l 343 1092 l 226 878 l 179 878 l 316 1122 l 369 1122 l 506 878 z "},"ồ":{"ha":684,"x_min":68,"x_max":616,"o":"m 342 -12 q 140 81 213 -12 q 68 375 68 174 q 140 669 68 576 q 342 761 212 761 q 616 375 616 761 q 544 81 616 174 q 342 -12 472 -12 m 342 33 q 509 111 451 33 q 566 373 566 189 q 539 576 566 500 q 463 683 513 651 q 342 715 414 715 q 176 638 233 715 q 118 378 118 561 q 176 112 118 190 q 342 33 233 33 m 520 1108 l 478 1108 l 363 1297 l 415 1297 l 520 1108 m 316 1122 l 369 1122 l 506 878 l 459 878 l 343 1092 l 226 878 l 179 878 l 316 1122 z "},"ổ":{"ha":684,"x_min":68,"x_max":616,"o":"m 342 -12 q 140 81 213 -12 q 68 375 68 174 q 140 669 68 576 q 342 761 212 761 q 616 375 616 761 q 544 81 616 174 q 342 -12 472 -12 m 342 33 q 509 111 451 33 q 566 373 566 189 q 539 576 566 500 q 463 683 513 651 q 342 715 414 715 q 176 638 233 715 q 118 378 118 561 q 176 112 118 190 q 342 33 233 33 m 493 1297 q 584 1277 553 1297 q 615 1224 615 1257 q 600 1183 615 1197 q 556 1156 585 1169 q 519 1134 531 1144 q 506 1108 508 1125 l 463 1108 q 481 1151 465 1137 q 528 1179 498 1166 q 563 1199 551 1190 q 574 1224 574 1208 q 556 1250 574 1241 q 493 1260 538 1260 q 363 1234 426 1260 l 363 1272 q 423 1291 389 1284 q 493 1297 457 1297 m 316 1122 l 369 1122 l 506 878 l 459 878 l 343 1092 l 226 878 l 179 878 l 316 1122 z "},"ỗ":{"ha":684,"x_min":68,"x_max":616,"o":"m 342 -12 q 140 81 213 -12 q 68 375 68 174 q 140 669 68 576 q 342 761 212 761 q 616 375 616 761 q 544 81 616 174 q 342 -12 472 -12 m 342 33 q 509 111 451 33 q 566 373 566 189 q 539 576 566 500 q 463 683 513 651 q 342 715 414 715 q 176 638 233 715 q 118 378 118 561 q 176 112 118 190 q 342 33 233 33 m 430 1203 q 483 1216 459 1203 q 528 1253 506 1228 l 528 1207 q 430 1164 492 1164 q 384 1172 406 1164 q 333 1193 361 1179 q 289 1211 306 1206 q 255 1217 272 1217 q 202 1205 226 1217 q 158 1168 178 1193 l 158 1214 q 199 1246 174 1235 q 255 1257 224 1257 q 301 1249 278 1257 q 352 1228 324 1242 q 396 1209 378 1215 q 430 1203 413 1203 m 316 1122 l 369 1122 l 506 878 l 459 878 l 343 1092 l 226 878 l 179 878 l 316 1122 z "},"ȍ":{"ha":684,"x_min":68,"x_max":616,"o":"m 342 -12 q 140 81 213 -12 q 68 375 68 174 q 140 669 68 576 q 342 761 212 761 q 616 375 616 761 q 544 81 616 174 q 342 -12 472 -12 m 342 33 q 509 111 451 33 q 566 373 566 189 q 539 576 566 500 q 463 683 513 651 q 342 715 414 715 q 176 638 233 715 q 118 378 118 561 q 176 112 118 190 q 342 33 233 33 m 227 878 l 144 1122 l 192 1122 l 267 878 l 227 878 m 418 878 l 335 1122 l 383 1122 l 458 878 l 418 878 z "},"ö":{"ha":684,"x_min":68,"x_max":616,"o":"m 342 -12 q 140 81 213 -12 q 68 375 68 174 q 140 669 68 576 q 342 761 212 761 q 616 375 616 761 q 544 81 616 174 q 342 -12 472 -12 m 342 33 q 509 111 451 33 q 566 373 566 189 q 539 576 566 500 q 463 683 513 651 q 342 715 414 715 q 176 638 233 715 q 118 378 118 561 q 176 112 118 190 q 342 33 233 33 m 217 944 q 186 956 199 944 q 174 988 174 968 q 186 1019 174 1007 q 217 1032 199 1032 q 248 1019 236 1032 q 260 988 260 1007 q 248 956 260 968 q 217 944 236 944 m 467 944 q 436 956 449 944 q 424 988 424 968 q 436 1019 424 1007 q 467 1032 449 1032 q 498 1019 486 1032 q 510 988 510 1007 q 498 956 510 968 q 467 944 486 944 z "},"ȫ":{"ha":684,"x_min":68,"x_max":616,"o":"m 342 -12 q 140 81 213 -12 q 68 375 68 174 q 140 669 68 576 q 342 761 212 761 q 616 375 616 761 q 544 81 616 174 q 342 -12 472 -12 m 342 33 q 509 111 451 33 q 566 373 566 189 q 539 576 566 500 q 463 683 513 651 q 342 715 414 715 q 176 638 233 715 q 118 378 118 561 q 176 112 118 190 q 342 33 233 33 m 217 944 q 186 956 199 944 q 174 988 174 968 q 186 1019 174 1007 q 217 1032 199 1032 q 248 1019 236 1032 q 260 988 260 1007 q 248 956 260 968 q 217 944 236 944 m 467 944 q 436 956 449 944 q 424 988 424 968 q 436 1019 424 1007 q 467 1032 449 1032 q 498 1019 486 1032 q 510 988 510 1007 q 498 956 510 968 q 467 944 486 944 m 158 1151 l 158 1192 l 528 1192 l 528 1151 l 158 1151 z "},"ȱ":{"ha":684,"x_min":68,"x_max":616,"o":"m 342 -12 q 140 81 213 -12 q 68 375 68 174 q 140 669 68 576 q 342 761 212 761 q 616 375 616 761 q 544 81 616 174 q 342 -12 472 -12 m 342 33 q 509 111 451 33 q 566 373 566 189 q 539 576 566 500 q 463 683 513 651 q 342 715 414 715 q 176 638 233 715 q 118 378 118 561 q 176 112 118 190 q 342 33 233 33 m 342 944 q 311 956 324 944 q 299 988 299 968 q 311 1019 299 1007 q 342 1032 324 1032 q 373 1019 361 1032 q 385 988 385 1007 q 373 956 385 968 q 342 944 361 944 m 158 1151 l 158 1192 l 528 1192 l 528 1151 l 158 1151 z "},"ọ":{"ha":684,"x_min":68,"x_max":616,"o":"m 342 -12 q 140 81 213 -12 q 68 375 68 174 q 140 669 68 576 q 342 761 212 761 q 616 375 616 761 q 544 81 616 174 q 342 -12 472 -12 m 342 33 q 509 111 451 33 q 566 373 566 189 q 539 576 566 500 q 463 683 513 651 q 342 715 414 715 q 176 638 233 715 q 118 378 118 561 q 176 112 118 190 q 342 33 233 33 m 342 -215 q 311 -203 324 -215 q 299 -172 299 -192 q 311 -140 299 -153 q 342 -128 324 -128 q 373 -140 361 -128 q 385 -172 385 -153 q 373 -203 385 -192 q 342 -215 361 -215 z "},"ò":{"ha":684,"x_min":68,"x_max":616,"o":"m 342 -12 q 140 81 213 -12 q 68 375 68 174 q 140 669 68 576 q 342 761 212 761 q 616 375 616 761 q 544 81 616 174 q 342 -12 472 -12 m 342 33 q 509 111 451 33 q 566 373 566 189 q 539 576 566 500 q 463 683 513 651 q 342 715 414 715 q 176 638 233 715 q 118 378 118 561 q 176 112 118 190 q 342 33 233 33 m 322 878 l 188 1122 l 240 1122 l 363 878 l 322 878 z "},"ỏ":{"ha":684,"x_min":68,"x_max":616,"o":"m 342 -12 q 140 81 213 -12 q 68 375 68 174 q 140 669 68 576 q 342 761 212 761 q 616 375 616 761 q 544 81 616 174 q 342 -12 472 -12 m 342 33 q 509 111 451 33 q 566 373 566 189 q 539 576 566 500 q 463 683 513 651 q 342 715 414 715 q 176 638 233 715 q 118 378 118 561 q 176 112 118 190 q 342 33 233 33 m 321 878 q 330 922 321 903 q 351 953 339 941 q 383 981 364 965 q 416 1009 405 997 q 426 1039 426 1021 q 407 1079 426 1066 q 343 1092 388 1092 q 291 1088 318 1092 q 242 1075 263 1083 l 242 1114 q 289 1126 262 1122 q 341 1131 315 1131 q 436 1107 405 1131 q 468 1040 468 1083 q 455 992 468 1010 q 415 954 442 974 q 376 920 389 935 q 364 878 364 904 l 321 878 z "},"ơ":{"ha":684,"x_min":68,"x_max":631,"o":"m 501 713 q 588 584 559 667 q 616 375 616 501 q 544 81 616 174 q 342 -12 472 -12 q 140 81 213 -12 q 68 375 68 174 q 140 669 68 576 q 342 761 212 761 q 410 758 368 761 q 454 756 434 756 q 550 784 515 756 q 585 871 585 813 q 581 920 585 898 q 568 969 576 942 l 614 969 q 627 922 623 944 q 631 869 631 899 q 595 764 631 804 q 501 713 560 724 m 342 33 q 509 111 451 33 q 566 373 566 189 q 539 576 566 500 q 463 683 513 651 q 342 715 414 715 q 176 638 233 715 q 118 378 118 561 q 176 112 118 190 q 342 33 233 33 z "},"ớ":{"ha":684,"x_min":68,"x_max":631,"o":"m 501 713 q 588 584 559 667 q 616 375 616 501 q 544 81 616 174 q 342 -12 472 -12 q 140 81 213 -12 q 68 375 68 174 q 140 669 68 576 q 342 761 212 761 q 410 758 368 761 q 454 756 434 756 q 550 784 515 756 q 585 871 585 813 q 581 920 585 898 q 568 969 576 942 l 614 969 q 627 922 623 944 q 631 869 631 899 q 595 764 631 804 q 501 713 560 724 m 342 33 q 509 111 451 33 q 566 373 566 189 q 539 576 566 500 q 463 683 513 651 q 342 715 414 715 q 176 638 233 715 q 118 378 118 561 q 176 112 118 190 q 342 33 233 33 m 320 878 l 444 1122 l 496 1122 l 362 878 l 320 878 z "},"ợ":{"ha":684,"x_min":68,"x_max":631,"o":"m 501 713 q 588 584 559 667 q 616 375 616 501 q 544 81 616 174 q 342 -12 472 -12 q 140 81 213 -12 q 68 375 68 174 q 140 669 68 576 q 342 761 212 761 q 410 758 368 761 q 454 756 434 756 q 550 784 515 756 q 585 871 585 813 q 581 920 585 898 q 568 969 576 942 l 614 969 q 627 922 623 944 q 631 869 631 899 q 595 764 631 804 q 501 713 560 724 m 342 33 q 509 111 451 33 q 566 373 566 189 q 539 576 566 500 q 463 683 513 651 q 342 715 414 715 q 176 638 233 715 q 118 378 118 561 q 176 112 118 190 q 342 33 233 33 m 341 -215 q 310 -203 322 -215 q 298 -172 298 -192 q 310 -140 298 -153 q 341 -128 322 -128 q 372 -140 360 -128 q 384 -172 384 -153 q 372 -203 384 -192 q 341 -215 360 -215 z "},"ờ":{"ha":684,"x_min":68,"x_max":631,"o":"m 501 713 q 588 584 559 667 q 616 375 616 501 q 544 81 616 174 q 342 -12 472 -12 q 140 81 213 -12 q 68 375 68 174 q 140 669 68 576 q 342 761 212 761 q 410 758 368 761 q 454 756 434 756 q 550 784 515 756 q 585 871 585 813 q 581 920 585 898 q 568 969 576 942 l 614 969 q 627 922 623 944 q 631 869 631 899 q 595 764 631 804 q 501 713 560 724 m 342 33 q 509 111 451 33 q 566 373 566 189 q 539 576 566 500 q 463 683 513 651 q 342 715 414 715 q 176 638 233 715 q 118 378 118 561 q 176 112 118 190 q 342 33 233 33 m 320 878 l 186 1122 l 238 1122 l 362 878 l 320 878 z "},"ở":{"ha":684,"x_min":68,"x_max":631,"o":"m 501 713 q 588 584 559 667 q 616 375 616 501 q 544 81 616 174 q 342 -12 472 -12 q 140 81 213 -12 q 68 375 68 174 q 140 669 68 576 q 342 761 212 761 q 410 758 368 761 q 454 756 434 756 q 550 784 515 756 q 585 871 585 813 q 581 920 585 898 q 568 969 576 942 l 614 969 q 627 922 623 944 q 631 869 631 899 q 595 764 631 804 q 501 713 560 724 m 342 33 q 509 111 451 33 q 566 373 566 189 q 539 576 566 500 q 463 683 513 651 q 342 715 414 715 q 176 638 233 715 q 118 378 118 561 q 176 112 118 190 q 342 33 233 33 m 319 878 q 328 922 319 903 q 350 953 338 941 q 382 981 363 965 q 414 1009 403 997 q 425 1039 425 1021 q 406 1079 425 1066 q 342 1092 386 1092 q 289 1088 317 1092 q 241 1075 262 1083 l 241 1114 q 287 1126 260 1122 q 340 1131 314 1131 q 435 1107 403 1131 q 467 1040 467 1083 q 453 992 467 1010 q 413 954 440 974 q 375 920 388 935 q 363 878 363 904 l 319 878 z "},"ỡ":{"ha":684,"x_min":68,"x_max":631,"o":"m 253 1012 q 201 1000 224 1012 q 156 963 177 988 l 156 1008 q 198 1040 173 1029 q 253 1051 223 1051 q 300 1044 277 1051 q 351 1022 322 1036 q 394 1004 377 1010 q 428 998 412 998 q 481 1010 458 998 q 526 1047 505 1022 l 526 1001 q 428 958 490 958 q 382 966 405 958 q 331 988 360 974 q 288 1006 305 1000 q 253 1012 270 1012 m 501 713 q 588 584 559 667 q 616 375 616 501 q 544 81 616 174 q 342 -12 472 -12 q 140 81 213 -12 q 68 375 68 174 q 140 669 68 576 q 342 761 212 761 q 410 758 368 761 q 454 756 434 756 q 550 784 515 756 q 585 871 585 813 q 581 920 585 898 q 568 969 576 942 l 614 969 q 627 922 623 944 q 631 869 631 899 q 595 764 631 804 q 501 713 560 724 m 342 33 q 509 111 451 33 q 566 373 566 189 q 539 576 566 500 q 463 683 513 651 q 342 715 414 715 q 176 638 233 715 q 118 378 118 561 q 176 112 118 190 q 342 33 233 33 z "},"ő":{"ha":684,"x_min":68,"x_max":616,"o":"m 342 -12 q 140 81 213 -12 q 68 375 68 174 q 140 669 68 576 q 342 761 212 761 q 616 375 616 761 q 544 81 616 174 q 342 -12 472 -12 m 342 33 q 509 111 451 33 q 566 373 566 189 q 539 576 566 500 q 463 683 513 651 q 342 715 414 715 q 176 638 233 715 q 118 378 118 561 q 176 112 118 190 q 342 33 233 33 m 229 878 l 306 1122 l 350 1122 l 267 878 l 229 878 m 418 878 l 494 1122 l 539 1122 l 456 878 l 418 878 z "},"ȏ":{"ha":684,"x_min":68,"x_max":616,"o":"m 342 -12 q 140 81 213 -12 q 68 375 68 174 q 140 669 68 576 q 342 761 212 761 q 616 375 616 761 q 544 81 616 174 q 342 -12 472 -12 m 342 33 q 509 111 451 33 q 566 373 566 189 q 539 576 566 500 q 463 683 513 651 q 342 715 414 715 q 176 638 233 715 q 118 378 118 561 q 176 112 118 190 q 342 33 233 33 m 174 897 q 221 1059 178 1005 q 341 1114 264 1114 q 463 1059 418 1114 q 510 897 508 1003 l 471 897 q 434 1031 466 988 q 341 1074 402 1074 q 249 1031 281 1074 q 214 897 217 988 l 174 897 z "},"ō":{"ha":684,"x_min":68,"x_max":616,"o":"m 342 -12 q 140 81 213 -12 q 68 375 68 174 q 140 669 68 576 q 342 761 212 761 q 616 375 616 761 q 544 81 616 174 q 342 -12 472 -12 m 342 33 q 509 111 451 33 q 566 373 566 189 q 539 576 566 500 q 463 683 513 651 q 342 715 414 715 q 176 638 233 715 q 118 378 118 561 q 176 112 118 190 q 342 33 233 33 m 158 968 l 158 1009 l 528 1009 l 528 968 l 158 968 z "},"ṓ":{"ha":684,"x_min":68,"x_max":616,"o":"m 342 -12 q 140 81 213 -12 q 68 375 68 174 q 140 669 68 576 q 342 761 212 761 q 616 375 616 761 q 544 81 616 174 q 342 -12 472 -12 m 342 33 q 509 111 451 33 q 566 373 566 189 q 539 576 566 500 q 463 683 513 651 q 342 715 414 715 q 176 638 233 715 q 118 378 118 561 q 176 112 118 190 q 342 33 233 33 m 158 968 l 158 1009 l 528 1009 l 528 968 l 158 968 m 322 1108 l 427 1297 l 479 1297 l 363 1108 l 322 1108 z "},"ṑ":{"ha":684,"x_min":68,"x_max":616,"o":"m 342 -12 q 140 81 213 -12 q 68 375 68 174 q 140 669 68 576 q 342 761 212 761 q 616 375 616 761 q 544 81 616 174 q 342 -12 472 -12 m 342 33 q 509 111 451 33 q 566 373 566 189 q 539 576 566 500 q 463 683 513 651 q 342 715 414 715 q 176 638 233 715 q 118 378 118 561 q 176 112 118 190 q 342 33 233 33 m 158 968 l 158 1009 l 528 1009 l 528 968 l 158 968 m 322 1108 l 206 1297 l 258 1297 l 363 1108 l 322 1108 z "},"ǫ":{"ha":684,"x_min":68,"x_max":616,"o":"m 432 0 q 323 -68 357 -25 q 288 -158 288 -111 q 311 -220 288 -199 q 375 -242 335 -242 q 462 -219 421 -242 l 474 -251 q 376 -278 431 -278 q 284 -247 318 -278 q 249 -161 249 -217 q 270 -79 249 -117 q 332 -12 291 -40 q 137 85 206 -8 q 68 375 68 178 q 140 669 68 576 q 342 761 212 761 q 616 375 616 761 q 569 120 616 211 q 432 0 522 30 m 118 378 q 176 112 118 190 q 342 33 233 33 q 509 111 451 33 q 566 373 566 189 q 539 576 566 500 q 463 683 513 651 q 342 715 414 715 q 176 638 233 715 q 118 378 118 561 z "},"ø":{"ha":684,"x_min":68,"x_max":616,"o":"m 555 653 q 616 375 616 556 q 544 81 616 174 q 342 -12 472 -12 q 157 60 225 -12 l 110 -11 l 73 13 l 129 97 q 68 375 68 194 q 140 669 68 576 q 342 761 212 761 q 526 690 460 761 l 574 761 l 610 738 l 555 653 m 342 715 q 176 638 233 715 q 118 378 118 561 q 159 141 118 225 l 499 649 q 342 715 447 715 m 342 33 q 509 111 451 33 q 566 373 566 189 q 525 610 566 526 l 184 101 q 342 33 238 33 z "},"ǿ":{"ha":684,"x_min":68,"x_max":616,"o":"m 555 653 q 616 375 616 556 q 544 81 616 174 q 342 -12 472 -12 q 157 60 225 -12 l 110 -11 l 73 13 l 129 97 q 68 375 68 194 q 140 669 68 576 q 342 761 212 761 q 526 690 460 761 l 574 761 l 610 738 l 555 653 m 342 715 q 176 638 233 715 q 118 378 118 561 q 159 141 118 225 l 499 649 q 342 715 447 715 m 342 33 q 509 111 451 33 q 566 373 566 189 q 525 610 566 526 l 184 101 q 342 33 238 33 m 319 878 l 443 1122 l 495 1122 l 361 878 l 319 878 z "},"õ":{"ha":684,"x_min":68,"x_max":616,"o":"m 342 -12 q 140 81 213 -12 q 68 375 68 174 q 140 669 68 576 q 342 761 212 761 q 616 375 616 761 q 544 81 616 174 q 342 -12 472 -12 m 342 33 q 509 111 451 33 q 566 373 566 189 q 539 576 566 500 q 463 683 513 651 q 342 715 414 715 q 176 638 233 715 q 118 378 118 561 q 176 112 118 190 q 342 33 233 33 m 430 958 q 384 966 406 958 q 333 988 361 974 q 289 1006 306 1000 q 255 1012 272 1012 q 202 1000 226 1012 q 158 963 178 988 l 158 1008 q 199 1040 174 1029 q 255 1051 224 1051 q 301 1044 278 1051 q 352 1022 324 1036 q 396 1004 378 1010 q 430 998 413 998 q 483 1010 459 998 q 528 1047 506 1022 l 528 1001 q 430 958 492 958 z "},"ṍ":{"ha":684,"x_min":68,"x_max":616,"o":"m 342 -12 q 140 81 213 -12 q 68 375 68 174 q 140 669 68 576 q 342 761 212 761 q 616 375 616 761 q 544 81 616 174 q 342 -12 472 -12 m 342 33 q 509 111 451 33 q 566 373 566 189 q 539 576 566 500 q 463 683 513 651 q 342 715 414 715 q 176 638 233 715 q 118 378 118 561 q 176 112 118 190 q 342 33 233 33 m 430 958 q 384 966 406 958 q 333 988 361 974 q 289 1006 306 1000 q 255 1012 272 1012 q 202 1000 226 1012 q 158 963 178 988 l 158 1008 q 199 1040 174 1029 q 255 1051 224 1051 q 301 1044 278 1051 q 352 1022 324 1036 q 396 1004 378 1010 q 430 998 413 998 q 483 1010 459 998 q 528 1047 506 1022 l 528 1001 q 430 958 492 958 m 322 1108 l 427 1297 l 479 1297 l 363 1108 l 322 1108 z "},"ṏ":{"ha":684,"x_min":68,"x_max":616,"o":"m 342 -12 q 140 81 213 -12 q 68 375 68 174 q 140 669 68 576 q 342 761 212 761 q 616 375 616 761 q 544 81 616 174 q 342 -12 472 -12 m 342 33 q 509 111 451 33 q 566 373 566 189 q 539 576 566 500 q 463 683 513 651 q 342 715 414 715 q 176 638 233 715 q 118 378 118 561 q 176 112 118 190 q 342 33 233 33 m 430 958 q 384 966 406 958 q 333 988 361 974 q 289 1006 306 1000 q 255 1012 272 1012 q 202 1000 226 1012 q 158 963 178 988 l 158 1008 q 199 1040 174 1029 q 255 1051 224 1051 q 301 1044 278 1051 q 352 1022 324 1036 q 396 1004 378 1010 q 430 998 413 998 q 483 1010 459 998 q 528 1047 506 1022 l 528 1001 q 430 958 492 958 m 217 1128 q 186 1140 199 1128 q 174 1171 174 1151 q 186 1203 174 1190 q 217 1215 199 1215 q 248 1203 236 1215 q 260 1171 260 1190 q 248 1140 260 1151 q 217 1128 236 1128 m 467 1128 q 436 1140 449 1128 q 424 1171 424 1151 q 436 1203 424 1190 q 467 1215 449 1215 q 498 1203 486 1215 q 510 1171 510 1190 q 498 1140 510 1151 q 467 1128 486 1128 z "},"ȭ":{"ha":684,"x_min":68,"x_max":616,"o":"m 342 -12 q 140 81 213 -12 q 68 375 68 174 q 140 669 68 576 q 342 761 212 761 q 616 375 616 761 q 544 81 616 174 q 342 -12 472 -12 m 342 33 q 509 111 451 33 q 566 373 566 189 q 539 576 566 500 q 463 683 513 651 q 342 715 414 715 q 176 638 233 715 q 118 378 118 561 q 176 112 118 190 q 342 33 233 33 m 430 958 q 384 966 406 958 q 333 988 361 974 q 289 1006 306 1000 q 255 1012 272 1012 q 202 1000 226 1012 q 158 963 178 988 l 158 1008 q 199 1040 174 1029 q 255 1051 224 1051 q 301 1044 278 1051 q 352 1022 324 1036 q 396 1004 378 1010 q 430 998 413 998 q 483 1010 459 998 q 528 1047 506 1022 l 528 1001 q 430 958 492 958 m 158 1151 l 158 1192 l 528 1192 l 528 1151 l 158 1151 z "},"œ":{"ha":1123,"x_min":68,"x_max":1065,"o":"m 1065 354 l 610 354 q 642 166 613 237 q 726 64 672 95 q 863 33 781 33 q 1031 65 933 33 l 1031 18 q 860 -12 944 -12 q 683 35 752 -12 q 585 188 614 83 q 494 36 557 85 q 340 -12 431 -12 q 140 81 212 -12 q 68 375 68 174 q 140 669 68 576 q 340 761 211 761 q 585 560 532 761 q 816 763 634 763 q 1001 671 936 763 q 1065 376 1065 580 l 1065 354 m 816 717 q 667 644 720 717 q 610 400 613 571 l 1015 400 q 989 589 1013 519 q 921 688 964 658 q 816 717 878 717 m 340 33 q 503 111 447 33 q 560 373 560 189 q 503 638 560 560 q 340 715 447 715 q 175 638 233 715 q 118 378 118 561 q 175 112 118 191 q 340 33 233 33 z "},"p":{"ha":690,"x_min":109,"x_max":622,"o":"m 109 750 l 151 750 l 156 671 l 160 671 q 242 736 192 711 q 353 761 292 761 q 548 675 474 761 q 622 389 622 588 q 535 85 622 183 q 281 -12 449 -12 q 156 -3 226 -12 l 156 -306 l 109 -306 l 109 750 m 283 33 q 500 116 428 33 q 572 383 572 199 q 543 584 572 510 q 467 686 515 657 q 351 715 419 715 q 240 686 293 715 q 156 601 188 658 l 156 47 q 217 37 181 41 q 283 33 252 33 z "},"þ":{"ha":690,"x_min":109,"x_max":622,"o":"m 109 1122 l 156 1122 l 156 674 l 160 674 q 244 737 194 713 q 359 761 294 761 q 549 674 477 761 q 622 389 622 588 q 535 85 622 183 q 281 -12 449 -12 q 156 -3 226 -12 l 156 -306 l 109 -306 l 109 1122 m 283 33 q 500 116 428 33 q 572 383 572 199 q 514 642 572 568 q 355 715 456 715 q 242 687 295 715 q 156 603 188 658 l 156 47 q 217 37 181 41 q 283 33 252 33 z "},"q":{"ha":690,"x_min":68,"x_max":581,"o":"m 533 74 l 529 74 q 445 12 496 36 q 333 -12 395 -12 q 141 74 214 -12 q 68 360 68 161 q 403 761 68 761 q 495 754 447 761 q 581 734 544 747 l 581 -306 l 533 -306 l 533 74 m 336 33 q 448 62 394 33 q 533 144 501 90 l 533 699 q 470 711 506 706 q 401 715 435 715 q 189 632 260 715 q 118 365 118 549 q 176 107 118 181 q 336 33 234 33 z "},"r":{"ha":431,"x_min":109,"x_max":422,"o":"m 109 750 l 151 750 l 155 649 l 160 649 q 256 728 199 700 q 374 756 313 756 q 422 752 400 756 l 422 705 q 374 707 406 707 q 252 673 312 707 q 156 578 192 640 l 156 0 l 109 0 l 109 750 z "},"ŕ":{"ha":431,"x_min":109,"x_max":422,"o":"m 109 750 l 151 750 l 155 649 l 160 649 q 256 728 199 700 q 374 756 313 756 q 422 752 400 756 l 422 705 q 374 707 406 707 q 252 673 312 707 q 156 578 192 640 l 156 0 l 109 0 l 109 750 m 231 878 l 355 1122 l 407 1122 l 273 878 l 231 878 z "},"ř":{"ha":431,"x_min":88,"x_max":422,"o":"m 109 750 l 151 750 l 155 649 l 160 649 q 256 728 199 700 q 374 756 313 756 q 422 752 400 756 l 422 705 q 374 707 406 707 q 252 673 312 707 q 156 578 192 640 l 156 0 l 109 0 l 109 750 m 370 1122 l 417 1122 l 278 878 l 226 878 l 88 1122 l 135 1122 l 253 908 l 370 1122 z "},"ŗ":{"ha":431,"x_min":90,"x_max":422,"o":"m 109 750 l 151 750 l 155 649 l 160 649 q 256 728 199 700 q 374 756 313 756 q 422 752 400 756 l 422 705 q 374 707 406 707 q 252 673 312 707 q 156 578 192 640 l 156 0 l 109 0 l 109 750 m 130 -128 q 164 -143 151 -128 q 176 -187 176 -158 q 168 -247 176 -214 q 145 -311 160 -281 l 115 -311 q 138 -215 134 -262 l 133 -215 q 102 -203 114 -215 q 90 -171 90 -190 q 101 -140 90 -152 q 130 -128 113 -128 z "},"ȑ":{"ha":431,"x_min":54,"x_max":422,"o":"m 109 750 l 151 750 l 155 649 l 160 649 q 256 728 199 700 q 374 756 313 756 q 422 752 400 756 l 422 705 q 374 707 406 707 q 252 673 312 707 q 156 578 192 640 l 156 0 l 109 0 l 109 750 m 137 878 l 54 1122 l 101 1122 l 177 878 l 137 878 m 328 878 l 245 1122 l 292 1122 l 367 878 l 328 878 z "},"ṛ":{"ha":431,"x_min":90,"x_max":422,"o":"m 109 750 l 151 750 l 155 649 l 160 649 q 256 728 199 700 q 374 756 313 756 q 422 752 400 756 l 422 705 q 374 707 406 707 q 252 673 312 707 q 156 578 192 640 l 156 0 l 109 0 l 109 750 m 133 -215 q 102 -203 114 -215 q 90 -172 90 -192 q 102 -140 90 -153 q 133 -128 114 -128 q 164 -140 151 -128 q 176 -172 176 -153 q 164 -203 176 -192 q 133 -215 151 -215 z "},"ȓ":{"ha":431,"x_min":84,"x_max":422,"o":"m 109 750 l 151 750 l 155 649 l 160 649 q 256 728 199 700 q 374 756 313 756 q 422 752 400 756 l 422 705 q 374 707 406 707 q 252 673 312 707 q 156 578 192 640 l 156 0 l 109 0 l 109 750 m 84 897 q 131 1059 88 1005 q 251 1114 174 1114 q 373 1059 328 1114 q 420 897 417 1003 l 381 897 q 344 1031 376 988 q 251 1074 312 1074 q 159 1031 190 1074 q 124 897 127 988 l 84 897 z "},"ṟ":{"ha":431,"x_min":-31,"x_max":422,"o":"m 109 750 l 151 750 l 155 649 l 160 649 q 256 728 199 700 q 374 756 313 756 q 422 752 400 756 l 422 705 q 374 707 406 707 q 252 673 312 707 q 156 578 192 640 l 156 0 l 109 0 l 109 750 m -31 -192 l -31 -152 l 296 -152 l 296 -192 l -31 -192 z "},"s":{"ha":549,"x_min":63,"x_max":499,"o":"m 247 -12 q 74 15 155 -12 l 74 63 q 166 40 124 47 q 249 33 207 33 q 399 74 348 33 q 450 190 450 114 q 418 291 450 256 q 315 344 385 326 l 238 363 q 103 435 144 388 q 63 559 63 483 q 91 663 63 617 q 176 735 119 709 q 313 761 233 761 q 462 743 390 761 l 462 696 q 387 711 421 706 q 313 715 353 715 q 162 673 213 715 q 112 561 112 631 q 142 466 112 502 q 242 413 173 430 l 319 394 q 458 320 417 369 q 499 194 499 272 q 434 42 499 97 q 247 -12 369 -12 z "},"ś":{"ha":549,"x_min":63,"x_max":499,"o":"m 247 -12 q 74 15 155 -12 l 74 63 q 166 40 124 47 q 249 33 207 33 q 399 74 348 33 q 450 190 450 114 q 418 291 450 256 q 315 344 385 326 l 238 363 q 103 435 144 388 q 63 559 63 483 q 91 663 63 617 q 176 735 119 709 q 313 761 233 761 q 462 743 390 761 l 462 696 q 387 711 421 706 q 313 715 353 715 q 162 673 213 715 q 112 561 112 631 q 142 466 112 502 q 242 413 173 430 l 319 394 q 458 320 417 369 q 499 194 499 272 q 434 42 499 97 q 247 -12 369 -12 m 258 878 l 382 1122 l 434 1122 l 300 878 l 258 878 z "},"ṥ":{"ha":549,"x_min":63,"x_max":499,"o":"m 247 -12 q 74 15 155 -12 l 74 63 q 166 40 124 47 q 249 33 207 33 q 399 74 348 33 q 450 190 450 114 q 418 291 450 256 q 315 344 385 326 l 238 363 q 103 435 144 388 q 63 559 63 483 q 91 663 63 617 q 176 735 119 709 q 313 761 233 761 q 462 743 390 761 l 462 696 q 387 711 421 706 q 313 715 353 715 q 162 673 213 715 q 112 561 112 631 q 142 466 112 502 q 242 413 173 430 l 319 394 q 458 320 417 369 q 499 194 499 272 q 434 42 499 97 q 247 -12 369 -12 m 251 1094 q 220 1106 233 1094 q 208 1138 208 1118 q 220 1169 208 1157 q 251 1182 233 1182 q 282 1169 270 1182 q 294 1138 294 1157 q 282 1106 294 1118 q 251 1094 270 1094 m 258 878 l 382 1122 l 434 1122 l 300 878 l 258 878 z "},"š":{"ha":549,"x_min":63,"x_max":499,"o":"m 247 -12 q 74 15 155 -12 l 74 63 q 166 40 124 47 q 249 33 207 33 q 399 74 348 33 q 450 190 450 114 q 418 291 450 256 q 315 344 385 326 l 238 363 q 103 435 144 388 q 63 559 63 483 q 91 663 63 617 q 176 735 119 709 q 313 761 233 761 q 462 743 390 761 l 462 696 q 387 711 421 706 q 313 715 353 715 q 162 673 213 715 q 112 561 112 631 q 142 466 112 502 q 242 413 173 430 l 319 394 q 458 320 417 369 q 499 194 499 272 q 434 42 499 97 q 247 -12 369 -12 m 397 1122 l 444 1122 l 306 878 l 253 878 l 115 1122 l 162 1122 l 280 908 l 397 1122 z "},"ṧ":{"ha":549,"x_min":63,"x_max":499,"o":"m 247 -12 q 74 15 155 -12 l 74 63 q 166 40 124 47 q 249 33 207 33 q 399 74 348 33 q 450 190 450 114 q 418 291 450 256 q 315 344 385 326 l 238 363 q 103 435 144 388 q 63 559 63 483 q 91 663 63 617 q 176 735 119 709 q 313 761 233 761 q 462 743 390 761 l 462 696 q 387 711 421 706 q 313 715 353 715 q 162 673 213 715 q 112 561 112 631 q 142 466 112 502 q 242 413 173 430 l 319 394 q 458 320 417 369 q 499 194 499 272 q 434 42 499 97 q 247 -12 369 -12 m 279 1121 q 248 1133 260 1121 q 236 1164 236 1144 q 248 1196 236 1183 q 279 1208 260 1208 q 310 1196 298 1208 q 322 1164 322 1183 q 310 1133 322 1144 q 279 1121 298 1121 m 397 1122 l 444 1122 l 306 878 l 253 878 l 115 1122 l 162 1122 l 280 908 l 397 1122 z "},"ş":{"ha":549,"x_min":63,"x_max":499,"o":"m 499 194 q 448 55 499 108 q 300 -10 397 1 l 300 -80 q 373 -110 348 -84 q 399 -179 399 -135 q 367 -251 399 -224 q 280 -278 335 -278 q 222 -272 251 -278 q 173 -253 193 -265 l 173 -215 q 283 -242 224 -242 q 360 -179 360 -242 q 281 -114 360 -114 l 261 -114 l 261 -12 l 247 -12 q 74 15 155 -12 l 74 63 q 166 40 124 47 q 249 33 207 33 q 399 74 348 33 q 450 190 450 114 q 418 291 450 256 q 315 344 385 326 l 238 363 q 103 435 144 388 q 63 559 63 483 q 91 663 63 617 q 176 735 119 709 q 313 761 233 761 q 462 743 390 761 l 462 696 q 387 711 421 706 q 313 715 353 715 q 162 673 213 715 q 112 561 112 631 q 142 466 112 502 q 242 413 173 430 l 319 394 q 458 320 417 369 q 499 194 499 272 z "},"ŝ":{"ha":549,"x_min":63,"x_max":499,"o":"m 247 -12 q 74 15 155 -12 l 74 63 q 166 40 124 47 q 249 33 207 33 q 399 74 348 33 q 450 190 450 114 q 418 291 450 256 q 315 344 385 326 l 238 363 q 103 435 144 388 q 63 559 63 483 q 91 663 63 617 q 176 735 119 709 q 313 761 233 761 q 462 743 390 761 l 462 696 q 387 711 421 706 q 313 715 353 715 q 162 673 213 715 q 112 561 112 631 q 142 466 112 502 q 242 413 173 430 l 319 394 q 458 320 417 369 q 499 194 499 272 q 434 42 499 97 q 247 -12 369 -12 m 442 878 l 396 878 l 280 1092 l 163 878 l 116 878 l 253 1122 l 306 1122 l 442 878 z "},"ș":{"ha":549,"x_min":63,"x_max":499,"o":"m 247 -12 q 74 15 155 -12 l 74 63 q 166 40 124 47 q 249 33 207 33 q 399 74 348 33 q 450 190 450 114 q 418 291 450 256 q 315 344 385 326 l 238 363 q 103 435 144 388 q 63 559 63 483 q 91 663 63 617 q 176 735 119 709 q 313 761 233 761 q 462 743 390 761 l 462 696 q 387 711 421 706 q 313 715 353 715 q 162 673 213 715 q 112 561 112 631 q 142 466 112 502 q 242 413 173 430 l 319 394 q 458 320 417 369 q 499 194 499 272 q 434 42 499 97 q 247 -12 369 -12 m 276 -128 q 310 -143 298 -128 q 322 -187 322 -158 q 315 -247 322 -214 q 292 -311 307 -281 l 261 -311 q 284 -215 281 -262 l 279 -215 q 248 -203 260 -215 q 236 -171 236 -190 q 248 -140 236 -152 q 276 -128 259 -128 z "},"ṡ":{"ha":549,"x_min":63,"x_max":499,"o":"m 247 -12 q 74 15 155 -12 l 74 63 q 166 40 124 47 q 249 33 207 33 q 399 74 348 33 q 450 190 450 114 q 418 291 450 256 q 315 344 385 326 l 238 363 q 103 435 144 388 q 63 559 63 483 q 91 663 63 617 q 176 735 119 709 q 313 761 233 761 q 462 743 390 761 l 462 696 q 387 711 421 706 q 313 715 353 715 q 162 673 213 715 q 112 561 112 631 q 142 466 112 502 q 242 413 173 430 l 319 394 q 458 320 417 369 q 499 194 499 272 q 434 42 499 97 q 247 -12 369 -12 m 279 944 q 248 956 260 944 q 236 988 236 968 q 248 1019 236 1007 q 279 1032 260 1032 q 310 1019 298 1032 q 322 988 322 1007 q 310 956 322 968 q 279 944 298 944 z "},"ṣ":{"ha":549,"x_min":63,"x_max":499,"o":"m 247 -12 q 74 15 155 -12 l 74 63 q 166 40 124 47 q 249 33 207 33 q 399 74 348 33 q 450 190 450 114 q 418 291 450 256 q 315 344 385 326 l 238 363 q 103 435 144 388 q 63 559 63 483 q 91 663 63 617 q 176 735 119 709 q 313 761 233 761 q 462 743 390 761 l 462 696 q 387 711 421 706 q 313 715 353 715 q 162 673 213 715 q 112 561 112 631 q 142 466 112 502 q 242 413 173 430 l 319 394 q 458 320 417 369 q 499 194 499 272 q 434 42 499 97 q 247 -12 369 -12 m 279 -215 q 248 -203 260 -215 q 236 -172 236 -192 q 248 -140 236 -153 q 279 -128 260 -128 q 310 -140 298 -128 q 322 -172 322 -153 q 310 -203 322 -192 q 279 -215 298 -215 z "},"ṩ":{"ha":549,"x_min":63,"x_max":499,"o":"m 247 -12 q 74 15 155 -12 l 74 63 q 166 40 124 47 q 249 33 207 33 q 399 74 348 33 q 450 190 450 114 q 418 291 450 256 q 315 344 385 326 l 238 363 q 103 435 144 388 q 63 559 63 483 q 91 663 63 617 q 176 735 119 709 q 313 761 233 761 q 462 743 390 761 l 462 696 q 387 711 421 706 q 313 715 353 715 q 162 673 213 715 q 112 561 112 631 q 142 466 112 502 q 242 413 173 430 l 319 394 q 458 320 417 369 q 499 194 499 272 q 434 42 499 97 q 247 -12 369 -12 m 279 -215 q 248 -203 260 -215 q 236 -172 236 -192 q 248 -140 236 -153 q 279 -128 260 -128 q 310 -140 298 -128 q 322 -172 322 -153 q 310 -203 322 -192 q 279 -215 298 -215 m 279 944 q 248 956 260 944 q 236 988 236 968 q 248 1019 236 1007 q 279 1032 260 1032 q 310 1019 298 1032 q 322 988 322 1007 q 310 956 322 968 q 279 944 298 944 z "},"ß":{"ha":839,"x_min":8,"x_max":789,"o":"m 609 394 q 749 320 708 369 q 789 194 789 272 q 724 42 789 97 q 540 -12 660 -12 q 365 14 444 -12 l 365 61 q 455 40 414 46 q 539 33 496 33 q 689 74 638 33 q 740 190 740 114 q 708 291 740 256 q 605 344 676 326 l 528 363 q 393 434 434 386 q 353 558 353 483 q 381 662 353 617 q 466 734 410 708 q 603 760 523 760 q 663 756 636 760 q 670 838 670 800 q 609 1031 670 972 q 442 1090 547 1090 q 263 1023 325 1090 q 201 803 201 956 l 201 0 l 154 0 l 154 704 l 8 704 l 8 750 l 154 750 l 154 807 q 229 1055 154 974 q 442 1136 304 1136 q 640 1064 566 1136 q 715 840 715 992 q 710 768 715 806 q 699 705 705 730 q 655 713 675 710 q 603 715 634 715 q 452 673 503 715 q 402 561 402 631 q 433 466 402 502 q 532 413 464 430 l 609 394 z "},"t":{"ha":447,"x_min":3,"x_max":443,"o":"m 353 33 q 443 46 394 33 l 443 -2 q 351 -12 397 -12 q 149 204 149 -12 l 149 706 l 3 706 l 3 750 l 149 750 l 154 1028 l 196 1028 l 196 750 l 428 750 l 428 706 l 196 706 l 196 213 q 234 75 196 116 q 353 33 273 33 z "}}}
